<svg xmlns="http://www.w3.org/2000/svg" width="71.607" height="33.701" viewBox="0 0 71.607 33.701">
  <g id="Group_356" data-name="Group 356" transform="translate(-4630.133 -5328.088)">
    <g id="Group_311" data-name="Group 311" transform="translate(4630.133 5328.088)">
      <g id="Group_310" data-name="Group 310" transform="translate(1.747)">
        <path id="Union_1" data-name="Union 1" d="M4.124,0A4.124,4.124,0,1,0,8.247,4.124,4.123,4.123,0,0,0,4.124,0Zm0,6.388A2.264,2.264,0,1,1,6.388,4.124,2.264,2.264,0,0,1,4.124,6.388Z" transform="translate(61.613)" fill="#fff"/>
        <path id="Path_428" data-name="Path 428" d="M615.994,248.6c-3.708,0-9.545,2.285-9.545,9.1v9.358a14.067,14.067,0,0,0,.1,1.951h4.167a7.846,7.846,0,0,1-.168-1.661v-9.9c0-4.316,3.353-5.4,5.4-5.4a5.006,5.006,0,0,1,5.285,5.4v9.9a9.784,9.784,0,0,1-.094,1.661h4.114a14.536,14.536,0,0,0,.082-1.661v-9.9C625.341,251.613,620.332,248.6,615.994,248.6Zm-21.769,9.177a9.429,9.429,0,0,0-1.735.181l6.192-8.814h-4.851l-8.2,11.788a11.458,11.458,0,0,0-2.209,6.42,7.2,7.2,0,0,0,.211,1.661h4.219a6.329,6.329,0,0,1-.328-2.023,5.982,5.982,0,0,1,6.114-5.767,5.855,5.855,0,0,1,5.877,6.021,5.543,5.543,0,0,1-.3,1.769h4.149a9.656,9.656,0,0,0,.248-2.168A9.093,9.093,0,0,0,594.225,257.779Zm-17.239,3.728a6.031,6.031,0,0,0,2.682-5.223c0-4.28-3.274-7.436-7.888-7.436-2.09,0-7.731,1.124-8.125,7.218h4.1c.434-3.59,3.116-3.772,3.9-3.772a3.753,3.753,0,0,1,3.9,3.7c0,.145,0,3.736-4.26,3.736h-1.42V263.5h1.5c2.879,0,5.443,1.886,5.443,4.824a4.292,4.292,0,0,1-.059.689h4.12c.024-.273.041-.549.041-.835A7.6,7.6,0,0,0,576.986,261.506Z" transform="translate(-563.655 -243.174)" fill="#fff"/>
      </g>
      <path id="Path_429" data-name="Path 429" d="M560.739,278.754a7.84,7.84,0,0,0,.358,2.292h4.31a5.636,5.636,0,0,1-.566-2.292Z" transform="translate(-560.739 -255.257)" fill="#fff"/>
    </g>
    <g id="Group_312" data-name="Group 312" transform="translate(4631.088 5358.014)">
      <path id="Path_430" data-name="Path 430" d="M562.332,289.6h.944a.992.992,0,0,1,1.135,1.007.825.825,0,0,1-.324.688.973.973,0,0,1,.541.885,1.055,1.055,0,0,1-1.209,1.057h-1.086Zm.531,1.514h.432c.5,0,.585-.3.585-.511,0-.516-.5-.516-.614-.516h-.4Zm0,1.637h.575a.586.586,0,0,0,.659-.57.612.612,0,0,0-.128-.359.673.673,0,0,0-.594-.221h-.511Z" transform="translate(-562.332 -289.528)" fill="#fff"/>
      <path id="Path_431" data-name="Path 431" d="M570.535,293.234l-1.2-1.686h-.01v1.686h-.531V289.6h1.125a1.287,1.287,0,0,1,.968.3,1.2,1.2,0,0,1,.334.86,1.045,1.045,0,0,1-1.042,1.116l1.017,1.357Zm-1.209-1.759h.363c.216,0,1-.01,1-.713,0-.3-.207-.678-.807-.678h-.56Z" transform="translate(-564.922 -289.528)" fill="#fff"/>
      <path id="Path_432" data-name="Path 432" d="M575.455,293.234V289.6h1.961v.487h-1.43v1.072h1.43v.486h-1.43v1.106h1.43v.487Z" transform="translate(-567.591 -289.528)" fill="#fff"/>
      <path id="Path_433" data-name="Path 433" d="M583.917,293.234l-.659-2.541h-.01l-.659,2.541h-.467l-1.017-3.637h.55l.693,2.737h.01l.7-2.737h.388l.693,2.718h.01l.708-2.718h.54l-1.017,3.637Z" transform="translate(-569.855 -289.528)" fill="#fff"/>
      <path id="Path_434" data-name="Path 434" d="M590.808,293.234V289.6h.531v3.637Z" transform="translate(-573.743 -289.528)" fill="#fff"/>
      <path id="Path_435" data-name="Path 435" d="M597.043,293.234l-1.8-2.811h-.01v2.811H594.7V289.6h.58l1.77,2.767h.01V289.6h.531v3.637Z" transform="translate(-575.304 -289.528)" fill="#fff"/>
      <path id="Path_436" data-name="Path 436" d="M605.112,290.465a1.3,1.3,0,0,0-.992-.5,1.4,1.4,0,0,0,0,2.8,1.338,1.338,0,0,0,1.253-.9h-1.7v-.487h2.3a1.937,1.937,0,1,1-.25-.914Z" transform="translate(-578.325 -289.482)" fill="#fff"/>
      <path id="Path_437" data-name="Path 437" d="M617.81,290.48a1.324,1.324,0,0,0-1.022-.511,1.366,1.366,0,0,0-1.351,1.391,1.4,1.4,0,0,0,1.342,1.411,1.317,1.317,0,0,0,.993-.482h.654a1.874,1.874,0,0,1-1.652.968,1.9,1.9,0,0,1-1.868-1.9,1.866,1.866,0,0,1,1.873-1.873,1.94,1.94,0,0,1,1.111.354,1.84,1.84,0,0,1,.56.644Z" transform="translate(-583.399 -289.482)" fill="#fff"/>
      <path id="Path_438" data-name="Path 438" d="M625,293.257a1.887,1.887,0,1,1,1.892-1.878A1.892,1.892,0,0,1,625,293.257Zm0-3.288a1.4,1.4,0,1,0,1.362,1.415A1.375,1.375,0,0,0,625,289.969Z" transform="translate(-586.686 -289.482)" fill="#fff"/>
      <path id="Path_439" data-name="Path 439" d="M635.465,293.234v-3.072h-.015l-1.224,3.072h-.319l-1.229-3.072h-.01v3.072h-.531V289.6h.835l1.091,2.787,1.1-2.787H636v3.637Z" transform="translate(-590.305 -289.528)" fill="#fff"/>
      <path id="Path_440" data-name="Path 440" d="M642.034,293.234h-.53V289.6h1.052c.87,0,1.282.452,1.282,1.1s-.412,1.1-1.282,1.1h-.521Zm0-1.922h.521c.6,0,.752-.344.752-.614s-.147-.614-.752-.614h-.521Z" transform="translate(-594.059 -289.528)" fill="#fff"/>
      <path id="Path_441" data-name="Path 441" d="M649.305,293.234l-.4-1.072h-1.307l-.4,1.072h-.56l1.381-3.637h.476l1.381,3.637Zm-.585-1.558-.462-1.391h-.01l-.467,1.391Z" transform="translate(-596.113 -289.528)" fill="#fff"/>
      <path id="Path_442" data-name="Path 442" d="M656.878,293.234l-1.8-2.811h-.01v2.811h-.53V289.6h.58l1.77,2.767h.01V289.6h.531v3.637Z" transform="translate(-599.282 -289.528)" fill="#fff"/>
      <path id="Path_443" data-name="Path 443" d="M663,293.234v-1.312l-1.13-2.325h.594l.8,1.706.8-1.706h.59l-1.12,2.325v1.312Z" transform="translate(-602.22 -289.528)" fill="#fff"/>
    </g>
  </g>
</svg>
