<?xml version="1.0" encoding="UTF-8"?> <!-- Generator: Adobe Illustrator 25.0.1, SVG Export Plug-In . SVG Version: 6.00 Build 0) --> <svg xmlns="http://www.w3.org/2000/svg" xmlns:xlink="http://www.w3.org/1999/xlink" version="1.1" id="Layer_1" x="0px" y="0px" width="136px" height="143.7px" viewBox="0 0 136 143.7" style="enable-background:new 0 0 136 143.7;" xml:space="preserve"> <style type="text/css"> .st0{fill:#020202;} </style> <path class="st0" d="M135.4,46.9c0,0-3.7,2.2-7.3,1.4c-2.1-0.4-3.2-1.2-3.7-1.8c1.7-0.5,3-1.3,4.1-2c1.4-0.9,2.8-2.2,2.8-2.2 l-0.9-0.3c0,0-4.2,3.4-9,3.1c-5-0.3-5.8-2.6-5.8-2.6l-0.4,0.1c4-1.3,7-2.7,6.9-2.9l-0.4-0.6c0,0-3.9,1.7-6.8,1.9 c-1.6,0.1-4-0.5-4.2-0.8c3.9-5.4,7.8-6.6,10.8-9.4c5-4.7,7.9-10.2,6.8-16.8c-1.5,5-2.7,11.2-9.9,14.9c0.9-4.5,1.3-8.8,0.3-12.3 c-0.9-3.1-4.7-7.3-4.7-7.3l-1.2-0.3c0,0,1.9,2.5,2.9,5c1.1,2.6,1.4,5.2,1,7.4c-0.6-1.2-2.4-4-5.5-6.2c-3.4-2.4-7.7-3.6-7.7-3.6 l0.2,0.9c0,0,5.8,2.6,8.3,5.6c3.8,4.7,3.3,10.3,0.9,15.1c-2.3,4.7-6.7,6.7-12.2,6.7c-0.9,0-2.3-0.1-3.2-0.4c0.2-1,1.1-2.1,1.7-2.9 c3-4.2,3.5-9.4,3.5-9.4l-0.7-0.4c0,0-0.8,4.1-3.1,6.6c-6.7,7.2-13.7,7.1-22.8,3.7c1.9-1.7,5.1-4.8,6.6-7.2c2.6-4.2,3.1-6.9,3.1-6.9 l-1,0.3c0,0-1.3,3.3-4.9,6.5c-2.8,2.5-5.9,4.8-9.6,5.9c-7.2,2.2-11.4-0.8-11.1-7.8c0.2-5.5,3.9-8.1,4.2-8.3l0-0.5 c0,0-2.7,1.2-4.9,4.5c-1.3,1.9-2.3,4.8-2.3,7.4c0,1.9-0.2,3.2-0.7,4c-1.6-0.6-3-1.4-4.2-2.5c-1.2-1.1-2.8-3.3-3.7-5.2 c-1.4-2.9-0.3-6.5-0.3-6.5l-0.5-0.5c0,0-1.3,2.4-1.1,5.2c0.1,1.7,0.7,3.9,1.5,5.6c-3.7-0.6-6.8-3.8-7.4-6.7c-0.7-4-1-9.5,5.2-12 c3.2-1.3,7.4-4.4,7.4-4.4s-0.5-0.2-0.6-0.3c-3.3,1.8-6.6,3.2-10.3,4c1-6.1,8.8-10.9,8.8-10.9l0-0.6C48.8,0.2,38.8,6.6,37,13.9 c-1.8-1.4-2.4-3.1-2.7-4.7c-0.6-2.6,0.9-5.6,0.9-5.6l-0.3-0.4c0,0-2.1,2.6-2.2,5.6c-0.1,2.2,0.3,4.7,1.8,6.2c2.9,3,2.2,5.4,2.1,8 c-2.5-0.2-3.9-1.2-4.7-2.4c-1.4-2.1-0.9-4.7-0.9-4.7l-0.5-0.6c0,0-1.7,3.4-0.3,6.5c0.8,1.8,2.2,3,3.9,3.7c1.6,0.7,2.6,1.4,3.4,2.3 c2.3,2.9,5.6,4.4,9.1,5.7c1.2,0.2,2.5,2.3-0.4,2.9c-2.2,0.5-1.5,2.2-1.5,2.2s7.6-2,8.4,3.8c0.2,1.1,0.8,0.7,1.2-0.1 c1.8-3.6,6.5-3.7,11.4-2.8c3.1,0.6,6.7,1.4,9.3,1.8c6.3,0.9,10.9,1.9,15.2,2.6c0.9,1.4,3.2,4.8,7.3,6.6c6.1,2.6,10.2,1.7,13.3,0.9 c2-0.5,4.3-1.6,4.3-1.6l-0.9-0.7c0,0-6.5,2.4-11.9,0.2c-4-1.6-5.2-3.5-5.5-4.6c1.8,0.2,3.6,0.2,5.7,0.2c2.5,0,5.5-0.6,8.5-1.3 c1,0.9,3.8,2.9,7.4,3.2c1,0.1,1.9,0.1,2.7,0c1,0.9,2.5,2,4.5,2.4c4.1,0.9,6.4,0,8.3-0.9c1.2-0.5,2.4-1.4,2.4-1.4L135.4,46.9z M8.8,48.4c1.3,0,1.3-0.4,1.1-0.8c-0.2-0.4-0.5-0.9-1.4-1c-1.8,0-4.9,0.4-4.2,0.7C5,47.7,6.2,48.4,8.8,48.4 M97.4,88.5 c-0.5,0.2-0.9,0.3-1.6,0.4c-0.9,0.1-1.8-0.2-1.9-0.2c0.4-0.4,0.8-0.7,1.3-1.1c-1.4-0.1-2.9-0.2-4.2-0.7c0.5-0.1,1.2-0.3,1.7-0.3 c-0.7,0.1-1.5-0.2-2.2-0.5c-1.7-0.9-3.3-2.1-4.4-3.7c0.4,1.4,1.2,2.7,2.2,3.7c-0.5,0-1-0.2-1.3-0.5c0.9,1.9,3.3,3.1,5.5,2.8 c-0.5,0.4-1.1,0.6-1.7,0.6c1,0.9,2.5,1.4,3.8,1.2C95.6,90,97.1,89.4,97.4,88.5 M86.2,95.6c-0.4,0.4-0.8,0.8-1.3,1 c0.4-1.4,0.3-3-0.5-4.4c-0.3,2.4-0.8,5-2.5,6.8c0.8-0.3,1.5-0.8,2.1-1.3c0.3,1.9-0.7,4.5-0.7,4.5s3.5-3.6,2-3.2 C83.8,99.5,86.1,96.7,86.2,95.6 M57.8,75.4c-0.3,0.3-0.7,0.6-1,0.9c1.1,0,2.3,0.1,3.3,0.5c-0.4,0.1-1,0.3-1.4,0.3 c0.6-0.1,1.2,0.1,1.7,0.4c1.4,0.7,2.6,1.7,3.4,2.9c-0.3-1.1-0.9-2.2-1.7-3.1c0.4,0,0.8,0.1,1,0.4c-0.7-1.6-2.6-2.5-4.3-2.2 c0.4-0.3,0.9-0.5,1.4-0.5c-0.8-0.7-2-1.1-3.1-0.9c-0.8,0.1-2,0.7-2.2,1.4c0.4-0.2,0.8-0.3,1.3-0.4C57,75.2,57.7,75.5,57.8,75.4 M61,89.6c-0.9,0.3-1.4,0.1-2.4-0.5c0,0,0.4,0.9,1.9,1.6c1.5,0.7,3.4,0.6,3.5,0.5c-2-0.4-2.1-0.6-2.5-0.9c1.4,0.1,3,0,4-0.4 c0.3-0.1-1.2-0.4-1.8-0.7c-1.5,0.2-3.8-0.3-6.2-2.2C58.2,88.6,59.9,89.3,61,89.6 M81.2,86.2c-0.4-3.5-1.8-5.4-3.5-7.4 c0-0.2-0.1-0.4-0.2-0.6c1.1,0.7,2.2,1.5,3.2,2c-0.4-3-6.1-9.5-9.6-12c-1.2-0.9-2.6-1.7-4-2.3c-2.9-1.2-7.2-2.2-10.6-1.7 c-3.3,0.5-6.5,1.8-9.4,4c-4.4,3.4-7.9,7.5-7.3,16c0.2,2.9,1.5,6.5,3.6,8.6c2.1,2.1,4.7,4.2,7.9,5.1c3.2,0.9,7,0.9,10.7,0.4l1.7-3.4 c-2.9-0.5-5.5-1.4-7.7-2.8c-0.3-0.3-0.6-0.6-0.9-0.9c-1.3-1.6-1.4-2.4-1.4-2.4L52,89.1L51.9,89c-0.2-0.4-0.8-1.5-1.2-3.1 c-0.7-2.4-0.5-3.4-0.5-3.4l-1.5-0.4c0-0.2-0.1-0.3-0.1-0.5c-0.5-3.2-0.2-5.7,0.8-7.5c1-1.8,2.9-2.9,5.4-3.3c2.6-0.3,4.9,0,6.9,1.1 c2,1.1,3.7,2.7,4.9,4.8c1.2,2.1,2.1,4.5,2.5,7.2c0.8,4.9-0.3,10-3.2,15.1c-2.9,5.2-8,11.1-15.7,16.9l2.2,1.6 c8.2-4.7,13.1-8.5,17.1-12.8c3.4-3.7,5.7-7.2,7.1-10.6c0.4,0.3,0.8,0.8,1.1,1.5c0-2.7,0.1-3.3-0.1-4.9c0.1-0.5,0.2-1,0.3-1.6 c0.7,0.7,1,0.8,2,1.9c0.2-2.5-0.9-5.4-1.6-7.1c0-0.2,0-0.3,0-0.5C79.2,84.1,79.5,85,81.2,86.2 M71.5,114c-1,0.1-2.2,0.3-3,0.8 c0.2-1.2,2-3.1,2-3.1s-2,1.2-3,2.1c-1,0.9-1.4,1.9-1.7,2.6c0.5-0.3,1-0.7,1.6-0.9c-0.9,1-1,2.3,0.1,3C68,116.6,68,115.4,71.5,114 M47.5,103c1.8,2,4.1,2.8,6.5,2.1c-0.5,0-1-0.3-1.3-0.7c1.7,0,3.4-0.3,4.9-1c-2.1,0.3-4.3,0-6.2-0.8c-0.8-0.3-1.5-0.7-1.9-1.3 c0.3,0.5,0.6,1,0.9,1.5c-1.3-0.7-2.7-1.7-3.7-2.8c-0.1,0.6-0.1,1.2,0,2c0-0.1-0.6-0.3-1.3-1.4c-0.3-0.5-0.6-1.2-0.9-1.8 c-0.7,0.8-0.2,2.7,0.4,3.5c0.8,1.2,2.1,2.3,3.5,2.6C47.9,104.4,47.6,103.7,47.5,103 M44.7,53.3c-0.8-0.4-1.6-1.4-1.6-1.4 s-0.8,0.4-1.2,1.1c-0.4,0.6-0.3,1-0.2,1.4c0.1-0.2,0.7-0.7,0.9-0.9c-0.1,0.5,0,1.1,0.2,1.6c0.1-0.2,0.3-0.4,0.6-0.5 C43.5,55.2,44,54.2,44.7,53.3 M37,63.1c1.2-1.8,4-3.5,4-3.5s-1.7-0.3-3.7,0.2c-1.8,0.4-2.5,1-3.2,1.6c0.6-0.1,2.3-0.3,2.9-0.2 c-1.2,0.5-2.4,1.5-3.3,2.4c0.6-0.1,1.2-0.2,1.8-0.1c-1.5,1-2.5,2.5-3,4.1c2.1-1.9,4.4-3.8,7.2-4.4C38.8,63,37.9,62.9,37,63.1 M33.5,49.9c0.6,0.9,1.5,1.3,1.7,0.2c0.2-1.1,2.4-0.7,3.9-1.4c1.5-0.6-2.4-0.4-4.8-0.7c-2.9-0.3-2.9-2-3.4-2.2 c-0.5-0.2-2.7,0.9-2.5,1.4c0.2,0.5,0.9,1.2,2.1,1C31.8,48.1,32.7,48.7,33.5,49.9 M30.5,57c-0.1,0.5-0.4,2.1-0.7,2.6 c-0.2-1.2-0.8-2.6-1.4-3.6c0,0.6-0.2,1.1-0.4,1.6c-0.6-1.6-1.7-3-3.2-3.9c1.3,2.4,2.5,5,2.3,7.6c0.5-0.7,0.8-1.5,0.9-2.3 c1.4,1.6,2.3,4.6,2.3,4.6s0.8-1.4,0.9-3.3C31.2,58.5,30.8,57.8,30.5,57 M31.3,43.1c1-0.4,1-0.6,1.6,0.9c0.6,1.4,2.3,1.9,3.9,1.5 c2.9-0.8,3.5,2.4,3.8,1.2c0-0.6-0.9-1.9-1-2.6c-0.7-2.9-4.7-4.4-8-2.5c-0.7,0.4-1.9-0.3-2.2,0.1C28.2,42.6,29.1,44.1,31.3,43.1 M43.4,46.4c0.7-0.5,1.4-0.9,2.1-0.9c0,0-0.9,1.2-1,2c-0.1,0.8,0.1,1.7,0.1,1.7c0.4-1,0.9-1.7,1.5-2c0,0-0.8,1.2-0.1,2.5 c0.4,0.7,1.5,1.3,1.5,1.3l0.4-0.2c0,0-1-0.5-0.8-1.9c0.1-0.7,0.5-0.8,0.5-0.8s0.2,1.5,1.4,2c0.8,0.3,1.9,0.2,1.9,0.2l0.3-0.4 c0,0-1.1-0.3-1.7-1c-1-1.2-1.4-2.3-0.6-4.3c0.6-1.4-2.2-1.3-3.1-1.1c-0.6,0.1-1.6,0.8-1.9,1.5C43.6,45.6,43.4,46.4,43.4,46.4 M50.7,54c-1.7-0.3-3.9-1.5-3.9-1.5s-1.1,1.2-1.4,2.7c-0.3,1.4,0.2,1.9,0.6,2.5c0.1-0.4,0.7-1.7,1-2.1c0.2,0.9,0.8,2,1.6,2.7 c0.1-0.4,0.3-0.9,0.6-1.3c0.6,1.2,2,2.2,3.8,2.8C51.5,58,50.2,56,50.7,54 M55.6,54.6c1.5-0.8,3-1.1,4.6-0.7c0.6,0.1,1.2,0.1,1.8,0.1 c0-0.1,0-0.1,0.1-0.2l-2.7-1.8c0.8-0.1,1.3-0.2,1.7-0.1c1.1,0.2,2.2,0.4,3.3,0.6c0.4,0.1,1.1-0.2,1.6-0.5c0.5-0.3,1.3-1.3,0.7-1.3 c-0.8,0-2.2-0.3-3.4-0.3c-2.2,0-3.9,0-5.8,0.6c-0.4,0.1-0.6,0.4-1,0.6l0.7,0.9C55.7,53.3,54.7,55.1,55.6,54.6 M66.7,48.4 c1.1,0,3.3,0.6,3.3,0.6s1.1-0.7,1.9-1.5c0.8-0.8,0.6-0.8,0.3-0.8c0,0-0.5-0.2-1-0.3c-1.1-0.2-2.3-0.4-2.3-0.4l-0.5,0.3L71,47 c-0.2,0-0.8-0.2-1.9-0.3c-1.2-0.1-1.7,0-1.7,0L67,47.2c0,0,0-0.1,1.1,0c1,0.1,2.1,0.6,2.1,0.6s-0.5-0.1-1.3-0.1 c-0.8,0-2.9,0.1-2.9,0.1S65.6,48.4,66.7,48.4 M21.9,53.6c-0.8-2.1-1.5-4.5-0.6-6.8c-0.6,0.6-1.1,1.3-1.4,2.1 c-1.1-1.4-1.3-4.1-1.3-4.1s-0.7,2.1-0.7,3.5c0,1.4,0.6,2.6,1.1,3.5c0.2-0.5,0.2-1.1,0.6-1.6C19.7,51.6,20.6,52.9,21.9,53.6 M13.2,37.9C11,38,11,35.7,11,35.7s-0.8,0.1-1.2,0.7c-0.3,0.5-0.1,0.9,0.1,1.4c0.1-0.2,0.6-0.5,0.9-0.6c0,0.5,0.3,1.2,0.6,1.8 c0.1-0.2,0.3-0.3,0.5-0.4C12.7,41.5,13.1,40.4,13.2,37.9 M10.8,52.7c0-0.6-0.6-1.4-1-1c-0.4,0.4-3-0.1-4,0c-1,0.1,0.1,1.4,0.1,1.4 s2.3,1.3,3.1,1.4c0.8,0,0.5-0.4,1.2-0.6C10.9,53.6,10.8,53.3,10.8,52.7 M114.2,86.2c-0.4,0.1-0.7,0.2-1,0.3 c-0.7,0.1-1.6,0.2-2.3,0.4c-1.2,0.3-2.2,0.9-3,1.3c0.5,0,1-0.1,1.5-0.1c-1.2,0.4-2.4,1.4-2.5,2.4c1.3-0.8,2.2-1.5,3.5-1.8 c-0.8,1.2-1.2,2.7-2.6,3.8c-2.6,2.1-5.1,1.9-6.4,1.8c-1.3-0.1-2.5,1.4-2.9,2.8c-1.8,6.3-5.6,6.6-7,6.5c0.7-0.8,1.2-1.9,1.4-2.9 c0.3,0.4,0.5,0.9,0.6,1.3c0.4-1,0.7-2.3,0.7-3.3c0.3,0.4,0.8,1.7,1,2.2c0.2-0.8,0.5-1.4,0.1-2.9c-0.4-1.6-1.3-2.8-1.3-2.8 s-0.3,2.7-1.4,4.2c-0.2-0.7-0.6-1.4-1.1-1.9c0.6,2,0.1,4.1-0.6,6.1c-0.4,1-3.3,7.3-7.6,9.2c-2.4,1-4.9,0.3-6,0.1 c0.3-0.8,0.3-1.8,0.2-2.6c0.4,0.3,0.7,0.6,0.9,0.9c0-0.9-0.2-2-0.5-2.9c0.4,0.2,1.2,1.1,1.5,1.5c-0.1-0.7-0.1-1.3-0.9-2.4 c-0.8-1.2-2-1.9-2-1.9s0.6,2.3,0.3,3.8c-0.4-0.5-0.9-0.9-1.5-1.2c1,1.3,1.4,3.1,1.5,4.8c-0.4,0.8,0.4,2.8-1.7,4.1 c-1.5,1-4.9,1.1-4.9,4.1c0.1,5.4-3.5,1.1-4.3,2.8c-0.7,1.5,0.2,4.6,0.5,5.5c0.1,0.1,0.2,0.3,0.3,0.4c-3,0.2-7.8-3.3-7.4-4.8 c1.7,1.6,2.8,2,5.2,2.4c-2.3-1.7-3.9-3.8-4.7-8.3c-0.7,0.8-0.1,3.9,0.6,5.5c-1.6-1-2.7-2.5-3.3-3.8c0,0,0,2.1,0.5,3.7 c0.2,0.5,0.4,1.1,0.7,1.6c-2.1-1.5-4-3.2-5.8-5.1c0.8,2.3,1.8,4.4,2.5,5.7c-4.7-0.8-9.9-7.5-9.4-9.6c1.2,2,2.1,2.6,4.2,3.6 c-1.7-2.2-2.6-4.6-2.1-9c-0.9,0.6-1.2,3.6-1,5.4c-1.2-1.3-1.8-3.1-2.1-4.5c0,0-0.6,1.9-0.6,3.6c0.1,1.5,0.5,3.5,1.5,4.9 c0.1,0.3,0.2,0.6,0.2,0.8c-4.2-1.8-7.7-10.4-6.9-11.7c0.7,1.7,1.9,3.4,3.5,4.5c-1.1-2-1.7-4.6-0.7-8.1c-0.8,0.4-1.5,2.8-1.6,4.2 c-0.8-1.2-1.4-3.1-1.4-4.3c0,0-0.8,1.5-0.9,2.8c-0.2,1.4-0.1,3.5,0.8,4.8c0,0.4,0,0.8,0,1.2c-3.7-2.8-5.1-12.1-3.7-13.2 c0.3,2.2,0.8,3,2.4,4.7c-0.5-2-0.4-5.5,1.6-9.1c-0.5,0.1-2.7,3.4-3.1,4.6c-0.6-1.6-0.3-3.4,0-4.7c0,0-1.4,1.6-1.9,3.1 c-0.6,1.6-1.2,3.8-0.5,5.6c-0.1,0.3-0.2,0.7-0.3,0.9c-2.8-3.4-1.3-11.6,0.2-12.9c-0.1,1.5,0,2.5,0.6,3.6c0.1-1.9,0.7-3.6,3.1-5.9 c-0.8,0-2.4,1.5-3.1,2.6c-0.1-1.2,0.4-2.5,1-3.3c0,0-1.3,0.8-2,1.8c-0.7,0.9-1.6,3.6-1.7,5.1c-0.2,0.4-0.4,0.8-0.6,1.1 c-0.9-3.7-0.2-7,1.2-10.3l0,0c0.6-1.3,0.8-1.5,1.3-2c-0.6,1.7-0.7,2.6-0.5,4.6c0.6-2.2,1.6-3.9,4.1-5.6c-0.6-0.3-2.4,0.9-3.3,1.8 c0.3-1.4,1-2.7,1.7-3.5c0,0-1.3,0.5-2.1,1.3c-0.9,0.8-2.2,3.2-2.6,4.8c-0.4,0.5-0.8,0.9-1,1.2c0-3.4,1.7-7.6,2.1-8.3 c0.3-0.6,1.2-1.9,1.7-2.3c-0.6,1.3-0.6,2.2-0.3,3c0.5-1.8,1-2.6,2.6-3.8c-0.7,0-1.5,0.7-1.9,1.3c0.3-1.1,0.9-2,1.5-2.6 c0,0-1.1,0.2-2.1,0.9c-1.3,0.9-1.9,2.4-2.3,3.5c-0.5,0.4-0.9,0.7-1.3,1c0.6-3.3,2.2-6.5,5.1-8.7c0.9-0.6,1.3-0.7,1.7-0.8 c-0.9,0.6-1.5,1.2-1.5,2.1c0.4-0.8,2.2-2.4,3.2-2.7c0,0-1.1-0.1-2.1,0.1c-0.8,0.2-1.5,0.5-2.1,1c-0.5,0.2-0.9,0.4-1.3,0.6 c1.8-3.4,3.8-5.4,7.1-7.2c-1.2,0.1-2.4,0.3-3.1,0.5c2-2.3,4.5-3.7,7.3-4.6c-3.3,0.3-7.3,1.1-11.7,6.3c-0.4-0.6-0.9-0.3-1.4-0.5 c-0.5-0.2-0.2-0.7-0.7-1.2c-0.5-0.4-1.1,0.5-1.3-0.7c-0.4-1.6-1.9-1.8-1.9-1.8l-0.6-1.6c-0.1-0.2-0.2-0.3-0.4-0.4 c-0.4-0.2-1.3-0.5-1.9-0.9c-0.9-0.6-0.6-1-1.1-1.7c-0.5-0.8-1.7-0.9-3.5-2.8c-2.3-2.4-2.2-5.3-2.2-5.3s-0.7,1.3-0.4,2.5 c0.1,0.8,1.1,1.4,1.2,2.2c0.2,0.9-0.1,1.8-0.2,1.8c0.2,0,1.8-0.4,3.1,1.3c1.1,1.6,0.1,4.2,0.1,4.2s2-2,3.2-0.6 c1.2,1.2,0.2,3.7,0.2,3.7s2.2-1.7,3-0.4c1.2,1.9-0.4,3.7-0.4,3.7c2.1-1.2,4,0,3.1,1.8c-1.5,2.4-2.5,4.9-2.9,6.6 c-0.9-1.8-1.5-3.7-1.8-5.6c-0.5,1-0.9,2.1-1.1,2.7c-0.8-1.9-1.2-4-1-6c-0.5,1.1-0.8,2.2-1,2.9c-0.7-1.4-0.9-2.8-0.8-4.2l-0.1,0 c-0.3,0.9-0.6,1.8-0.7,2.4c-0.9-1.1-1.2-2.3-1.2-3.5L19,69.3c-0.3,0.7-0.4,0.8-0.4,1.3c-0.6-1.3-1.1-2.3-1.3-3 c-0.7-1.9-0.6-1.9-1.3-3.2c-0.9-1.7-0.8-2.3-3.1-4.4c-1.1-1-2.4-1.8-3.6-2.3c-0.8-0.3-3.2-1.3-4-1.9c-0.9-0.5-1.9-1.1-2.9-1.9 s-1.3-1.4-1.7-2.4c-0.5-1-0.6-1.6-0.7-2.3c0-0.8-0.1-1.1,0.3-1.8c0.4-0.7,1.2-1.1,2,0c1,1.3,2,1.5,3,1.9c1.4,0.6,4.4,0.4,6.7,0.2 c-0.2-0.8-0.5-1.5-0.8-2.1c-1.5-2.9-1.4-2.5-3.7-5.5c-0.6-0.8-1.7-2.6-2.5-3.3c-1.3-1.3-2.2-7.4,0-7.5c2.3,3.3,5,2.6,6,1.5 c-1.9-0.9-3.8,0.2-4.4-2c-0.2-0.4,0.2-1.7,1-1.6c0.9,0.1,1.7,0.3,3.2,0.9c1.4,0.7,3.7,2.1,5.2,2.5c5.4,1.3,7.3,3,11.8,5.2 c0.2,0.1,0.4,0.2,0.6,0.2c-1.6-0.2-3.8-0.6-5.3-1.4C20,34.6,15.9,34,15.9,34l-1.1,0l4.4,1.4L18,36.2l3.3,0.3c0,0-1.7,1.1-1.1,1.1 c0.5,0,3.4,0.2,3.4,0.2s-1.3,1-2,1.3c-0.7,0.3,2.9-0.6,3.9-0.8c0.9-0.2,2.8-0.3,3.9-0.3c2.4,0.3,5.3-0.7,9,0.8 c2.7,1.1,4.6,2.9,4.6,2.9s2.2-1.4,5.1-0.8c3.6,0.7,3.2,2.2,2.8,4.5c0.2,1.1,0.7,2.9,1.5,2.9c0.8,0.1,2.1-1,3-1.7 c2-2.1,7.1-3.6,19-1.4c2.5,0.5,2.7,0.7,0.9,2.1c-4.2,3.2-8.8,8.4-14.2,8.2c-1.4,0-2.6-0.1-3.9-0.1l0,0c0,0-1.2,0.5-1,1.3 c0.1,0.6,0.9,1.2,2.4,1.7c0.6,0.2,0.9,0.3,1.2,0.5c1.2,0.1,2.3,0.4,3.5,0.7c-0.5,0.1-1.1,0.3-1.8,0.5c3.4-0.3,6.7,0,9.9,1.6 c-0.9,0.1-2.3,0.5-3.7,0.9c1.2,0.1,2.4,0.2,3.6,0.4c-0.5,0.1-0.9,0.2-1.6,0.5c1.1-0.1,2.1,0.1,3.5,0.9c0-0.3-0.9-0.9-1.6-1.1 c0.2,0,0.5,0,0.7,0c2.2,0.5,4.2,1.4,6.2,2.9c-1,0-2.4,0-3.9,0.2c1.4,0.3,2.8,0.7,4,1.2c0.8,0.4,0.9,0.6,1.2,1 c-1.1-0.5-1.7-0.6-3-0.5c1.5,0.5,2.6,1.3,3.8,3.4c0.2-0.5-0.6-1.9-1.2-2.7c1,0.3,1.8,0.9,2.3,1.4c0,0-0.3-1-0.9-1.7l0,0 c1.7,0.9,3.3,2.1,4.7,3.6c-0.6-0.1-1.4-0.2-2.3-0.3c0.6,0.5,1.2,1.1,1.7,1.6c1.1,0.7,2.1,1.3,3.2,1.8c-1.3,0-3-0.6-4.8-2.2 c0.4,1.4,1.8,2,2.7,2.4c-0.8,0.2-1.2,0-2-0.6c0,0,0.3,0.8,1.5,1.5c1.2,0.7,2.8,0.7,3,0.6c-1.7-0.4-1.8-0.6-2.1-0.9 c1.2,0.2,2.5,0.2,3.4-0.1c1,0.3,2.1,0.6,3.4,0.7c-0.7,0.5-1.4,0.9-2.2,1.2c2.7,0.6,5.6,1.1,7,1.1c-0.9,0.5-1.7,0.8-2.6,1.1 c-1.5,0.3-3.7,0.1-6.3-1.4c0.9,1.5,2.7,1.9,3.9,2.1c-0.8,0.4-1.4,0.3-2.6-0.1c0,0,0.6,0.8,2.3,1.3c1.6,0.5,3.6,0.1,3.7-0.1 c-2.1-0.1-2.3-0.3-2.7-0.5c1.4-0.1,2.9-0.4,3.9-0.9c1.8,0.1,3.5,0.2,4.3,0.1c-0.7,0.5-1.4,0.8-2.1,1.2c2,0.4,5.4,0.3,7,0.1 c-0.5,0.4-1.1,0.8-1.6,1.1l0.2,0c-0.3,0.2-0.7,0.3-1.1,0.5l0-0.1l-0.2,0.1l0.1,0c-1.9,0.6-4.5,0.8-7.8-0.2c1.6,1.7,4.1,1.7,5.7,1.6 c-0.9,0.8-1.7,0.8-3.3,0.6c0,0,1.1,0.9,3.4,1c2.2,0.1,4.6-0.9,4.7-1.2c-2.7,0.6-3,0.3-3.7,0.1c1.7-0.5,3.4-1.3,4.5-2.2 c1.6,0.1,3.2,0,4.1-0.2c-0.5,0.5-1.1,0.9-1.7,1.2c1.2,0.1,2.3,0.1,3.3,0C118,83.7,118.8,85.2,114.2,86.2 M37.2,42.8 c0,0.5-0.7,1.3-1.6,1.3c-0.9,0-1.6-0.9-1.6-1.3c0-0.5,0.7-0.7,1.6-0.7C36.4,42.1,37.2,42.4,37.2,42.8 M111.8,143.4h-2.4l-2.6-4 l-0.6-0.4l0.2-0.4h0.7c0.5,0,0.9-0.1,1.2-0.4c0.3-0.3,0.4-0.6,0.4-1.1c0-0.6-0.2-1-0.5-1.4c-0.3-0.4-0.8-0.6-1.5-0.6 c-0.4,0-0.8,0.1-1.2,0.4v6.9l1.3,0.4l-0.3,0.6h-4V143l1.2-0.9v-6.7l-1.3-0.4l0.3-0.6h1.7c0.7,0,1.4,0,2.1-0.1c0.5,0,0.9,0,1.2,0 c0.6,0,1.1,0.1,1.5,0.3c0.4,0.2,0.8,0.5,1,0.8c0.2,0.4,0.4,0.7,0.4,1.2c0,0.6-0.3,1.1-0.8,1.5c-0.5,0.5-1.1,0.8-1.9,1l0.9,0.3 l1.8,2.8l1.4,0.6L111.8,143.4z M100.1,143.4h-7.5V143l1.2-0.8v-6.7l-1.3-0.4l0.3-0.6h7.2l0.7-0.2v2.7l-0.5,0.2l-1.5-2h-3.2v3.4h1.7 l0.9-1.4h0.5v3.4l-0.6,0.3l-0.8-1.6h-1.7v3.6h3.1l1.7-2.3l0.5,0.2v2.9L100.1,143.4z M90.1,143.4h-7.5V143l1.2-0.8v-6.7l-1.3-0.4 l0.3-0.6H90l0.7-0.2v2.7l-0.5,0.2l-1.5-2h-3.2v3.4h1.7l0.9-1.4h0.5v3.4l-0.6,0.3l-0.8-1.6h-1.7v3.6h3.1l1.7-2.3l0.5,0.2v2.9 L90.1,143.4z M77.4,142c0.5-0.3,1-0.8,1.3-1.4c0.3-0.6,0.5-1.3,0.5-2c0-0.9-0.1-1.7-0.4-2.4c-0.3-0.7-0.8-1.3-1.4-1.8 c-0.6-0.4-1.4-0.7-2.3-0.7c-0.6,0-1.1,0.1-1.5,0.5v8c0.6,0.2,1.3,0.3,2,0.3v0C76.3,142.5,76.9,142.4,77.4,142 M78.9,133.5 c0.8,0.4,1.4,1.1,1.8,1.8c0.4,0.8,0.6,1.7,0.6,2.7c0,1-0.3,1.9-1,2.8c-0.6,0.9-1.5,1.5-2.4,2c-1,0.5-1.9,0.8-2.7,0.8 c-0.5,0-0.9,0-1.3-0.1c-0.7,0-1.3-0.1-1.7-0.1h-1.9V143l1.4-1v-8l-1.5-0.5l0.3-0.6h1.7c0.9,0,1.8,0,2.6-0.1c0.7,0,1.1-0.1,1.4-0.1v0 C77.2,132.8,78.1,133.1,78.9,133.5 M64.2,143.4h-7.5V143l1.2-0.8v-6.7l-1.3-0.4l0.3-0.6H64l0.7-0.2v2.7l-0.5,0.2l-1.5-2h-3.2v3.4 h1.7l0.9-1.4h0.5v3.4l-0.6,0.3l-0.8-1.6h-1.7v3.6h3.1l1.7-2.3l0.5,0.2v2.9L64.2,143.4z M55.2,137.3l-0.5,0.2l-1.7-2.3h-1.3v7.3 l1.3,0.4l-0.3,0.6h-4V143l1.2-0.8v-7h-1.3l-1.7,2.3l-0.5-0.2v-2.9l0.7,0.2h7.3l0.7-0.2V137.3z M44.9,143.4h-4V143l1.2-0.9v-6.6 l-1.3-0.4l0.3-0.6h4v0.5l-1.2,0.9v6.6l1.3,0.4L44.9,143.4z M39.4,143.4h-4V143l1.2-0.9v-2.8H32v3.2l1.3,0.4l-0.3,0.6h-4V143l1.2-0.9 v-6.6l-1.3-0.4l0.3-0.6h4v0.5l-1.2,0.9v2.8h4.6v-3.2l-1.3-0.4l0.3-0.6h4v0.5l-1.2,0.9v6.6l1.3,0.4L39.4,143.4z M27.8,134.4l-3.4,8.6 l-1.7,0.7l-2.2-6.1l-2,5.4l-1.7,0.7l-3.7-9.4l-1.4-0.7L12,133h4.1v0.5l-1,0.7l3,7.7l2-5.4l-0.8-2.1l-1.3-0.7l0.3-0.6h4.4v0.5 l-1.3,0.9l2.7,7.5l2.9-7.4l-2.5-0.8l0.3-0.6h4.4v0.5L27.8,134.4z"></path> </svg> 