<svg width="256" height="112" viewBox="0 0 256 112" fill="none" xmlns="http://www.w3.org/2000/svg">
<path d="M77.3701 86.55C77.3701 86.55 77.3701 85.96 77.3701 85.55C77.3701 85.14 77.7701 85.18 77.7701 85.18H82.3501C84.3501 85.18 86.5401 85.76 86.5401 87.79C86.5214 88.3849 86.2952 88.9544 85.9008 89.4001C85.5063 89.8457 84.9683 90.1393 84.3801 90.23C85.0444 90.2824 85.6651 90.5812 86.1202 91.0678C86.5754 91.5545 86.8322 92.1937 86.8401 92.86C86.8401 94.86 84.9901 95.56 83.1201 95.56H77.7301C77.7301 95.56 77.3701 95.43 77.3701 95.15C77.3701 94.87 77.3701 94.15 77.3701 94.15V86.55ZM80.6301 89.35H82.0001C82.9101 89.35 83.5501 89.06 83.5501 88.26C83.5501 87.46 83.0201 87.26 82.0901 87.26H80.6601C80.5101 87.26 80.4001 87.26 80.4001 87.51V89.15C80.3901 89.26 80.4201 89.35 80.6301 89.35ZM80.3901 91.58V93.28C80.3901 93.46 80.4401 93.58 80.7101 93.58H82.2802C83.2802 93.58 83.6801 93.2 83.6801 92.49C83.6801 91.55 82.9201 91.31 82.0101 91.31H80.6901C80.5101 91.31 80.3901 91.35 80.3901 91.58Z" fill="#FFF065"/>
<path d="M98.67 95.17L97.46 91.94C97.4432 91.8447 97.3923 91.7587 97.3169 91.6981C97.2415 91.6374 97.1467 91.6061 97.05 91.61H96.35C96.12 91.61 96.01 91.61 96.01 91.96V94.24C96.01 94.24 96.01 94.79 96.01 95.1C96.01 95.41 95.84 95.61 95.57 95.61H93.43C93.3114 95.6074 93.1985 95.5592 93.1146 95.4754C93.0308 95.3915 92.9825 95.2786 92.98 95.16C92.98 94.93 92.98 94.24 92.98 94.24V86.55C92.98 86.55 92.98 85.88 92.98 85.55C92.98 85.22 93.2 85.14 93.49 85.14H98C99.92 85.14 102 85.77 102 88.26C102.02 88.824 101.88 89.3821 101.597 89.8703C101.314 90.3585 100.899 90.757 100.4 91.02C100.366 91.0355 100.335 91.0582 100.311 91.0866C100.286 91.1151 100.268 91.1485 100.257 91.1846C100.247 91.2208 100.244 91.2587 100.25 91.2959C100.256 91.3331 100.269 91.3686 100.29 91.4L102 95.15C102 95.15 102.12 95.57 101.74 95.57H99.19C99.0731 95.5636 98.9608 95.522 98.868 95.4506C98.7752 95.3792 98.7061 95.2814 98.67 95.17ZM96.43 89.51H97.6C98.36 89.51 99 89.22 99 88.4C99 87.58 98.36 87.28 97.52 87.28H96.35C96.01 87.28 96.01 87.28 96.01 87.58V89.12C96 89.35 96.12 89.51 96.43 89.51Z" fill="#FFF065"/>
<path d="M161 95.17L159.8 91.94C159.781 91.8456 159.73 91.7609 159.655 91.7005C159.58 91.6402 159.486 91.6081 159.39 91.61H158.68C158.45 91.61 158.35 91.61 158.35 91.96V94.24C158.35 94.24 158.35 94.79 158.35 95.1C158.359 95.1639 158.353 95.229 158.335 95.2907C158.316 95.3524 158.284 95.4094 158.242 95.4577C158.199 95.5061 158.146 95.5447 158.087 95.571C158.028 95.5973 157.965 95.6106 157.9 95.61H155.76C155.642 95.6051 155.531 95.5561 155.447 95.4727C155.364 95.3894 155.315 95.2778 155.31 95.16C155.31 94.93 155.31 94.24 155.31 94.24V86.55C155.31 86.55 155.31 85.88 155.31 85.55C155.31 85.22 155.54 85.14 155.83 85.14H160.35C162.28 85.14 164.35 85.77 164.35 88.26C164.369 88.825 164.228 89.3839 163.943 89.8722C163.658 90.3605 163.241 90.7584 162.74 91.02C162.706 91.0355 162.675 91.0582 162.651 91.0866C162.626 91.1151 162.608 91.1485 162.597 91.1846C162.587 91.2208 162.584 91.2587 162.59 91.2959C162.596 91.3331 162.609 91.3686 162.63 91.4L164.34 95.15C164.34 95.15 164.46 95.57 164.09 95.57H161.53C161.412 95.5642 161.298 95.523 161.203 95.4516C161.109 95.3803 161.038 95.2822 161 95.17ZM158.76 89.51H159.94C160.7 89.51 161.34 89.22 161.34 88.4C161.34 87.58 160.7 87.28 159.85 87.28H158.68C158.35 87.28 158.35 87.28 158.35 87.58V89.12C158.34 89.35 158.44 89.51 158.75 89.51H158.76Z" fill="#FFF065"/>
<path d="M114.71 91.44H111.71C111.45 91.44 111.29 91.51 111.29 91.78V93.07C111.29 93.27 111.29 93.41 111.64 93.41H115.57C115.62 93.4034 115.671 93.4085 115.719 93.4248C115.767 93.4411 115.81 93.4681 115.846 93.5039C115.882 93.5396 115.909 93.5831 115.925 93.631C115.941 93.6789 115.946 93.7299 115.94 93.78V95.17C115.945 95.2267 115.939 95.2838 115.921 95.3378C115.903 95.3918 115.873 95.4412 115.834 95.4829C115.796 95.5245 115.748 95.5574 115.696 95.5793C115.643 95.6013 115.587 95.6117 115.53 95.61H108.82C108.746 95.6158 108.671 95.6057 108.601 95.5803C108.531 95.5549 108.467 95.5148 108.414 95.4626C108.361 95.4105 108.32 95.3476 108.293 95.2781C108.267 95.2087 108.255 95.1343 108.26 95.06C108.26 94.71 108.26 94.24 108.26 94.24V86.55C108.26 86.55 108.26 85.9 108.26 85.64C108.26 85.38 108.38 85.18 108.79 85.18H115.5C115.83 85.18 115.85 85.37 115.85 85.59V87C115.85 87.29 115.73 87.39 115.46 87.39H111.6C111.42 87.39 111.31 87.39 111.31 87.64V89C111.31 89.17 111.42 89.28 111.64 89.28H114.69C114.743 89.2754 114.797 89.2827 114.848 89.3011C114.899 89.3196 114.945 89.349 114.983 89.3871C115.021 89.4251 115.05 89.4711 115.069 89.5217C115.087 89.5723 115.094 89.6263 115.09 89.68V91.13C115.077 91.2201 115.031 91.3022 114.961 91.3597C114.89 91.4172 114.801 91.4459 114.71 91.44Z" fill="#FFF065"/>
<path d="M147.89 91.44H144.89C144.63 91.44 144.47 91.51 144.47 91.78V93.07C144.47 93.27 144.47 93.41 144.82 93.41H148.75C148.8 93.4034 148.851 93.4085 148.899 93.4248C148.947 93.4411 148.99 93.4681 149.026 93.5039C149.062 93.5396 149.089 93.5831 149.105 93.631C149.121 93.6789 149.126 93.7299 149.12 93.78V95.17C149.126 95.2267 149.119 95.2838 149.101 95.3378C149.083 95.3918 149.053 95.4412 149.015 95.4829C148.976 95.5245 148.929 95.5574 148.876 95.5793C148.823 95.6013 148.767 95.6117 148.71 95.61H142C141.926 95.6158 141.851 95.6057 141.781 95.5803C141.711 95.5549 141.648 95.5148 141.595 95.4626C141.542 95.4105 141.5 95.3476 141.474 95.2781C141.447 95.2087 141.435 95.1343 141.44 95.06C141.44 94.71 141.44 94.24 141.44 94.24V86.55C141.44 86.55 141.44 85.9 141.44 85.64C141.44 85.38 141.56 85.18 141.97 85.18H148.68C149.01 85.18 149.03 85.37 149.03 85.59V87C149.03 87.29 148.92 87.39 148.64 87.39H144.76C144.58 87.39 144.47 87.39 144.47 87.64V89C144.47 89.17 144.58 89.28 144.8 89.28H147.8C147.854 89.2754 147.908 89.2827 147.958 89.3011C148.009 89.3196 148.055 89.349 148.093 89.3871C148.131 89.4251 148.16 89.4711 148.179 89.5217C148.197 89.5723 148.204 89.6263 148.2 89.68V91.13C148.19 91.2086 148.154 91.2816 148.098 91.3376C148.042 91.3937 147.969 91.4297 147.89 91.44Z" fill="#FFF065"/>
<path d="M121.74 85.18H124C124.21 85.18 124.43 85.53 124.43 85.53L125.78 90.96L127.34 85.58C127.378 85.4678 127.449 85.3697 127.543 85.2984C127.638 85.227 127.751 85.1858 127.87 85.18H129.38C129.434 85.173 129.488 85.1768 129.541 85.1912C129.593 85.2056 129.642 85.2302 129.685 85.2637C129.728 85.2972 129.764 85.3389 129.79 85.3863C129.817 85.4338 129.834 85.486 129.84 85.54L131.46 90.96L132.72 85.51C132.747 85.4124 132.806 85.3267 132.887 85.2668C132.969 85.2069 133.069 85.1764 133.17 85.18H135.17C135.58 85.18 135.45 85.62 135.45 85.62L133 95.17C132.981 95.2903 132.921 95.4002 132.829 95.4806C132.738 95.561 132.621 95.6068 132.5 95.61H130.5C130.3 95.61 130.21 95.5 130.15 95.3C129.81 94.17 128.61 90.23 128.57 90.05C128.53 89.87 128.38 89.81 128.32 90.05L126.8 95.24C126.76 95.3454 126.691 95.4373 126.6 95.5046C126.51 95.572 126.402 95.612 126.29 95.62H124.53C124.15 95.62 124.02 95.2 124.02 95.2L121.35 85.6C121.35 85.6 121.25 85.18 121.74 85.18Z" fill="#FFF065"/>
<path d="M172.66 94.24V91.24L169.33 85.6C169.33 85.6 169.12 85.16 169.58 85.16H172.17C172.28 85.1507 172.389 85.1795 172.48 85.2414C172.571 85.3033 172.638 85.3946 172.67 85.5C172.67 85.5 174.02 88.16 174.16 88.5C174.3 88.84 174.5 88.56 174.5 88.56L176.05 85.47C176.112 85.372 176.2 85.2931 176.304 85.2419C176.408 85.1908 176.525 85.1693 176.64 85.18H178.58C178.96 85.18 178.78 85.66 178.78 85.66L175.68 91.26V94.26C175.68 94.26 175.68 94.88 175.68 95.17C175.68 95.46 175.68 95.63 175.26 95.63H173.04C172.932 95.6249 172.83 95.5783 172.756 95.5001C172.681 95.4219 172.64 95.318 172.64 95.21C172.65 95 172.66 94.24 172.66 94.24Z" fill="#FFF065"/>
<path d="M0.599786 85.79C0.516852 85.7453 0.452944 85.672 0.419854 85.5837C0.386764 85.4955 0.386739 85.3982 0.419793 85.31C24.7198 34.6 72.7698 0.0799866 128.09 0.0799866C183.41 0.0799866 231.32 34.5 255.64 85.08C255.71 85.2385 255.717 85.418 255.659 85.5815C255.602 85.7451 255.484 85.8805 255.33 85.96C252.98 87.09 246.58 88.76 239.24 88.29C231.9 87.82 228.07 86.35 226.79 85.77C226.47 85.63 226.32 85.77 226.28 86.13C226.14 87.58 225.49 91.67 222.35 98.13C219.882 103.092 216.448 107.512 212.25 111.13C211.78 111.52 211.19 111.05 211.07 110.77C206.369 100.042 199.989 90.1307 192.17 81.41C174.73 62.04 151.97 51.36 128.09 51.36C104.21 51.36 81.4498 62 63.9998 81.41C56.1266 90.1952 49.712 100.185 44.9998 111C44.896 111.126 44.7483 111.207 44.5866 111.227C44.4249 111.248 44.2616 111.206 44.1298 111.11C39.931 107.495 36.5 103.074 34.0398 98.11C30.6698 91.16 30.1598 86.96 30.0898 85.82C30.0898 85.61 29.9798 85.56 29.7998 85.65C28.7998 86.14 24.8598 87.77 17.1498 88.26C11.5213 88.5989 5.88407 87.7576 0.599786 85.79ZM48.7198 64.41C47.2298 65.83 45.9598 67.48 44.5998 69.03C44.5998 69.03 44.5998 69.12 44.5998 69.16L49.7598 73.54C51.0298 72.04 52.2998 70.54 53.5198 69.08C53.7971 68.6978 53.9913 68.2618 54.0898 67.8C54.2475 67.3149 54.2834 66.7985 54.1945 66.2963C54.1056 65.7941 53.8945 65.3214 53.5798 64.92C53.3252 64.5267 52.9857 64.1953 52.5863 63.9502C52.1869 63.7051 51.7377 63.5525 51.2717 63.5036C50.8056 63.4547 50.3346 63.5107 49.893 63.6676C49.4514 63.8244 49.0505 64.0781 48.7198 64.41ZM56.9398 59.23C55.9775 58.4631 54.8283 57.9662 53.6104 57.7904C52.3925 57.6147 51.1497 57.7664 50.0098 58.23C49.4698 58.45 48.9498 58.74 48.3798 59.02C48.3798 58.82 48.3798 58.65 48.3798 58.49C48.4861 57.3458 48.3189 56.1927 47.8919 55.1258C47.4649 54.0589 46.7905 53.1088 45.9241 52.3538C45.0578 51.5988 44.0244 51.0606 42.9092 50.7834C41.7939 50.5063 40.6288 50.4983 39.5098 50.76C37.3291 51.0936 35.3338 52.1797 33.8698 53.83C31.1365 57.03 28.4132 60.2367 25.6998 63.45C25.6998 63.45 24.2698 65.21 24.0598 65.45C24.0236 65.4819 23.9946 65.5212 23.9748 65.5651C23.9549 65.6091 23.9447 65.6567 23.9447 65.705C23.9447 65.7532 23.9549 65.8009 23.9748 65.8449C23.9946 65.8888 24.0236 65.9281 24.0598 65.96C25.0681 66.765 26.3128 67.2167 27.6028 67.2456C28.8927 67.2745 30.1565 66.879 31.1998 66.12C35.5498 69.82 41.0698 74.49 45.4198 78.18C44.9613 79.3511 44.8767 80.6354 45.1775 81.8566C45.4784 83.0778 46.1498 84.1758 47.0998 85C47.1631 85.0464 47.2417 85.067 47.3196 85.0578C47.3976 85.0485 47.4692 85.01 47.5198 84.95L49.4298 82.66C52.4298 79.11 55.4798 75.56 58.4298 71.99C59.0004 71.2862 59.4684 70.5051 59.8198 69.67C60.6149 67.8643 60.7626 65.8395 60.2379 63.9374C59.7132 62.0354 58.5483 60.3727 56.9398 59.23ZM43.1698 62.5C42.4698 63.45 41.6698 64.32 40.8798 65.24C40.8027 65.3188 40.7004 65.3679 40.5907 65.3789C40.481 65.3899 40.371 65.3619 40.2798 65.3C38.7298 64.03 37.1698 62.59 35.5698 61.3C35.5244 61.2579 35.4881 61.2068 35.4633 61.15C35.4385 61.0932 35.4258 61.032 35.4258 60.97C35.4258 60.908 35.4385 60.8468 35.4633 60.79C35.4881 60.7332 35.5244 60.6821 35.5698 60.64C36.406 59.4886 37.4184 58.4762 38.5698 57.64C39.1775 57.2472 39.8966 57.063 40.6183 57.1153C41.3401 57.1676 42.0251 57.4536 42.5698 57.93C43.1674 58.5144 43.5513 59.2825 43.6601 60.1112C43.769 60.9399 43.5963 61.7812 43.1698 62.5ZM92.5498 46.55L68.0798 27.22C67.5298 26.74 66.7098 27.13 66.4398 27.29C65.4398 27.89 65.1298 28.13 64.0298 28.77C63.821 28.8975 63.6528 29.0819 63.5448 29.3014C63.4368 29.521 63.3934 29.7667 63.4198 30.01C64.7998 40.33 66.2498 51.31 67.6198 61.64C67.6798 62.38 68.2398 62.55 68.6998 62.16C68.9338 61.9905 69.1544 61.8033 69.3598 61.6C72.1198 59.55 71.8298 59.72 73.3598 58.6C73.486 58.4916 73.5833 58.3535 73.6426 58.1981C73.702 58.0427 73.7216 57.8749 73.6998 57.71C73.5198 56.35 73.2198 54.08 72.9898 52.71C72.9441 52.5733 72.953 52.4242 73.0145 52.2938C73.0759 52.1634 73.1853 52.0618 73.3198 52.01C75.8514 50.3122 78.4755 48.7565 81.1798 47.35C81.2966 47.2622 81.4426 47.2225 81.5878 47.2393C81.7329 47.256 81.8661 47.3279 81.9598 47.44C82.9598 48.3 84.5298 49.3 85.6098 50.28C85.8225 50.433 86.0779 50.5153 86.3398 50.5153C86.6018 50.5153 86.8572 50.433 87.0698 50.28C88.6898 49.5 92.2798 47.94 92.8598 47.61C93.1398 47.52 93.2598 47.09 92.5498 46.55ZM71.6698 45.1C71.3298 42.96 70.6698 39.1 70.3598 36.87C70.3598 36.6 70.6398 36.47 70.8598 36.66C72.6198 38.12 75.6198 40.66 77.2598 42.01C77.4298 42.14 77.5398 42.48 77.2598 42.62L72.2598 45.46C72.0698 45.56 71.6998 45.33 71.6698 45.1ZM107.54 42.88L113.8 41.68C113.8 41.68 114.36 41.47 114.28 41.04C113.74 38.21 111.28 23.51 110.38 17.92C110.387 17.7869 110.427 17.6577 110.497 17.5442C110.567 17.4307 110.664 17.3364 110.78 17.27C113.6 16.83 118.02 16.27 119.84 16.2C120.5 16.2 120.48 15.91 120.48 15.55C120.48 15.19 120.39 12.33 120.39 11.55C120.39 10.77 119.52 10.85 119.29 10.87C109.637 11.7981 100.099 13.667 90.8098 16.45C90.6761 16.5073 90.5705 16.6152 90.5161 16.7501C90.4618 16.8851 90.4631 17.036 90.5198 17.17C91.2698 19.17 91.6798 20.47 91.9298 21.17C91.9809 21.2968 92.0752 21.4014 92.196 21.4654C92.3167 21.5295 92.4562 21.5488 92.5898 21.52C96.2898 20.36 100.76 19.15 102.52 18.78C102.69 18.78 103.02 19.11 103.05 19.33C103.97 24.93 106.41 39.41 106.92 42.43C107 42.79 107.54 42.88 107.54 42.88ZM148.44 42.43C148.95 39.43 151.39 24.93 152.31 19.33C152.31 19.11 152.67 18.74 152.84 18.78C154.6 19.15 159.07 20.36 162.77 21.52C162.903 21.5488 163.043 21.5295 163.164 21.4654C163.284 21.4014 163.379 21.2968 163.43 21.17C163.68 20.45 164.09 19.11 164.84 17.17C164.897 17.036 164.898 16.8851 164.844 16.7501C164.789 16.6152 164.684 16.5073 164.55 16.45C155.261 13.667 145.722 11.7981 136.07 10.87C135.84 10.87 134.97 10.76 134.97 11.55C134.97 12.34 134.88 15.21 134.88 15.55C134.88 15.89 134.88 16.16 135.52 16.2C137.34 16.31 141.76 16.83 144.58 17.27C144.695 17.3364 144.792 17.4307 144.862 17.5442C144.932 17.6577 144.973 17.7869 144.98 17.92C144.07 23.51 141.62 38.21 141.08 41.04C141 41.47 141.56 41.68 141.56 41.68L147.82 42.88C147.82 42.88 148.38 42.79 148.44 42.43ZM181.3 23.84L165.93 48.35C165.874 48.4403 165.836 48.5409 165.819 48.646C165.802 48.751 165.807 48.8583 165.832 48.9617C165.857 49.0651 165.902 49.1624 165.966 49.2479C166.029 49.3335 166.108 49.4056 166.2 49.46C169.541 51.0112 172.778 52.7783 175.89 54.75C178.899 56.4904 181.801 58.4106 184.58 60.5C184.639 60.5603 184.711 60.6059 184.791 60.6331C184.871 60.6604 184.956 60.6685 185.04 60.6568C185.124 60.6451 185.203 60.614 185.273 60.5659C185.342 60.5179 185.399 60.4542 185.44 60.38L187.69 57.58C187.99 57.21 188.69 56.42 188.1 55.95C185.939 54.2955 183.693 52.7567 181.37 51.34C179.19 49.97 176.52 48.47 175.37 47.84C175.286 47.8066 175.211 47.754 175.15 47.6863C175.09 47.6187 175.047 47.5378 175.023 47.4504C175 47.3629 174.998 47.2712 175.016 47.1826C175.035 47.0939 175.073 47.0109 175.13 46.94L187.81 27.58C187.858 27.515 187.892 27.4404 187.908 27.3612C187.925 27.282 187.924 27.2001 187.906 27.1212C187.888 27.0423 187.853 26.9683 187.804 26.9042C187.754 26.8401 187.692 26.7875 187.62 26.75C187.18 26.48 186.68 26.17 184.88 25.18C183.957 24.6691 183.009 24.2052 182.04 23.79C181.77 23.7 181.42 23.65 181.3 23.84ZM225 57.38C223.17 55.17 219.18 50.94 217.73 49.38C217.39 49.03 217.14 48.85 216.61 49.3L194.61 68.09C194.61 68.09 194.36 68.59 194.61 68.87C195.79 70.16 199.32 74.04 201.61 76.87C203.9 79.7 206.61 83.52 207.52 84.78C207.555 84.8276 207.6 84.8677 207.651 84.8976C207.702 84.9276 207.759 84.9469 207.818 84.9543C207.877 84.9618 207.936 84.9573 207.993 84.9411C208.051 84.9249 208.104 84.8973 208.15 84.86C211.31 81.77 210.55 78.37 209.04 76.7C208.21 75.79 204.79 71.7 203.56 70.23C203.29 69.9 203.56 69.32 203.56 69.32C203.56 69.32 207.56 66.06 207.88 65.8C208.2 65.54 208.88 65.93 208.88 65.93C208.88 65.93 214.53 72.24 214.88 72.6C215.23 72.96 215.75 72.7 215.75 72.7C215.75 72.7 218.51 70.29 218.86 70.03C218.94 69.9624 219.004 69.8782 219.048 69.7832C219.092 69.6882 219.115 69.5847 219.115 69.48C219.115 69.3753 219.092 69.2718 219.048 69.1768C219.004 69.0818 218.94 68.9976 218.86 68.93C217.48 67.33 213.86 63.15 213.47 62.82C213.356 62.7339 213.266 62.6213 213.206 62.4921C213.146 62.3628 213.119 62.2209 213.127 62.0787C213.135 61.9366 213.178 61.7985 213.251 61.6767C213.325 61.5549 213.428 61.453 213.55 61.38L217.55 58.07C217.614 58.0112 217.689 57.9672 217.772 57.941C217.855 57.9149 217.942 57.9072 218.028 57.9187C218.114 57.9302 218.196 57.9604 218.269 58.0073C218.342 58.0542 218.404 58.1166 218.45 58.19C219.45 59.41 222.04 62.49 223.45 64.19C225.1 66.14 227.69 67.52 230.28 65.83C231.11 65.29 230.91 64.96 230.62 64.58C229.51 63.14 226.76 59.53 225 57.38Z" fill="#FFF065"/>
</svg>
