<svg id="Layer_1" data-name="Layer 1" xmlns="http://www.w3.org/2000/svg" viewBox="0 0 57.71 66.94"><defs><style>.cls-1{fill:#fff;}</style></defs><title>btt</title><polygon class="cls-1" points="36.13 10.39 28.86 0 21.58 10.39 36.13 10.39"/><circle class="cls-1" cx="28.86" cy="38.09" r="28.86"/><path d="M14,43.56a4.92,4.92,0,0,0,1.39.84c.53.21.93.44,1.53-.17a8.94,8.94,0,0,1,2.48-1.29,3.63,3.63,0,0,0,1.77-2.37c.08-.24-.31-.75-.61-1a2.7,2.7,0,0,1-.87-1.33,8.47,8.47,0,0,0-1.32-1.78L17,37.72c1-2.56,1-2.56,2.45-3.42-.19-.19-.35-.36-.54-.53-.65-.7-1.32-1.39-2-2.1-.11-.13-.09-.37-.11-.57-.06-.43-.1-.87-.16-1.33l1.59.58.12-.13-1.16-1.14,1.11.17c0-.32-.07-.53-.11-.85l.53.12A12.62,12.62,0,0,1,14.63,24c3.87,4,8.54,7.15,13.15,10.35a4.38,4.38,0,0,0-.36-.39c-2.57-2.26-5.2-4.45-7.67-6.79a39.76,39.76,0,0,1-2.58-3.36,1.74,1.74,0,0,0-1.06-.53,3.93,3.93,0,0,1-2.59-1,3.59,3.59,0,0,1-.71-1.06c1,1.12,2.52,1.13,3.77,1.74a1.31,1.31,0,0,0-.24-1.35,6.58,6.58,0,0,1-.64-1.94l2.94,2,.19-.2-1.9-1.91a7.35,7.35,0,0,1-1.06-1.1c-.13-.22,0-.58,0-.89a2.05,2.05,0,0,1,.77.17c.86.66,1.69,1.35,2.52,2.05a1.24,1.24,0,0,1,.34.48,22.81,22.81,0,0,0,5.77,8c.07.07.17.11.39.09a7.74,7.74,0,0,0-.42-.68c-1.44-2-2.89-4-4.32-6a1.73,1.73,0,0,1,0-2,20.3,20.3,0,0,0,4.7,6.84l.18-.1c-.15-.26-.3-.53-.47-.78a27.29,27.29,0,0,1-1.84-2.78c-.62-1.28-1.06-2.65-1.59-4l1-.49,1.64,3,.16,0c-.12-.58-.23-1.17-.34-1.75a5.66,5.66,0,0,1,1.79,2.81.63.63,0,0,1-.12.4,2.07,2.07,0,0,0,0,2,7.9,7.9,0,0,1,2.4-3.87c-.57,1-1.18,2.13-1.81,3.23a1.26,1.26,0,0,0,.23,1.55c.92,1.24,1.71,2.57,2.65,4a1.63,1.63,0,0,1,.17-.38c1-1.28,1.92-2.56,2.92-3.81.53-.66.4-.79,1.52-.4a8.55,8.55,0,0,1-.82,1.32,46.64,46.64,0,0,1-3.18,3.42c-.53.53-.92,1-.66,1.73a3.59,3.59,0,0,1,.07.65l-1.06-1-.19.09a1.57,1.57,0,0,0,.16.46c.63.91,1.27,1.82,1.92,2.72a.75.75,0,0,0,1,.33,13.66,13.66,0,0,1,6.31-.31l-2.44,1.37.95.27c-.4.39-.82.75-1.19,1.15a12.15,12.15,0,0,0-.93,1.09c-.38.53-.41,1,.26,1.33l-1.48,2.12.39.24L34,41c.71-.93.72-.94,1.69-.27.53.38,1.09.77,1.72,1.2l-1.37.81a.41.41,0,0,0,.07.17,5.11,5.11,0,0,0,1-.34,1.05,1.05,0,0,1,1.49.16l0,0,2.93,2.93c1,1,1.89,1.86,3,2.9l-1.24-.44-.13.11L45.42,51c-1.55.6-2-.72-3-1.24l2,3.76-1.83-.39c.25.78.49,1.59.78,2.49a1.88,1.88,0,0,1-1.74-1.21c-.27-.61-.5-1.24-.79-2-.49,1.62-.11,3.12.15,4.8-1.81-.92-1.74-2.45-2-4-.95,1.28-.7,2.65-1,4-.9-.48-.63-1.37-.93-2.08l-.6.41A6.11,6.11,0,0,1,35.68,52l-1.59,1.09-.31-.62-.84.66-2.58-2.31c-.61.44-1.06.13-1.54-.58-.31-.44-1-.62-1.5-1a4.91,4.91,0,0,1-.81-.95c-.06-.09,0-.29-.07-.36-.53-.43-1.11-.83-1.68-1.25h0a1.44,1.44,0,0,0,.09-.4,1.15,1.15,0,0,0-.14-.34h1.18l-.53-.42.37-.27h-1l.19-.53c-.08,0-.18-.07-.22-.05A15,15,0,0,0,22.54,46c-1.26,1.1-2.4,2.32-3.62,3.52a8.83,8.83,0,0,1-1,.72l-1.06-.79-.19.1.19,1c-.93.26-1.28-.43-1.76-.91a2.21,2.21,0,0,1-.75-2.6.53.53,0,0,0,0-.2C14,46,14,46,14.51,45.25a5.08,5.08,0,0,0-.66-.33Zm13.21-8.08-1-.73A14,14,0,0,0,28.06,37c.13.13.41.13.62.18l.06-.18L27.2,35.46c.05-.19.21-.46.13-.57a7.07,7.07,0,0,0-.88-.85l-.14.11.94,1.33M18.86,24.79c1,1.51,2.68,2.26,4.16,3.24a6,6,0,0,0-4.16-3.24M36.55,45.6c.53-.66.35-1.06-.13-1.42s-1.06-.24-1.74.22l1.87,1.2M28.73,33.41c-.35-1.5-1.59-1.91-2.82-2.37l-.17.21,3,2.16M22.52,29l-.15.25a12.26,12.26,0,0,0,3.11,1.87l.16-.24L22.52,29m5.92,2.17-2.12-2.47c.31,1.13,1.39,2.4,2.12,2.47m-1.72,6.49L25.25,36c-.08,1.13.56,1.84,1.47,1.66m-1.46,2.06c0-.11-.07-.22-.09-.33-.69.19-1.5-.1-2.09.45a1.43,1.43,0,0,0,.07.28l2.12-.4m4.69-3L28.86,36c-.05.19-.2.41-.14.53.19.49.53.63,1.24.17m-.36,8.63v.24a1.7,1.7,0,0,0,1.72-.24ZM32.91,44a1.6,1.6,0,0,0,0-.21l-2.65.6a.9.9,0,0,0,0,.16L32.93,44"/></svg>
