<?xml version="1.0" encoding="utf-8"?>
<!-- Generator: Adobe Illustrator 16.0.3, SVG Export Plug-In . SVG Version: 6.00 Build 0)  -->
<!DOCTYPE svg PUBLIC "-//W3C//DTD SVG 1.1//EN" "http://www.w3.org/Graphics/SVG/1.1/DTD/svg11.dtd">
<svg version="1.1" id="Ebene_1" xmlns="http://www.w3.org/2000/svg" xmlns:xlink="http://www.w3.org/1999/xlink" x="0px" y="0px"
	 width="117.9px" height="70px" viewBox="0 0 117.9 70" enable-background="new 0 0 117.9 70" xml:space="preserve">
<g>
	<defs>
		<rect id="SVGID_1_" x="-5" y="-3" width="127.9" height="75.9"/>
	</defs>
	<clipPath id="SVGID_2_">
		<use xlink:href="#SVGID_1_"  overflow="visible"/>
	</clipPath>
	<path clip-path="url(#SVGID_2_)" fill="#154734" d="M22.3,47.8v0.6c0.2,0.1,0.4,0.2,0.6,0.3C22.9,48.7,22.4,48.2,22.3,47.8"/>
	<path clip-path="url(#SVGID_2_)" fill="#154734" d="M22.9,32.6h-3c-1.1,0-1.9-0.8-2.1-1.8v0.6c0,1.1,0.9,2.1,2.1,2.1h2.4v-0.1
		C22.3,32.9,23.3,32.6,22.9,32.6"/>
	<path clip-path="url(#SVGID_2_)" fill="#154734" d="M22.9,15.4c-7.2,0-13,5.9-13,13.2c0,0.3,0,0.6,0,0.9c0,0,0,0,0,0
		c0-7.3,5.9-13.2,13-13.2c2.5,0,4.6,1.3,5.9,3.2l0-0.8C27.5,16.6,25.3,15.4,22.9,15.4"/>
	<path clip-path="url(#SVGID_2_)" fill="#154734" d="M28.7,57.2C14.6,55.9,3.4,44.1,2.9,29.6C3,44.5,14.3,56.7,28.8,58.1v0
		c1.2,0.1,2.5,0.1,2.7,0.1v-0.8C31.4,57.4,30,57.4,28.7,57.2L28.7,57.2z"/>
	<path clip-path="url(#SVGID_2_)" fill="#154734" d="M31.4,57.4L31.4,57.4c0,0-0.1-0.1-0.1-0.1C31.3,57.3,31.4,57.3,31.4,57.4"/>
	<path clip-path="url(#SVGID_2_)" fill="#154734" d="M36.2,22.3c-1.2,0-2.1-0.8-2.4-1.9c0,0.1,0,0.2,0,0.4c0,1.3,1.1,2.4,2.4,2.4
		c1.3,0,2.4-1.1,2.4-2.4c0-0.2,0-0.3,0-0.5C38.4,21.4,37.4,22.3,36.2,22.3"/>
	<path clip-path="url(#SVGID_2_)" fill="#154734" d="M43.2,22.3c-1.2,0-2.1-0.8-2.4-1.9c0,0.1,0,0.2,0,0.4c0,1.3,1.1,2.4,2.4,2.4
		c1.3,0,2.4-1.1,2.4-2.4c0-0.2,0-0.3,0-0.5C45.4,21.4,44.4,22.3,43.2,22.3"/>
	<path clip-path="url(#SVGID_2_)" fill="#154734" d="M37.7,31L37.7,31l3.8,0.1c0.3,0,0.6,0.2,0.7,0.6V31c0-0.4-0.3-0.7-0.7-0.7h-4.3
		C36.7,30.3,37.7,30.6,37.7,31"/>
	<path clip-path="url(#SVGID_2_)" fill="#154734" d="M47.7,44.2c0,2.2-1.8,4-4,4h-7.6c-2.1,0-3.8-1.6-4-3.6V45c0,2.2,1.8,4,4,4h7.6
		c2.2,0,4-1.8,4-4L47.7,44.2z"/>
	<path clip-path="url(#SVGID_2_)" fill="#154734" d="M109.9,30.3h-4.3c-0.4,0,0.6,0.3,0.6,0.7v0.1h3.8c0.3,0,0.6,0.2,0.7,0.6V31
		C110.7,30.6,110.3,30.3,109.9,30.3"/>
	<path clip-path="url(#SVGID_2_)" fill="#154734" d="M115.1,29.1c0,1.9-0.7,3.4-2.3,4.4c-1.4,0.9-2,1.2-2.1,1.3v0.8
		c0,0,0.5-0.3,2.1-1.3c1.6-1,2.3-2.5,2.3-4.4L115.1,29.1z"/>
	<path clip-path="url(#SVGID_2_)" fill="#154734" d="M105.5,48.2h-4.8V49h4.8c0.4,0,0.7-0.3,0.7-0.7l0-0.8
		C106.2,47.9,105.9,48.2,105.5,48.2"/>
	<path clip-path="url(#SVGID_2_)" fill="#154734" d="M73.3,41l-4.9-4.3c-1.3-1.3-2.1-2.3-2.3-3.9v0.6c0,1.9,0.8,3,2.3,4.4l4.9,4.3
		c0.5,0.5,0.9,0.7,1,1c0.1-0.1,0.1-0.3,0.1-0.4C74.4,41.8,74.1,41.8,73.3,41"/>
	<path clip-path="url(#SVGID_2_)" fill="#154734" d="M77.9,30.3h-6.5c0,0.1,0.8,0.3,0.8,0.6c0,0.1,0,0,0,0.2c0,0,0,0.1,0,0.1h5.7
		c0.7,0,1.2-0.5,1.2-1.2l0-0.8C79,29.8,78.5,30.3,77.9,30.3"/>
	<path clip-path="url(#SVGID_2_)" fill="#154734" d="M79.6,44.4c-0.1,2.1-1.9,3.7-4,3.7h-9.2V49h9.2c2.1,0,3.9-1.7,4-3.7
		C79.6,45.1,79.6,44.3,79.6,44.4"/>
	<path clip-path="url(#SVGID_2_)" fill="#154734" d="M96.1,48.2h-9.7c-2.1,0-3.8-1.6-4-3.6V45c0,2.2,1.8,4,4,4h9.7
		c0.7,0,1.2-0.5,1.2-1.2l0-0.8C97.3,47.7,96.8,48.2,96.1,48.2"/>
	<path clip-path="url(#SVGID_2_)" fill="#154734" d="M92.4,31.7V31c0-0.4-0.3-0.7-0.7-0.7h-4.4c-0.4,0,0.7,0.3,0.7,0.7v0.1h3.8
		C92,31.1,92.3,31.4,92.4,31.7"/>
	<path clip-path="url(#SVGID_2_)" fill="#154734" d="M97.9,33.4c0,1.9-0.8,3.3-2.3,4.4l-7.6,4.6v0.3c0,0.2,0,0.3,0.1,0.4l7.5-4.5
		c1.5-1,2.3-2.5,2.3-4.4L97.9,33.4z"/>
	<path clip-path="url(#SVGID_2_)" fill="#154734" d="M62.2,30.3h-6.5c0,0.1,0.8,0.3,0.8,0.6c0,0.1,0,0,0,0.2c0,0,0,0.1,0,0.1h5.7
		c0.7,0,1.2-0.5,1.2-1.2l0-0.8C63.4,29.8,62.9,30.3,62.2,30.3"/>
	<path clip-path="url(#SVGID_2_)" fill="#154734" d="M57.7,41l-4.9-4.3c-1.3-1.3-2.1-2.3-2.3-3.9v0.6c0,1.9,0.8,3,2.3,4.4l4.9,4.3
		c0.5,0.5,0.9,0.7,1,1c0.1-0.1,0.1-0.3,0.1-0.4C58.8,41.8,58.4,41.8,57.7,41"/>
	<path clip-path="url(#SVGID_2_)" fill="#154734" d="M64,44.4c-0.1,2.1-1.9,3.7-4,3.7h-9.2V49H60c2.1,0,3.9-1.7,4-3.7
		C64,45.1,64,44.3,64,44.4"/>
	<path clip-path="url(#SVGID_2_)" fill="#FFFFFF" d="M28.7,57.2L28.7,57.2C14.6,55.9,3.4,44.1,2.9,29.6c0-0.3,0-0.7,0-1
		c0-11.1,9-20.2,20-20.2c2.1,0,4.1,0.5,5.9,1.3v0.8v8.1c-1.3-1.9-3.4-3.2-5.9-3.2c-7.2,0-13,5.9-13,13.2c0,0.3,0,0.6,0,0.9
		c0.2,5.5,2.4,10.7,6.3,14.6c1.7,1.8,4,3.3,6.1,4.4c0.2,0.1,0.4,0.2,0.6,0.3c0,0-0.5-0.5-0.6-0.9c0,0,0-0.1,0-0.1V33.4v-0.1
		c0-0.4,1-0.7,0.6-0.7h-3c-1.1,0-1.9-0.8-2.1-1.8c0-0.1,0-0.2,0-0.2v-5H28c0.4,0,0.7,0.3,0.7,0.7v0.7v25.9c0,0.2,0,0.3,0,0.5
		c0.1,2,1.2,2.9,2.5,4c0,0,0.1,0.1,0.1,0.1C31.4,57.4,30,57.4,28.7,57.2 M36.2,17.5c-1.3,0-2.4,1.1-2.4,2.4c0,0.2,0,0.3,0,0.5
		c0.2,1.1,1.2,1.9,2.4,1.9c1.2,0,2.2-0.9,2.4-2c0-0.1,0-0.2,0-0.4C38.6,18.6,37.5,17.5,36.2,17.5 M43.2,17.5c-1.3,0-2.4,1.1-2.4,2.4
		c0,0.2,0,0.3,0,0.5c0.2,1.1,1.2,1.9,2.4,1.9c1.2,0,2.2-0.9,2.4-2c0-0.1,0-0.2,0-0.4C45.6,18.6,44.5,17.5,43.2,17.5 M47.7,29.5v14.7
		c0,2.2-1.8,4-4,4h-7.6c-2.1,0-3.8-1.6-4-3.6c0-0.1,0-0.2,0-0.4V29.5c0-2.2,1.8-4,4-4h7.6C45.9,25.5,47.7,27.3,47.7,29.5 M42.1,31
		c0-0.4-0.3-0.7-0.7-0.7h-4.3c-0.4,0,0.6,0.3,0.6,0.7v0.1v0.6v11.1c0,0.1,0,0.1,0,0.2c0.1,0.3,0.4,0.6,0.7,0.6h3
		c0.4,0,0.7-0.3,0.7-0.7V31.7V31z M113,25.5h-3.8c-1.4,0-2.1,0.8-2.8,1.9c-0.3,0.5-0.9,0.5-1.2,0c-0.7-1.1-1.1-1.9-2.6-1.9h-2v22.7
		h0h4.8c0.4,0,0.7-0.3,0.7-0.7V31.8V31c0-0.4-1-0.7-0.6-0.7h4.3c0.4,0,0.7,0.3,0.7,0.7l0,3.7c0,0,0,0,0,0c0.1-0.1,0.7-0.4,2.1-1.3
		c1.6-1,2.3-2.5,2.3-4.4v-1.6C115.1,26.4,114.2,25.5,113,25.5 M79.6,41.1C79.6,41.1,79.6,41.1,79.6,41.1c0-2.2-0.3-3.2-2.5-5
		L73,32.5c-0.6-0.5-0.8-0.9-0.8-1.4c0,0,0-0.2,0-0.2c0-0.2-0.8-0.5-0.8-0.6h6.5c0.7,0,1.2-0.5,1.2-1.2v-2.8v-0.8h-8.9
		c-2.2,0-4,1.8-4,4v2.8c0,0.2,0,0.3,0,0.4c0.1,1.6,0.9,2.6,2.3,3.9l4.9,4.3c0.8,0.8,1.1,0.8,1.1,1.6c0,0.2,0,0.3-0.1,0.4
		c-0.2,0.3-0.6,0.5-1.2,0.5h-5.6c-0.7,0-1.2,0.5-1.2,1.2v3.4h0h9.2c2.1,0,3.9-1.7,4-3.7C79.6,44.3,79.6,41.5,79.6,41.1 M97.9,29.5
		v0.5v3.4c0,1.9-0.8,3.3-2.3,4.4l-7.6,4.6v0.3c0,0.2,0,0.3,0.1,0.4c0.2,0.3,0.6,0.5,1.1,0.5h8.1v0.8V47c0,0.7-0.5,1.2-1.2,1.2h-9.7
		c-2.1,0-3.8-1.6-4-3.6c0-0.1,0-0.2,0-0.4V29.5c0-2.2,1.8-4,4-4h7.4C96.1,25.5,97.9,27.3,97.9,29.5 M87.9,37L87.9,37l3.8-2.4
		c0.6-0.4,0.6-0.9,0.6-1.1V31c0-0.4-0.3-0.7-0.7-0.7h-4.4c-0.4,0,0.7,0.3,0.7,0.7V37z M64,41.1C64,41.1,64,41.1,64,41.1
		c0-2.2-0.3-3.2-2.5-5l-4.1-3.6c-0.6-0.5-0.8-0.9-0.8-1.4c0,0,0-0.2,0-0.2c0-0.2-0.8-0.5-0.8-0.6h6.5c0.7,0,1.2-0.5,1.2-1.2v-2.8
		v-0.8h-8.9c-2.2,0-4,1.8-4,4v2.8c0,0.2,0,0.3,0,0.4c0.1,1.6,0.9,2.6,2.3,3.9l4.9,4.3c0.8,0.8,1.1,0.8,1.1,1.6c0,0.2,0,0.3-0.1,0.4
		c-0.2,0.3-0.6,0.5-1.2,0.5h-5.6c-0.7,0-1.2,0.5-1.2,1.2v3.4h0H60c2.1,0,3.9-1.7,4-3.7C64,44.3,64,41.5,64,41.1"/>
</g>
<g>
	<defs>
		<path id="SVGID_3_" d="M71.4,20.3c0,0.8,0.2,0.9,0.7,1.4l0.8,0.6v-1.5c0-0.2-0.1-0.5-0.3-0.6l-0.7-0.6l-0.4-0.4V20.3z M74.5,19.6
			l-0.7,0.6c-0.2,0.2-0.3,0.4-0.3,0.6v1.5l0.8-0.6c0.5-0.5,0.7-0.6,0.7-1.4v-1.1L74.5,19.6z M71.4,17.7c0,0.8,0.2,0.8,0.7,1.3
			l0.8,0.6v-1.4c0-0.2-0.1-0.4-0.3-0.6L71.8,17l-0.4-0.3V17.7z M74.5,17l-0.7,0.6c-0.2,0.1-0.3,0.4-0.3,0.6v1.4l0.8-0.6
			c0.5-0.5,0.7-0.5,0.7-1.3v-1L74.5,17z M73.2,9.4L72.9,12l-0.3,0.8c-0.1,0.3-0.2,0.8,0.1,1.2c0.3,0.4,0.4,0.6,0.5,0.6c0,0,0,0,0,0
			s0,0,0,0c0.1-0.1,0.3-0.3,0.5-0.6c0.2-0.3,0.2-0.9,0.1-1.2L73.5,12L73.2,9.4L73.2,9.4z M71.4,14.9c0,0.8,0.2,0.9,0.7,1.4l0.8,0.7
			v-1.2c0-0.5-0.3-0.8-0.3-0.8l-0.3-0.3c-0.3-0.3-0.4-0.7-0.4-1.1L71.4,9l0,0V14.9z M75,9l-0.5,4.6c0,0.4-0.1,0.8-0.4,1.1l-0.3,0.3
			c0,0-0.3,0.3-0.3,0.8V17l0.8-0.7c0.5-0.5,0.7-0.7,0.7-1.4L75,9L75,9z M63.1,13.6c0-0.1,0.1-0.2,0.2-0.3c0,0.2,0,0.4,0,0.6
			c0,1,0.2,2,0.5,2.9c-0.3-0.4-0.5-0.2-0.8-0.3c-0.5-0.2-1.3-1.1-1.3-1.1c0.5-0.2,0.8-0.7,0.8-0.8c0.1,0.1,0.1,0.3,0.1,0.3
			C63.3,14.6,62.9,14.2,63.1,13.6 M59.8,12.7L59.8,12.7 M63.6,12.1c-0.1,0-0.2,0-0.2,0c0-0.1,0.2-0.2,0.2-0.2c0,0-0.1-0.1-0.3-0.1
			c-0.1,0-0.4,0-0.5,0.1c-0.1,0.2-0.2,0.4-0.2,0.7c0,0.1,0,0.4-0.3,0.6c-0.3,0.2-0.7,0.3-0.7,0.3s0.3,0.2,0.3,0.4
			c-0.2-0.2-1-0.2-1.4-0.3c-0.9-0.3-0.7-1-0.7-1c0,0,0.1,0.5,0.5,0.4c0.4-0.1,0.8-0.2,1.2,0c0.1,0,0-0.4,0.1-0.6c0,0,0-0.1-0.3-0.1
			c0,0,0,0-0.1,0.1c-0.1,0-0.2,0.1-0.5,0c-0.4-0.1-0.4-0.3-0.4-0.4c0-0.2,0.1-0.3,0.3-0.4c0.2,0,0.5,0.2,0.7,0.4c0,0,0.2,0,0.3,0
			c0.1,0,0.2-0.2,0.2-0.6c0,0,0.1-0.1,0-0.3c-0.1-0.1-1.4-0.5-1.4-0.6c0,0-0.7-0.7-1.5-0.5c-0.3,0-0.4-0.4-0.4-0.4
			c-0.6,0.2-0.4,0.7-0.4,0.7C57.1,11,57.4,12,56.7,12c0.1,0.1,0.3,0.2,0.5,0.2c0,0-0.4,0.7-0.3,1.5c0,0,0.3-0.2,0.5-0.2
			c-0.7,1.2,0,2.6,0,2.6c0.1-0.8,0.4,0.1,0.1,0.5c-0.3,0.5-1,0.5-1.3,1.5c-0.1,0-0.1,0-0.2,0c-0.6,0-0.5-0.9-0.3-1.4
			c0.4-0.8,1.3-2,0.6-2.9c-0.8-0.9-1.9,0-1.9,0.8c0,0.8,0.3,1.1-0.1,1.5c0,0,0.5,0,0.8-0.3c0.4-0.4,0.3-0.7,0.2-1.1
			c-0.1-0.2-0.4-0.8,0-0.9c0,0-0.1,0.1,0,0.2c0.4-0.3,0.8-0.1,1,0.3c0.1,0.3,0.2,0.6-0.3,1.4c-0.4,0.8-0.8,1.5-0.7,2.3
			c0.1,0.5,0.7,0.9,1.2,0.7c0,0,0,0,0,0c0.3,0.3,0.5,1.2-0.5,1.4c-0.1,0-0.1,0.1-0.1,0.1c0,0-0.3,0.3-0.4,0.5
			c-0.1,0.2,0,0.4,0.1,0.5c0.2,0.2,0.4,0.5,0.5,0.7c0.1,0.1,0.8,0.4,0.7,0.5h1.2c0,0,0.1-0.1,0-0.2c0,0,0.1,0,0.2,0
			c0.1-0.2,0-0.6-0.4-0.7c-0.1,0.1-0.3,0.2-0.5,0c-0.2-0.1-0.3,0.1-0.3,0.1s-0.3-0.2-0.2-0.5c0,0,0.7-0.7,0.8-0.7
			c0.8-0.1,0.9-0.2,1.1-1c0.1-0.4-0.2-0.8-0.2-0.8c0.3-0.3,1.2,0.7,0.9,1.1c0,0-0.1,0.2-0.3,0.4c0,0-0.1,0.3,0.1,0.4
			c0,0,1.1,0.8,1.1,0.9h1.3c0.1-0.1,0-0.2,0-0.2s0-0.1,0.1,0c0.1-0.4-0.4-0.6-0.4-0.6s-0.3,0.1-0.5,0c-0.1,0-0.1-0.1-0.2-0.1
			c0,0-0.4-0.4-0.4-0.4c0-0.2,0.4-0.5,0.4-0.5s0.4-0.1,0.5-0.4c0-0.1,0.2-0.4,0.2-0.6c-0.1-0.3-0.9-0.9-0.9-0.9
			C60,17.9,59.5,18,59.5,18c0,0,0.9-0.4,0.7-1.7c0-0.3-0.1-0.5,0-0.4c0.3,0.3,0.5,0.6,0.9,0.6c0,0-0.1,0.1-0.3,0.2
			c0.5,0.4,1,0.5,1.2,0.5c0.1,0.1,0.2,0.3,0.6,0.2c-0.1-0.2,0.1-0.3,0.2-0.2c0.3,0.2,0.4,0.6,0.4,0.6c0.1,0,0.3-0.2,0.2-0.3
			c0.1,0,0.1,0.1,0.1,0.3c0.4-0.1,0.3-0.4,0.3-0.4c0.2,0,0.2,0.2,0.2,0.2s0.1-0.1,0.1-0.2c1.2,2.4,3.5,4.2,6.3,4.4
			c0.4,0,0.7,0,0.7,0c-0.4-0.4-0.7-0.6-0.7-1.3v-7.3c0-0.1-0.1-0.2-0.2-0.2h-2.8v1.4c0,0.3,0.3,0.6,0.6,0.6h0.8
			c0.1,0-0.2,0.1-0.2,0.2v3.9c0,0.1,0.2,0.3,0.2,0.3c-0.7-0.3-1.3-0.8-1.9-1.3c-1.5-1.5-2.4-4.2-1.2-6.2c0.6-1,1.8-1.7,3-1.7
			c0.7,0,1.3,0.4,1.6,0.9V8.7c-0.5-0.2-1-0.4-1.6-0.4C66.4,8.4,64.3,10,63.6,12.1 M83.1,13.9c0-0.2,0-0.4,0-0.6
			c0.1,0.1,0.1,0.2,0.2,0.3c0.2,0.6-0.1,0.9,0.5,1.3c0,0,0-0.2,0.1-0.3c0,0.1,0.3,0.6,0.8,0.8c0,0-0.8,0.9-1.3,1.1
			c-0.3,0.1-0.6-0.1-0.8,0.3C82.9,15.9,83.1,14.9,83.1,13.9 M76,8.7v2.4c0.3-0.5,0.9-0.9,1.6-0.9c1.2,0,2.4,0.7,3,1.7
			c1.2,1.9,0.3,4.7-1.2,6.2c-0.5,0.5-1.2,1-1.9,1.3c0,0,0.2-0.2,0.2-0.3v-3.9c0-0.1-0.3-0.2-0.2-0.2h0.8c0.3,0,0.6-0.3,0.6-0.6v-1.4
			h-2.8c-0.1,0-0.2,0.1-0.2,0.2v7.3c0,0.7-0.3,0.9-0.7,1.3c0,0,0.4,0,0.7,0c2.8-0.3,5.2-2,6.3-4.4c0,0.1,0.1,0.2,0.1,0.2
			s-0.1-0.2,0.2-0.2c0,0-0.1,0.3,0.3,0.4c0-0.2,0-0.3,0.1-0.3c0,0.1,0.1,0.3,0.2,0.3c0,0,0-0.3,0.4-0.6c0.1-0.1,0.3,0,0.2,0.2
			c0.4,0.1,0.4-0.2,0.6-0.2c0.1,0,0.6-0.1,1.2-0.5c-0.2-0.1-0.3-0.2-0.3-0.2c0.4-0.1,0.6-0.4,0.9-0.6c0.1-0.1,0.1,0.1,0,0.4
			C86,17.6,86.8,18,86.8,18c0,0-0.5-0.1-0.8-0.4c0,0-0.8,0.6-0.9,0.9c0,0.2,0.1,0.6,0.2,0.6c0.1,0.3,0.5,0.4,0.5,0.4
			s0.4,0.3,0.4,0.5c0,0.1-0.4,0.4-0.4,0.4c-0.1,0-0.1,0.1-0.2,0.1c-0.3,0-0.5,0-0.5,0s-0.5,0.2-0.4,0.6c0.1-0.1,0.1,0,0.1,0
			s-0.1,0.1,0,0.2h1.3c-0.1-0.1,1.1-0.9,1.1-0.9c0.2-0.2,0.1-0.4,0.1-0.4c-0.2-0.2-0.3-0.4-0.3-0.4c-0.3-0.5,0.6-1.5,0.9-1.1
			c0,0-0.3,0.4-0.2,0.8c0.2,0.8,0.2,0.9,1.1,1c0.2,0,0.8,0.7,0.8,0.7c0.1,0.3-0.2,0.5-0.2,0.5s-0.1-0.2-0.3-0.1
			c-0.2,0.1-0.4,0.1-0.5,0c-0.5,0.1-0.5,0.5-0.4,0.7c0.1-0.1,0.2,0,0.2,0c-0.1,0.1,0,0.2,0,0.2h1.2c-0.1-0.1,0.6-0.4,0.7-0.5
			c0.1-0.2,0.4-0.5,0.5-0.7c0.1-0.1,0.2-0.3,0.1-0.5c-0.1-0.2-0.4-0.5-0.4-0.5c0,0-0.1-0.1-0.1-0.1c-1-0.3-0.8-1.2-0.5-1.4
			c0,0,0,0,0,0c0.5,0.2,1.1-0.1,1.2-0.7c0.1-0.7-0.3-1.4-0.7-2.3s-0.4-1.1-0.3-1.4c0.1-0.4,0.6-0.6,1-0.3c0-0.1,0-0.2,0-0.2
			c0.4,0.2,0,0.7,0,0.9c-0.1,0.4-0.2,0.7,0.2,1.1c0.3,0.3,0.8,0.3,0.8,0.3c-0.3-0.4-0.1-0.7-0.1-1.5c0-0.8-1.2-1.7-1.9-0.8
			c-0.8,0.9,0.2,2.1,0.6,2.9c0.2,0.6,0.3,1.4-0.3,1.4c-0.1,0-0.1,0-0.2,0c-0.3-1-1-1-1.3-1.5c-0.3-0.4,0.1-1.3,0.1-0.5
			c0,0,0.7-1.3,0-2.6c0.3,0.1,0.5,0.2,0.5,0.2c0.1-0.8-0.3-1.5-0.3-1.5c0.2,0,0.4-0.1,0.5-0.2c-0.7,0-0.4-1.1-1.4-1.5
			c0,0,0.2-0.5-0.4-0.7c0,0-0.1,0.4-0.4,0.4c-0.8-0.3-1.5,0.5-1.5,0.5c0,0-1.4,0.5-1.4,0.6c-0.1,0.2,0,0.3,0,0.3
			c0,0.4,0.1,0.6,0.2,0.6c0.1,0,0.3,0,0.3,0c0.3-0.2,0.5-0.4,0.7-0.4c0.2,0,0.3,0.2,0.3,0.4c0,0.2,0,0.3-0.4,0.4
			c-0.2,0.1-0.4,0-0.5,0c-0.1,0-0.1-0.1-0.1-0.1c-0.3,0-0.3,0.1-0.3,0.1c0.1,0.3,0,0.7,0.1,0.6c0.4-0.2,0.8-0.1,1.2,0
			c0.4,0.1,0.5-0.4,0.5-0.4c0,0,0.2,0.7-0.7,1c-0.4,0.1-1.2,0.1-1.4,0.3c0-0.2,0.3-0.4,0.3-0.4s-0.5-0.1-0.7-0.3
			c-0.3-0.2-0.3-0.5-0.3-0.6c0-0.3-0.1-0.6-0.2-0.7c-0.1-0.2-0.4-0.1-0.5-0.1c-0.2,0-0.3,0.1-0.3,0.1c0,0,0.2,0.1,0.2,0.2
			c0,0-0.1,0-0.2,0C82,10,80,8.4,77.6,8.4C77,8.4,76.4,8.5,76,8.7"/>
	</defs>
	<clipPath id="SVGID_4_">
		<use xlink:href="#SVGID_3_"  overflow="visible"/>
	</clipPath>
	
		<linearGradient id="SVGID_5_" gradientUnits="userSpaceOnUse" x1="-393.0254" y1="303.0317" x2="-392.8843" y2="303.0317" gradientTransform="matrix(266.5017 0 0 -266.5017 104796.2813 80773.8984)">
		<stop  offset="0" style="stop-color:#DAC689"/>
		<stop  offset="0.5" style="stop-color:#FFF0BA"/>
		<stop  offset="1" style="stop-color:#DAC689"/>
	</linearGradient>
	<rect x="54.3" y="8.4" clip-path="url(#SVGID_4_)" fill="url(#SVGID_5_)" width="37.7" height="13.9"/>
</g>
<g>
	<defs>
		<rect id="SVGID_6_" x="-5" y="-3" width="127.9" height="75.9"/>
	</defs>
	<clipPath id="SVGID_7_">
		<use xlink:href="#SVGID_6_"  overflow="visible"/>
	</clipPath>
	<path clip-path="url(#SVGID_7_)" fill="#EAD6A7" d="M36.8,54c0,0-0.1-0.1-0.1-0.1c-0.1-0.1-0.1-0.1-0.2-0.1c0,0,0,0,0,0l0.1-0.1
		c0.1-0.1,0.1-0.2,0.1-0.3v-0.4c0-0.3-0.3-0.6-0.6-0.6h-1.2c-0.1,0-0.1,0.1-0.1,0.1V55c0,0.1,0.1,0.1,0.1,0.1h1.5
		c0.2,0,0.4-0.2,0.4-0.4v-0.5C36.8,54.1,36.8,54.1,36.8,54 M35.9,52.9c0.1,0,0.1,0.1,0.1,0.1v0.3c0,0.1-0.1,0.1-0.1,0.1h-0.4V53
		l-0.2-0.2H35.9z M36.1,54.5c0,0.1-0.1,0.1-0.1,0.1h-0.5V54H36c0.1,0,0.1,0.1,0.1,0.1V54.5z M39.9,54.1
		C39.9,54.1,39.9,54.1,39.9,54.1c0.3,0,0.5-0.3,0.5-0.5v-0.6c0-0.3-0.3-0.6-0.6-0.6h-1.3c-0.1,0-0.1,0.1-0.1,0.1v2.7H39
		c0.1,0,0.1,0,0.1-0.1v-0.9c0,0,0,0,0,0h0.1c0,0,0,0,0,0l0.6,0.9c0,0.1,0.1,0.1,0.2,0.1h0.6L39.9,54.1z M39.7,53.4
		c0,0.1-0.1,0.1-0.1,0.1h-0.5V53l-0.2-0.2h0.7c0.1,0,0.1,0.1,0.1,0.1V53.4z M54,54.1C54,54.1,54,54.1,54,54.1c0.3,0,0.5-0.3,0.5-0.5
		v-0.6c0-0.3-0.3-0.6-0.6-0.6h-1.3c-0.1,0-0.1,0.1-0.1,0.1v2.7h0.6c0.1,0,0.1,0,0.1-0.1v-0.9c0,0,0,0,0,0h0.1c0,0,0,0,0,0l0.6,0.9
		c0,0.1,0.1,0.1,0.2,0.1h0.6L54,54.1z M53.8,53.4c0,0.1-0.1,0.1-0.1,0.1h-0.5V53L53,52.9h0.7c0.1,0,0.1,0.1,0.1,0.1V53.4z
		 M43.3,52.3c0.1,0,0.1,0,0.1,0.1l0.8,2.8h-0.6c-0.1,0-0.1,0-0.1-0.1l-0.1-0.4c0,0,0,0,0,0h-0.8c0,0,0,0,0,0l-0.1,0.4
		c0,0.1-0.1,0.1-0.1,0.1h-0.6l0.8-2.8c0-0.1,0.1-0.1,0.1-0.1H43.3z M43,53C43,53,43,53,43,53l-0.3,1.1c0,0,0,0,0,0h0.6c0,0,0,0,0,0
		L43,53z M45.9,55.2c-0.2,0-0.3-0.1-0.3-0.3v-2.6h0.6c0.1,0,0.1,0,0.1,0.1v2.1c0,0.1,0.1,0.1,0.1,0.1h0.4c0.1,0,0.1-0.1,0.1-0.1
		v-2.2h0.6c0.1,0,0.1,0,0.1,0.1v2.5c0,0.2-0.2,0.3-0.3,0.3H45.9z M51,52.3v0.5c0,0.1,0,0.1-0.1,0.1h-0.7l0.2,0.2v2
		c0,0.1,0,0.1-0.1,0.1h-0.6v-2.3H49v-0.5c0-0.1,0-0.1,0.1-0.1H51z M57.4,52.3c0.1,0,0.1,0,0.1,0.1l0.8,2.8h-0.6
		c-0.1,0-0.1,0-0.1-0.1l-0.1-0.4c0,0,0,0,0,0h-0.8c0,0,0,0,0,0l-0.1,0.4c0,0.1-0.1,0.1-0.1,0.1h-0.6l0.8-2.8c0-0.1,0.1-0.1,0.1-0.1
		H57.4z M57.1,53C57.1,53,57.1,53,57.1,53l-0.3,1.1c0,0,0,0,0,0h0.6c0,0,0,0,0,0L57.1,53z M61.1,52.3h-1.2c-0.1,0-0.1,0.1-0.1,0.1
		v2.2V55c0,0.1,0.1,0.1,0.1,0.1h1.2c0.3,0,0.6-0.3,0.6-0.6v-1.6C61.7,52.6,61.4,52.3,61.1,52.3 M61,54.5c0,0.1-0.1,0.1-0.1,0.1h-0.5
		V53l-0.2-0.2h0.6c0.1,0,0.1,0.1,0.1,0.1V54.5z M63.3,55.2v-2.8c0-0.1,0-0.1,0.1-0.1H64v2.8c0,0.1,0,0.1-0.1,0.1H63.3z M68.9,55.2
		v-2.8c0-0.1,0-0.1,0.1-0.1h0.6v2.8c0,0.1,0,0.1-0.1,0.1H68.9z M67.5,52.3v0.5c0,0.1,0,0.1-0.1,0.1h-0.7l0.2,0.2v2
		c0,0.1,0,0.1-0.1,0.1h-0.6v-2.3h-0.7v-0.5c0-0.1,0-0.1,0.1-0.1H67.5z M72.7,52.3h-0.8c-0.3,0-0.6,0.3-0.6,0.6v1.6
		c0,0.3,0.3,0.6,0.6,0.6h0.8c0.3,0,0.6-0.3,0.6-0.6v-1.6C73.3,52.6,73,52.3,72.7,52.3 M72.6,54.5c0,0.1-0.1,0.1-0.1,0.1h-0.4
		c-0.1,0-0.1-0.1-0.1-0.1V53l-0.2-0.2h0.7c0.1,0,0.1,0.1,0.1,0.1V54.5z M76.5,55.2c-0.1,0-0.1,0-0.2-0.1l-0.7-1.4c0,0,0,0,0,0v1.4
		c0,0.1,0,0.1-0.1,0.1h-0.6v-2.8c0-0.1,0-0.1,0.1-0.1h0.5c0.1,0,0.1,0,0.2,0.1l0.7,1.4c0,0,0,0,0,0v-1.4c0-0.1,0-0.1,0.1-0.1h0.6
		v2.8c0,0.1,0,0.1-0.1,0.1H76.5z M82,54.3v0.4c0,0.3-0.2,0.5-0.5,0.5h-1.4v-0.5c0-0.1,0-0.1,0.1-0.1h0.9c0.1,0,0.1-0.1,0.1-0.1v-0.1
		c0,0,0-0.1-0.1-0.1c-0.2-0.1-0.9-0.6-0.9-0.6c-0.2-0.1-0.2-0.3-0.2-0.5v-0.2c0-0.3,0.3-0.6,0.6-0.6H82v0.4c0,0.1-0.1,0.1-0.1,0.1
		h-1.2l0.2,0.2v0.1c0,0,0,0.1,0.1,0.1c0.2,0.1,0.9,0.6,0.9,0.6C82,53.9,82,54.1,82,54.3 M85.3,52.9h-1.1l0.2,0.2v0.4H85
		c0,0,0.1,0,0.1,0.1v0.4c0,0,0,0.1-0.1,0.1h-0.7v0.6h1.1v0.5c0,0.1,0,0.1-0.1,0.1h-1.5c-0.1,0-0.1-0.1-0.1-0.1v-2.6
		c0-0.1,0.1-0.1,0.1-0.1h1.6v0.5C85.4,52.8,85.3,52.9,85.3,52.9 M87,55.2v-2.8c0-0.1,0-0.1,0.1-0.1h0.6v2.8c0,0.1-0.1,0.1-0.1,0.1
		H87z M91.3,52.3v0.5c0,0.1,0,0.1-0.1,0.1h-0.7l0.2,0.2v2c0,0.1,0,0.1-0.1,0.1h-0.6v-2.3h-0.7v-0.5c0-0.1,0-0.1,0.1-0.1H91.3z
		 M94.1,52.9C94,52.9,94,52.8,94.1,52.9l0.1-0.5c0-0.1,0.1-0.1,0.2-0.1H95v2.8c0,0.1,0,0.1-0.1,0.1h-0.6v-2.3H94.1z M98.5,53.8
		l-0.2-0.1c0,0,0,0,0,0l0.1-0.1c0.1-0.1,0.1-0.2,0.1-0.3v-0.4c0-0.3-0.3-0.6-0.6-0.6h-0.6c-0.3,0-0.6,0.3-0.6,0.6v0.4
		c0,0.1,0.1,0.2,0.1,0.3l0.1,0.1c0,0,0,0,0,0l-0.2,0.1c-0.1,0.1-0.2,0.3-0.2,0.4v0.4c0,0.3,0.3,0.6,0.6,0.6H98
		c0.3,0,0.6-0.3,0.6-0.6v-0.4C98.6,54,98.6,53.9,98.5,53.8 M97.2,52.9h0.6c0.1,0,0.1,0.1,0.1,0.1v0.3c0,0.1-0.1,0.1-0.1,0.1h-0.3
		c-0.1,0-0.1-0.1-0.1-0.1V53L97.2,52.9z M98,54.5c0,0.1-0.1,0.1-0.1,0.1h-0.5c-0.1,0-0.1-0.1-0.1-0.1v-0.4c0-0.1,0.1-0.1,0.1-0.1
		h0.5c0.1,0,0.1,0.1,0.1,0.1V54.5z M101.5,53.4h-0.7V53l-0.2-0.2h1.2v-0.4c0-0.1,0-0.1-0.1-0.1h-1c-0.3,0-0.6,0.3-0.6,0.6v1.6
		c0,0.3,0.3,0.6,0.6,0.6h0.8c0.3,0,0.6-0.3,0.6-0.6V54C102.1,53.7,101.8,53.4,101.5,53.4 M101.5,54.5c0,0.1-0.1,0.1-0.1,0.1h-0.4
		c-0.1,0-0.1-0.1-0.1-0.1v-0.5h0.6c0.1,0,0.1,0.1,0.1,0.1V54.5z M104.9,52.3h-0.8c-0.3,0-0.6,0.3-0.6,0.6v1.6c0,0.3,0.3,0.6,0.6,0.6
		h0.8c0.3,0,0.6-0.3,0.6-0.6v-1.6C105.5,52.6,105.2,52.3,104.9,52.3 M104.8,54.5c0,0.1-0.1,0.1-0.1,0.1h-0.4c-0.1,0-0.1-0.1-0.1-0.1
		V53l-0.2-0.2h0.7c0.1,0,0.1,0.1,0.1,0.1V54.5z"/>
</g>
</svg>
