<svg xmlns="http://www.w3.org/2000/svg" width="412.716" height="174.703" viewBox="0 0 412.716 174.703"><g transform="translate(0 92.817)"><path d="M13.367,299.089A34.857,34.857,0,0,1,1,296.533l-.241-.1-.05-15.989,5.273.112s2.139,6.958,2.663,7.541c1.265,1.594,4.944,3.192,9.547,3.192,4.778,0,6.729-1.79,6.729-6.176,0-5.589-4.724-8.045-10.188-10.891C7.832,270.631,0,266.557,0,254.946c0-8,3.263-11.545,8.9-14.961,3.629-2.239,6.434-3.454,10.858-3.454a33.267,33.267,0,0,1,11.819,2.381l1.735.778-2.892,16.189-4.786-.262s-1.2-6.588-1.482-8.29c-1.219-1.448-4.761-3-8.91-3-4.116,0-5.793,1.536-5.793,5.306,0,5.731,4.711,8.007,10.163,10.641,6.921,3.342,14.762,7.129,14.762,19.1,0,8.715-3.071,12.319-8.735,15.919A20.508,20.508,0,0,1,13.367,299.089Z" transform="translate(0 -232.422)" fill="#388348"/><path d="M119.027,284.2l-.853,11.532-6.18-.853-.724-8.661h-4.732c-3.155,2.251-4.927,7.6-4.927,14.454,0,8.448,2.693,14.861,6.9,16.06l9.564-4.037-.166,4.823-9.335,6.6c-11.241,1.353-17.483-6.355-17.483-21.283,0-15.681,6.5-22.823,18.732-22.823Z" transform="translate(-53.181 -257.807)" fill="#388348"/><path d="M172.393,253.828l7.1-4.5c9.792,0,12.88,3.8,12.88,13.892v24.6l2.838,2.048v2.326H180.691V289.86l1.228-2.048V259.259a12.406,12.406,0,0,0-3.483-2.485l-6.047,1.785v29.253l3.167,2.048v2.326H159.3V289.86l2.639-2.048V234.883l-3.879-2.326v-2.172l14.329-3.725v27.168Z" transform="translate(-92.88 -226.66)" fill="#388348"/><path d="M265.8,287.816l2.638,2.048v2.326H252.862v-2.326l2.555-2.048V234.883l-4.008-2.326v-2.172l14.4-3.725v61.156Z" transform="translate(-147.686 -226.66)" fill="#388348"/><path d="M328.094,293.039v23.9l2.838,1.427v2.872l-6.584,2.792c-3.021,0-5.256-1.24-6.18-3.725l-8.806,3.725c-6.18-.545-9.792-5.93-9.792-13.068,0-4.977,1.71-10.637,3.879-12.5l14.129-1.165v-8.219a8.31,8.31,0,0,0-3.941-3.026H309.5l-.462,7.528-6.571.853-1.511-8.149.524-1.939L313.832,280C323.887,280,328.094,284.037,328.094,293.039Zm-17.812,10.625a24.565,24.565,0,0,0-.791,6.551c0,2.347.986,6.6,2.693,7.221l5.389-1.552V301.8Z" transform="translate(-176.017 -257.802)" fill="#388348"/><path d="M415.115,286.447h3.167v3.571l-7.3,2.951c-2.759,0-4.994-1.4-5.652-3.879l-8.611,3.879c-8.477-.545-14.067-8.373-14.067-20.838,0-13.317,5.061-20.784,13.933-22.723l8.149,2.951V234.888l-4.865-2.251v-2.252l15.248-3.725Zm-17.35-29.669c-2.039,1.473-4.141,7.412-4.141,13.388,0,7.94,2.368,13.954,5.652,15.506l5.456-1.473V256.778Z" transform="translate(-224.848 -226.66)" fill="#388348"/><path d="M528.351,291.253v27.7l2.705,1.5v2.872h-14.25v-2.559l1.095-1.661v-29.02a9.577,9.577,0,0,0-3.088-2.718l-5.98,2.251a18.537,18.537,0,0,1,.262,3.413v25.915L511.733,321v2.326h-14.25v-2.639l1.161-1.814V290.084a10.326,10.326,0,0,0-3.088-2.718l-5.785,2.251v29.332L492.544,321v2.326H477.47V321l1.852-2.048V288.224l-3.812-2.405v-2.172L489.772,280v4.965L496.543,280c6.047,0,9.663,1.785,11.37,5.356L515.8,280C524.672,280,528.351,283.8,528.351,291.253Z" transform="translate(-279.513 -257.802)" fill="#388348"/><path d="M630.782,318.963l3.167,2.043v2.331H617.427v-2.331l2.9-2.043v-31.2l-4.732-2.713V283.5l15.182-3.492Z" transform="translate(-361.63 -257.807)" fill="#388348"/><path d="M635.626,243.28,624.91,245.61V234.885l10.716-2.355Z" transform="translate(-367.057 -230.087)" fill="#388348"/><path d="M668.006,321l2.576-2.048V288.3L666.77,285.9v-2.251L681.032,280v4.578l6.9-4.578c9.4,0,12.751,4.345,12.751,14.2v24.754L703.389,321v2.326H689.073v-2.792l1.161-1.735V290.092a10.205,10.205,0,0,0-3.417-2.718l-5.785,1.86v29.719L684.066,321v2.326h-16.06V321Z" transform="translate(-391.806 -257.801)" fill="#388348"/><path d="M792.042,322.776c0,10.242-6.838,16.838-17.812,16.917L763.2,335.036l1.249-3.754,10.5.7c4.207-.466,6.7-3.492,6.7-7.916v-4.141l-8.348,4.191c-8.477-.545-14-7.408-14-21.379,0-14.154,6.243-22.028,14.786-22.648l8.082,2.559,9.859-2.638v42.766Zm-17.55-35.47c-2.235,1.785-4.207,6.958-4.207,13.384,0,8.848,2.3,14.424,5.589,16.131l5.785-1.864v-27.5Z" transform="translate(-446.155 -257.807)" fill="#388348"/><path d="M859.834,301.046v.853c0,9.9,2.235,13.284,6.18,15.224l12.685-4.445v4.965L866.343,324.1c-11.174,0-17.483-7.587-17.483-22.207,0-14.712,6.771-21.895,19.256-21.895l10.45,4.578v15.378l-2.368,2.093Zm4.208-14.911c-2.168,1.86-3.621,5.123-4.008,10.021h9.792v-8.935l-2.368-1.086Z" transform="translate(-499.044 -257.802)" fill="#388348"/><path d="M943.868,285.52l8.282-5.356,6.638,2.559-2.43,13.813h-4.865L950.31,288.7l-6.442,2.172v28.087l3.363,2.048v2.326H930.646v-2.326l2.772-2.048V288.234l-4.008-2.326v-2.251l14.458-3.646Z" transform="translate(-546.072 -257.807)" fill="#388348"/></g><g transform="translate(128.146 45.761)"><g transform="translate(0 0.187)"><path d="M318.516,124.805c-.208-1.8-1.694-2.218-2.971-2.489-.837-.208-1.631-.42-1.715-1.128-.083-.691.291-1.257,1.236-1.361a3.088,3.088,0,0,1,1.9.354c.042-.021.1-.021.146-.042.208-.4.4-.816.608-1.215a.3.3,0,0,0-.042-.125,4.7,4.7,0,0,0-2.847-.5,2.882,2.882,0,0,0-2.784,3.159c.229,1.673,1.652,2.031,2.888,2.343.878.208,1.715.42,1.819,1.215.1.961-.566,1.382-1.4,1.486a3.886,3.886,0,0,1-2.073-.441c-.042,0-.083.021-.125.021-.229.4-.462.795-.691,1.194.021.042.021.083.042.125a5.6,5.6,0,0,0,3.034.628C317.031,127.839,318.766,126.957,318.516,124.805Z" transform="translate(-312.027 -115.454)" fill="#388348"/><path d="M343.614,123.056c-1.257.125-2.51.25-3.766.379-.083-.878-.187-1.756-.271-2.614.961-.1,1.927-.208,2.867-.312a.435.435,0,0,0,.125-.083c.083-.462.146-.92.229-1.382a.208.208,0,0,1-.083-.1c-1.107.125-2.2.229-3.3.333-.083-.712-.146-1.444-.229-2.156,1.257-.146,2.509-.271,3.766-.4a.455.455,0,0,0,.083-.1c-.042-.441-.083-.878-.125-1.34a.208.208,0,0,1-.1-.083c-1.819.187-3.621.375-5.439.566a.454.454,0,0,1-.083.1c.333,3.076.67,6.13.982,9.185.042.042.083.062.125.1,1.715-.187,3.429-.375,5.169-.545l.083-.083c.021-.462.042-.92.062-1.361C343.676,123.118,343.635,123.1,343.614,123.056Z" transform="translate(-326.771 -113.663)" fill="#388348"/><path d="M364.345,113.513c-.021-.021-.062-.042-.1-.083-.5.1-1.024.208-1.548.333a.456.456,0,0,0-.083.1c.271,3.034.545,6.089.837,9.122a.208.208,0,0,0,.1.083l1.527-.125a.364.364,0,0,0,.083-.1C364.891,119.727,364.616,116.63,364.345,113.513Z" transform="translate(-341.559 -112.635)" fill="#388348"/><path d="M384.49,111.52c-2.405.146-4.811.333-7.216.524-.042.042-.062.083-.083.1.021.462.062.9.1,1.34.021.042.062.062.1.1.857-.083,1.735-.146,2.593-.208.208,2.593.4,5.19.608,7.782a.455.455,0,0,0,.1.083c.5-.042,1.024-.083,1.527-.1.042-.042.062-.083.1-.1-.187-2.593-.4-5.19-.587-7.782l2.447-.187.125-.062c.083-.462.167-.92.25-1.382A.178.178,0,0,0,384.49,111.52Z" transform="translate(-350.071 -111.52)" fill="#388348"/></g><g transform="translate(115.671)"><path d="M596.333,119.477c-.753-.062-1.507-.1-2.26-.166.167-2.634.354-5.252.545-7.886-.021-.042-.062-.062-.083-.1l-3.558-.25a.434.434,0,0,1-.083.125c.083.42.187.837.271,1.257.042.021.083.062.125.083.5.021,1.024.062,1.527.1-.146,2.177-.291,4.374-.441,6.567-.732-.062-1.465-.1-2.218-.146a.454.454,0,0,1-.1.083c-.021.42-.042.816-.083,1.236.042.021.062.062.1.1,1.923.125,3.85.25,5.751.4.042-.021.1-.042.146-.062.125-.42.271-.816.42-1.215A1.241,1.241,0,0,0,596.333,119.477Z" transform="translate(-589.97 -111.07)" fill="#388348"/><path d="M616.855,112.943c-1.694-.146-3.408.524-3.579,2.551-.021.208-.021.441-.042.67a2.813,2.813,0,0,0,2.722,3.075,2.154,2.154,0,0,0,2.2-1.045c-.062.271-.1.545-.166.795-.021.25-.042.524-.062.774a1.525,1.525,0,0,1-1.839,1.444,2.351,2.351,0,0,1-1.673-1.236h-.146c-.4.229-.816.441-1.215.67-.021.042-.021.083-.042.125a3.694,3.694,0,0,0,2.951,1.881c1.84.146,3.471-.878,3.621-2.53.125-1.361.25-2.722.375-4.058C620.143,114.034,618.574,113.093,616.855,112.943Zm1.257,4.686a3.5,3.5,0,0,1-1.694.187,1.508,1.508,0,0,1-1.465-1.756v-.208a1.648,1.648,0,0,1,3.284.271C618.2,116.626,618.154,117.13,618.112,117.629Z" transform="translate(-603.422 -112.152)" fill="#388348"/><path d="M643.2,115.446c-1.715-.187-3.346.441-3.538,2.468-.146,1.361-.27,2.722-.4,4.078-.208,2.031,1.257,2.971,2.93,3.138s3.325-.441,3.558-2.468q.218-2.041.441-4.078C646.42,116.553,644.893,115.612,643.2,115.446Zm.9,6.817a1.453,1.453,0,0,1-1.756,1.423,1.416,1.416,0,0,1-1.382-1.735c.125-1.236.25-2.447.375-3.662a1.441,1.441,0,0,1,1.715-1.423,1.467,1.467,0,0,1,1.423,1.756Q644.285,120.444,644.1,122.263Z" transform="translate(-618.737 -113.606)" fill="#388348"/><path d="M668.96,118.344c-1.694-.208-3.429.375-3.662,2.405-.021.208-.042.441-.083.67a2.837,2.837,0,0,0,2.614,3.18,2.117,2.117,0,0,0,2.239-.982c-.062.271-.125.545-.187.795-.042.271-.062.524-.1.774a1.52,1.52,0,0,1-1.881,1.382,2.359,2.359,0,0,1-1.631-1.3h-.125c-.42.208-.837.42-1.257.628a.35.35,0,0,0-.042.1,3.617,3.617,0,0,0,2.867,1.989c1.839.229,3.517-.732,3.725-2.385.187-1.361.354-2.7.524-4.058C672.2,119.539,670.654,118.532,668.96,118.344Zm1.086,4.707a3.445,3.445,0,0,1-1.694.125,1.515,1.515,0,0,1-1.423-1.8c.021-.083.021-.146.042-.208a1.469,1.469,0,0,1,1.819-1.4,1.5,1.5,0,0,1,1.444,1.8C670.171,122.069,670.109,122.552,670.046,123.051Z" transform="translate(-633.681 -115.294)" fill="#388348"/></g></g><path d="M450.5,75.4A30.427,30.427,0,0,1,420.11,45.006V1.849l2.813-.146C432.828,1.2,441.851.95,450.5.95s17.679.237,27.575.724l2.818.137V45A30.43,30.43,0,0,1,450.5,75.4Z" transform="translate(-246.972 -0.605)" fill="#fffcee"/><path d="M435.951,114.978a21.19,21.19,0,0,1-.691-2.867,35.279,35.279,0,0,0,8.328-2.826C448.544,106.78,441.681,111.3,435.951,114.978Z" transform="translate(-255.658 -63.82)" fill="#ac2024"/><path d="M439.1,125.06c-.375-.753-.712-1.527-1.024-2.322a34.366,34.366,0,0,0,7.512-2.634C450.211,117.76,444.543,121.547,439.1,125.06Z" transform="translate(-257.312 -70.172)" fill="#ac2024"/><path d="M443.115,133.268c-.375-.566-.732-1.149-1.065-1.735a32.267,32.267,0,0,0,6.193-2.322C452.467,127.076,448.072,130.068,443.115,133.268Z" transform="translate(-259.638 -75.523)" fill="#ac2024"/><path d="M454.112,69.421c.042.4.062,1,.1,1.128.441-.042.9-.062,1.34-.083,1.024-.062,2.052-.125,2.909-.166.312-.042.608-.062.941-.1l.25-.021c1.59-.1,3.284-.291,4.644-.441,3.013-.25,6.655-.732,9.393-1.128l.291-.1a4.773,4.773,0,0,0,.524-.042,3.372,3.372,0,0,0,.628-.146l.628-.1c.146-.083,1.777-.312,2.156-.483a10.479,10.479,0,0,0,1.507-.375c.25-.062-.187.1.524-.125a.469.469,0,0,1,.25-.1.941.941,0,0,0,.208-.1v.042a.076.076,0,0,0,.062-.021l.291.691c-.021,0-.042.021-.062.021l.021.021c-.021,0-.042.021-.083.021-.042.021-.062.042-.1.042-.524.271-.795.354-1.34.628a11.131,11.131,0,0,0-1.045.524l-.042.042a.3.3,0,0,1-.125.042.778.778,0,0,1-.229.083h-.021c-.229.1-.5.229-.67.312l-.146.062-.021.021-1.9.795c-.1.042-.312.1-.333.125-.25.146-1.128.5-1.3.566l-.354.1-.125.042a.3.3,0,0,1-.125.042l-.649.271a10.7,10.7,0,0,0-1.257.462c-.229.083-.5.166-.712.229-1.486.483-2.888.961-4.27,1.361-.795.229-1.548.483-2.052.649-1.548.4-4.058,1.045-6.026,1.465l-.354.1-.062-.021c-.628.146-1.257.271-1.9.4a24.467,24.467,0,0,0,33.306-22.827V15.777c-8.66-.4-16.7-.587-24.479-.587-5.273,0-10.671.1-16.339.271-.333.628-.649,1.3-.982,1.968a44.122,44.122,0,0,0-3.1,13.767,61.893,61.893,0,0,0,.483,12.593c.483,3.3,1,5.377,1,5.377s.062.354.125.67a3.345,3.345,0,0,0,.167.566c-.021,0-.021.021-.021.062h.083c.166-.021.333-.021.483-.042.587-.083,1.153-.1,1.756-.166a.091.091,0,0,0-.062.021c.566-.042,1.194-.125,1.8-.187l.628-.021c.649-.062,1.382-.125,1.989-.187,0,.062.021.125.021.187Z" transform="translate(-260.797 -8.918)" fill="#ac2024"/><g transform="translate(185.682 13.157)"><path d="M488.9,38.656a6.261,6.261,0,0,1,.5-1.548,2.776,2.776,0,0,0,.35-1.049l1.1-.749s2.293.279,2.942.379,1.6,1.748,1.9,2.5.366,1.661-.187,1.86a6.781,6.781,0,0,1-3.974.017A7.035,7.035,0,0,1,488.9,38.656Z" transform="translate(-472.815 -33.822)" fill="#fffcee"/><path d="M496.016,46.917a11.962,11.962,0,0,1-3.325-.042,14.53,14.53,0,0,1-4.182-1.465l.042.982-.25,2.281.25.25.67.042a11.56,11.56,0,0,1,.125,1.631c.021.774.753.691,1.548.649.878-.021,1.34.125,1.194.837-.146.732-.333,2.01-.333,2.01a7.82,7.82,0,0,1,2.593-2.3c1.065-.566,1.8-.649,2.2-1.486C496.936,49.447,496.332,47.354,496.016,46.917Zm-6.546,3.075.021-.291-.1-.208.92.125Zm.437-2.322-.545-.795.375-.083,1.4.5Zm2.638-.379,3.055,3.558A3.977,3.977,0,0,1,492.545,47.291Z" transform="translate(-472.465 -39.719)" fill="#fffcee"/><path d="M477.585,59.836c.633-.462,2.992-.345,2.992-.345l.345,3.051a11.549,11.549,0,0,1,3.05-2.763c1.5-.749,1.956-.92,1.956-.92s2.992,1.669,3.454,2.589.229,2.189.462,2.3-3.109,5.872-3.109,5.872-.878,1.165-1.394,1.685-.816.354-3,.47-5.156.092-5.156.092L475.6,68.488s5.9-.707,6.13-.649,1.153,1.323,1.727,1.153.691-.749-.171-1.095-.117-.978.117-1.552,1.611-2.589,1.611-3.167a1.432,1.432,0,0,0-.229-.861l-2.822,4.836-1.669.229-2.072-5.756.091,3.238s-2.68,1.885-3.026,2-5.3-4.2-5.3-4.2.824-4.595,1.457-4.424,2.343,2.118,2.747,2.351-.691,1.265.058,1.5S477.585,59.836,477.585,59.836Z" transform="translate(-461.775 -47.203)" fill="#fffcee"/><path d="M501.435,95.853c-.92-1.257-1.948-1.777-4.312-1.839-1.819-.042-5.315.229-6.842.354a1.308,1.308,0,0,0-1.065.732l-.166.354s.083-.021,1.382-.083c1.507-.062,2.447,1.8,3.725,3.429,1.278,1.611,2.405,2.281,5.5,2.468,2.468.146,2.073-1.278,2.489-2.031C502.688,98.242,502.355,97.131,501.435,95.853Zm-8.665-.92,5.543.649C496.5,96.419,494.344,95.749,492.771,94.934Z" transform="translate(-472.903 -68.093)" fill="#fffcee"/><path d="M508.85,89.244l2.014-1.844a3.015,3.015,0,0,1,1.727,1.9c.287,1.323.345,1.785.345,1.785s-1.153-1.382-2.131-1.5A19.758,19.758,0,0,1,508.85,89.244Z" transform="translate(-484.462 -64.234)" fill="#fffcee"/><path d="M465.04,33.248c.325.033,4.624,2.755,4.624,2.755l1.69-2.693s-2.984-1.552-3.2-1.573-2.651.129-2.651.129Z" transform="translate(-458.885 -31.735)" fill="#fffcee"/><path d="M463,44.258a11.7,11.7,0,0,1,1.128,3.18,11.574,11.574,0,0,1-1.045,2.385l-1.34-1.989-.94.021-.5.941-1.673-.628,1-1.735-.333-.441.441-.483a4.323,4.323,0,0,0-.608-.732c-.146-.042,1-1.128,1-1.128l1.086-.021,1.59-2.8,1.507.587-1.465,2.7C462.9,44.154,462.962,44.216,463,44.258Z" transform="translate(-455.142 -37.039)" fill="#fffcee"/><path d="M481.738,98.678c2.4-.083,3.858,4.495,5.727,4.878a15.359,15.359,0,0,1-6.829-.325c-1.244-.287-1.2.72-.816.816s1.44.337,1.44.337l.861,7.574s-2.11.861-2.971.574-3.741-9.589-3.837-10.021a3.513,3.513,0,0,1,.766-1.964C476.461,100.068,480.015,98.737,481.738,98.678Z" transform="translate(-464.875 -70.818)" fill="#fffcee"/><path d="M477.778,133.34a12.289,12.289,0,0,0,3.354.287c.72-.241.766.337.766.337a4.763,4.763,0,0,1-.146,2.251c-.387.766,0,.529-.383.766a16.274,16.274,0,0,1-2.156.72l-.816-.146a7.575,7.575,0,0,1-3.883.383c-1.536-.479-1.486-.861-1.486-.861l.529-1.053s2.638-.957,3.45-1.344A1.454,1.454,0,0,0,477.778,133.34Z" transform="translate(-463.549 -91.055)" fill="#fffcee"/><path d="M496.19,118.277a8.69,8.69,0,0,1,1.036-4.216,3.773,3.773,0,0,1,2.239-.891,8.662,8.662,0,0,0,4.153-.021s-.861,1.727-1.677,1.869-1.677.911-1.249,1.244,2.971-1.44,2.971-1.44l4.432.092s-.433,3.117-2.11,3.6-7.7,1.444-7.7,1.444Z" transform="translate(-477.071 -79.268)" fill="#fffcee"/><path d="M524.491,116.429c.479-.146,1.39-.529,1.39-.529s.479,0,.957,1.053,1.149,3.641.911,4.22-1.053,2.11-1.053,2.11a11.592,11.592,0,0,1-2.971.72c-.72-.1-.816-.574-.816-.574a6.637,6.637,0,0,1,1.2-1.869c.67-.624-.816-1.631-.816-1.631a7.358,7.358,0,0,0,1.149-2.206A6.4,6.4,0,0,0,524.491,116.429Z" transform="translate(-492.671 -80.873)" fill="#fffcee"/><path d="M467.547,85.268l.125.462-2.031,1.715-3.159-1.257a7.633,7.633,0,0,1-.545-1.215c-1.59,0-3.263,0-3.388-.042-.229-.062-.083-1.149-.083-1.149s3.075.021,5-.083l-.524-.691,1.673-1.149,2.634.878,1.215.166a19.526,19.526,0,0,0,1.215,2.468Z" transform="translate(-455.02 -61)" fill="#fffcee"/><path d="M451.969,88.387a.227.227,0,0,1-.221-.141,28.789,28.789,0,0,1-1.494-5.976.4.4,0,0,1,.092-.316c.283-.345,1.157-.4,1.328-.408s1.049-.029,1.361.291a.414.414,0,0,1,.121.308,28.589,28.589,0,0,1-.978,6.084A.225.225,0,0,1,451.969,88.387Z" transform="translate(-450.25 -60.813)" fill="#fffcee"/></g><g transform="translate(172.763)"><path d="M477.561.832c-9.876-.483-18.89-.712-27.6-.712-8.681,0-17.7.229-27.6.753l-3.159.146V44.513a30.755,30.755,0,0,0,61.51,0V.977Zm-.166,43.681a27.426,27.426,0,0,1-54.851,0V4.178c9.143-.462,18.286-.753,27.426-.753,9.206,0,18.328.271,27.426.732Z" transform="translate(-419.21 -0.12)" fill="#ac2024"/></g></svg>