<svg xmlns="http://www.w3.org/2000/svg" xmlns:xlink="http://www.w3.org/1999/xlink" viewBox="0 0 177.1 201.18"><defs><style>.cls-1{fill:none;}.cls-2{clip-path:url(#clip-path);}.cls-3{fill:#f6f5f5;}.cls-4{fill:#1c130e;}.cls-5{fill:#fff;}</style><clipPath id="clip-path" transform="translate(-64.65)"><polyline class="cls-1" points="297.64 0 0 0 0 130 297.64 130"/></clipPath></defs><title>logo-fyneales-tab</title><g id="Layer_2" data-name="Layer 2"><g id="Layer_1-2" data-name="Layer 1"><g class="cls-2"><path class="cls-3" d="M241.48,201.18s-.07-.08-.08-.12,0-.2.11-.22h.24" transform="translate(-64.65)"/></g><path class="cls-4" d="M188.18,0H105.94L64.76,41.16,64.65,130H229.24l.11-88.81L188.18,0" transform="translate(-64.65)"/><g class="cls-2"><path class="cls-5" d="M163.74,77.55a1.52,1.52,0,0,0,.07-.36.47.47,0,0,0,0-.16.87.87,0,0,0-.16-.12,1.26,1.26,0,0,1-.53-.37,1.4,1.4,0,0,0-.41-.29c-.05,0-.17,0-.19,0s-.21.17-.12.29.11.12,0,.22-.15.2,0,.34a1.8,1.8,0,0,0,.44.37,3.47,3.47,0,0,0,.77.18s.14-.06.16-.12" transform="translate(-64.65)"/><path class="cls-5" d="M136.36,110.54h0Z" transform="translate(-64.65)"/><path class="cls-5" d="M166.62,79.95a.34.34,0,0,0,.25-.45,2.18,2.18,0,0,0-.58-.65.25.25,0,0,0-.42,0c-.07.08-.19,0-.22-.17a.18.18,0,0,0-.13-.15h-.07s-.06,0-.06,0c0,.26-.24.57.16.76.12.06.18.23.28.33a.9.9,0,0,0,.8.28" transform="translate(-64.65)"/><path class="cls-5" d="M158.78,77.35c0,.05-.08.12-.08.18a1,1,0,0,0,.07.35.35.35,0,0,0,.43.17.42.42,0,0,0,.35-.4.34.34,0,0,0-.19-.29.79.79,0,0,0-.59,0" transform="translate(-64.65)"/><path class="cls-5" d="M125.3,115.07h0v0" transform="translate(-64.65)"/><path class="cls-5" d="M156.5,79.87l-.78-.16a.54.54,0,0,0-.2,0,.63.63,0,0,0-.1.12.73.73,0,0,0,0,.5.12.12,0,0,0,.11,0c.16-.08.27-.06.31.14,0,0,0,.05,0,.05a2.23,2.23,0,0,0,.49-.06.55.55,0,0,0,.21-.57.2.2,0,0,0-.1-.1" transform="translate(-64.65)"/><path class="cls-5" d="M155.87,77.89a.82.82,0,0,0,.29,0,.76.76,0,0,1,.73.22.86.86,0,0,0,.68.21.38.38,0,0,0,.24-.13.44.44,0,0,0,0-.41c-.27-.16-.54-.34-.88-.19a.25.25,0,0,1-.26-.07l-.29-.21c-.05,0-.17,0-.1-.14a.31.31,0,0,1,.15-.14.78.78,0,0,1,.35,0c.19,0,.37.12.55.18a.28.28,0,0,0,.32-.11c.1.13.13.33.33.36s.17,0,.19,0a1.84,1.84,0,0,0,.18-.39c0-.09,0-.17-.15-.21s-.36.07-.52.17a.71.71,0,0,1,0-.14.27.27,0,0,0-.21-.33,6,6,0,0,1-1.1-.32.28.28,0,0,0-.36.26,1.68,1.68,0,0,0,.06.35c0,.21,0,.24-.15.33l-.37.17a.65.65,0,0,1,0,.11c.06.32.13.41.37.45" transform="translate(-64.65)"/><path class="cls-5" d="M155.47,77.32v0h0v0h0" transform="translate(-64.65)"/><path class="cls-5" d="M131.41,115.29c-.24-.15-.26-.17-.17-.35a.44.44,0,0,0-.05-.52,4.75,4.75,0,0,0-.36-.42.2.2,0,0,0-.25-.05c-.22.13-.33,0-.43-.18a1,1,0,0,0-.63-.58.42.42,0,0,1-.24-.22,4.35,4.35,0,0,0-.89-1.22,3.52,3.52,0,0,0-.4-.38.42.42,0,0,0-.64.14.35.35,0,0,1-.23.21c-.2.05-.38.13-.58.19s-.45.1-.46.41c0,0-.06.06-.09.09s-.21.12-.2.16a.78.78,0,0,0,.15.29c0,.06.11.1.12.16s0,.12-.09.17a.11.11,0,0,1-.11,0c-.08-.08-.14-.19-.21-.27a.13.13,0,0,0-.12,0,.33.33,0,0,0-.15.13.23.23,0,0,0,0,.19,1.18,1.18,0,0,0,.48.39c.13.07.12.17.06.29a.09.09,0,0,0,.07.15.15.15,0,0,0,.12,0,3,3,0,0,0,.16-.3c.07-.13.18-.18.26-.08a5.12,5.12,0,0,1,.42.55c0,.06,0,.18,0,.26s-.07.06-.11.07a.14.14,0,0,1-.11,0s0-.09,0-.13-.09-.17-.17-.1l-.26.22a.18.18,0,0,1-.25,0c-.11-.09-.2-.2-.35-.2-.14-.22-.58-.23-.45-.66a.35.35,0,0,0-.16-.29.91.91,0,0,1-.43-.6.77.77,0,0,0-.42-.52.73.73,0,0,1-.38-.47,1.72,1.72,0,0,0-.61-.89.5.5,0,0,1-.15-.5l.43.34c.16.12.19.11.26-.11s.14-.22.29-.19a.33.33,0,0,1,.29.26,1.91,1.91,0,0,0,.11.32s.07,0,.11,0c.07-.26.31-.24.49-.32s.2,0,.26.12a3,3,0,0,0,.43.85c.09.11.29.13.35,0s.16-.18.28,0a.26.26,0,0,0,.17.09.3.3,0,0,0,.17-.09.11.11,0,0,0,0-.17c0-.05-.11-.11-.11-.16s.13-.08.2-.11l.51-.19a.26.26,0,0,0,.08-.41,5.25,5.25,0,0,1-.83-1.09.88.88,0,0,1-.19-.88c0-.09-.1-.2-.22-.18s-.17,0-.25,0-.13-.13-.21-.18a.45.45,0,0,0-.66,0,.31.31,0,0,1-.36.1.31.31,0,0,0-.16,0,.78.78,0,0,0-.15.26,2.62,2.62,0,0,1-.71,1l-.61.65v0h0l-.8.85.08.06a1,1,0,0,1,.28.39,2.38,2.38,0,0,0,.3.62c.11.16.26.33.51.24a.1.1,0,0,1,.14.13,1,1,0,0,1-.26.56.15.15,0,0,0,0,.24,1.28,1.28,0,0,0,.14.15,3.44,3.44,0,0,1,.73.82,2.05,2.05,0,0,0,.44.43c.14.12.29.07.35-.12s.09-.21.22-.22h.34a.12.12,0,0,1,.06.09c-.06.19-.12.39-.19.58a.34.34,0,0,1,.25.26c.07.25.31.39.36.65a9.68,9.68,0,0,1,.88.77.69.69,0,0,0,.38.13c.2,0,.19.05.19.21a1.08,1.08,0,0,1-.06.34c0,.08-.13.16-.13.23s.13.17.24.21.07.12.12.16.14.08.17.06c.18-.15.35,0,.52,0s.14.12.12.21-.07.21-.1.32.08.25.17.25a1,1,0,0,0,.26-.07h0c.3-.34.61-.68.93-1l.45-.45,0,0a.26.26,0,0,1,0-.06.32.32,0,0,1,.28-.16l1-1h0c-.15-.14-.18,0-.2.1s0,.06-.06.08a.21.21,0,0,1,0-.06,1.46,1.46,0,0,1,0-.21c0-.14.09-.21.21-.21l.13,0c.22,0,.34-.09.28-.29a.46.46,0,0,0-.21-.26" transform="translate(-64.65)"/><path class="cls-5" d="M122,111.35s.07,0,.11,0a.7.7,0,0,0,0-.13v-.05l-.12.13,0,0" transform="translate(-64.65)"/><path class="cls-5" d="M140,106c0-.11-.12-.14-.2,0s-.11.1-.16,0-.2-.25-.3-.38a2.47,2.47,0,0,0-.82-.72.26.26,0,0,0-.37.06.7.7,0,0,1-.57.3c-.13.17-.25.35-.4.5s0,.18.07.25a.16.16,0,0,1,0,.12c0,.1-.1.05-.15,0s0,0-.05,0-.14,0-.16.06a.15.15,0,0,0,0,.12c.13.12.32.16.38.37s.1,0,.14,0a1.71,1.71,0,0,1,.15-.13.15.15,0,0,1,.13,0,.42.42,0,0,1,.25.38.27.27,0,0,1-.06.12.08.08,0,0,1-.05,0c-.06-.09-.11-.21-.24-.06a.24.24,0,0,1-.36.06c-.11-.07-.25-.11-.36-.18s-.13-.08-.14-.13c-.05-.32-.4-.43-.47-.74a.36.36,0,0,0-.17-.21c-.43-.22-.57-.7-.91-1,0,0,0-.13,0-.2l.12.07c.18.09.18.09.3-.06s.3-.14.41.05.09.17.26.06.27-.13.38.06,0,.13.09.18a2.86,2.86,0,0,0,.22.26.15.15,0,0,0,.24,0c.14-.14.23,0,.34.05s.07-.12.05-.16a.27.27,0,0,1,.19-.37l.13,0c.15,0,.15-.22,0-.33s-.08-.05-.1-.09l-.72-.91c0-.25-.12-.31-.33-.33s-.14-.11-.23-.15a.21.21,0,0,0-.18,0,1.72,1.72,0,0,1-.42.21.79.79,0,0,0-.52.59,1.25,1.25,0,0,1,0,.13s-.08,0-.09,0-.15-.11-.2,0-.14.39-.21.58a1.64,1.64,0,0,0-.83-.16c0,.1-.1.18-.05.31a1.9,1.9,0,0,0,.32.69c.06.07.11,0,.14,0s.07-.12.15-.06.21.36.33.52.23.37.49.29c.1,0,.13,0,.11.1a1.52,1.52,0,0,1-.12.33.17.17,0,0,0,0,.24l.83.72c.08.07.17.06.27-.08a.25.25,0,0,1,.29-.11c.1,0,.11.13.11.22a.68.68,0,0,0,.05.26,2.11,2.11,0,0,0,1.24,1,1.68,1.68,0,0,1,.49-.43,2.75,2.75,0,0,0,.83-.72c.08-.08.12-.22.21-.26a.5.5,0,0,0,.3-.4c0-.16.12-.37.26,0a.33.33,0,0,0,.16,0,1.39,1.39,0,0,1,0-.21.63.63,0,0,0-.23,0A.36.36,0,0,1,140,106" transform="translate(-64.65)"/><path class="cls-5" d="M125.11,115.56c.1.15.19.32.29.46a1.58,1.58,0,0,0,.25.23l0,0s0,0,0-.06a1.27,1.27,0,0,0-.4-.63.22.22,0,0,1-.06-.3.62.62,0,0,0,0-.18c-.37.12-.39.18-.19.49" transform="translate(-64.65)"/><path class="cls-5" d="M137.57,105.28v0h0v0Z" transform="translate(-64.65)"/><path class="cls-5" d="M137,109.72c-.26.24-.6.42-.67.81.5,0,.56-.45.78-.74,0,0,0,0,0-.05s-.08,0-.1,0" transform="translate(-64.65)"/><path class="cls-5" d="M132.46,100.19a1.51,1.51,0,0,0-.39.13s-.12-.05-.15-.1a.36.36,0,0,1,0-.15l-.63.66a3.24,3.24,0,0,0,.12.34,5.9,5.9,0,0,1,.33.59c.28.13.19.45.32.66s.36.59.79.5h.07c.07,0,.08.07.07.15a.52.52,0,0,0,0,.33,1.19,1.19,0,0,1,.25.62c0,.13.15.29.28.25s.43.07.64,0a.34.34,0,0,1,0-.11.35.35,0,0,0-.07-.54,1,1,0,0,1-.33-.44.65.65,0,0,0-.66-.49s-.08-.1-.07-.15a.79.79,0,0,1,.12-.25c.17-.26.18-.26,0-.38a1.24,1.24,0,0,1-.46-.5.36.36,0,0,1-.05-.13c0-.09.26-.43.37-.43s.25-.11.38-.14.15,0,.18,0,.2,0,.33-.05a2.82,2.82,0,0,0,.45-.29c.06-.06.17,0,.23.08a.18.18,0,0,1,0,.25,2.64,2.64,0,0,0-.44.32.53.53,0,0,1-.42.18c-.41,0-.41,0-.22.37.06.1.11.2.17.3a.4.4,0,0,0,.1.09.1.1,0,0,0,0,0c0-.22.34-.12.35-.26s.09-.24.25-.15.17.07.23,0a.26.26,0,0,1,.21-.16l.34,0a.14.14,0,0,0,.09-.21s-.07-.07-.08-.11c-.1-.23-.33-.39-.4-.62a2.68,2.68,0,0,0-.43-.77A4.42,4.42,0,0,1,134,99c0-.08,0-.17.11-.21s.07-.08,0-.11-.11-.07-.08-.15,0-.16,0-.2l-.19-.25-.69.72-.84.88a.65.65,0,0,0,.38-.13c.08-.07.22,0,.28.13s.05.15,0,.18-.25.38-.52.39" transform="translate(-64.65)"/><path class="cls-5" d="M134.14,104.22v0h0v0h0" transform="translate(-64.65)"/><path class="cls-5" d="M166.78,72.28c0,.1-.12,0-.18.07s-.18.17-.1.26a.75.75,0,0,0,.52.23c.15,0,.13-.17.21-.25s.1,0,.14,0a.18.18,0,0,0,.09-.24,2.64,2.64,0,0,0-.18-.3c-.2,0-.43,0-.51.27" transform="translate(-64.65)"/><path class="cls-5" d="M170,75.76a.41.41,0,0,1,.39.29s0,.1,0,.14a.22.22,0,0,0,.31.07.46.46,0,0,0,.09-.11c.05-.07.12-.14.19-.1a3.16,3.16,0,0,0,.57-.69q.47-.83,1-1.61c-.07-.14-.11-.29-.18-.43s-.1,0-.16,0-.16-.07-.23-.13a.54.54,0,0,0-.73-.06l-.35.24s0,.1,0,.11a1.71,1.71,0,0,1-.25.11c-.13.06-.16.14-.08.21s.29.16.29.32a4.52,4.52,0,0,0,0,.94.08.08,0,0,1,0,.07.72.72,0,0,0-.27.64c0,.07,0,.08-.1,0l-.58-.45a.14.14,0,0,0-.13,0,.29.29,0,0,0-.11.17.22.22,0,0,0,.09.18.79.79,0,0,0,.28,0" transform="translate(-64.65)"/><path class="cls-5" d="M168.43,62.54a.55.55,0,0,0,0-.17,1.91,1.91,0,0,1-.29.23h0a.17.17,0,0,0,.25-.07" transform="translate(-64.65)"/><path class="cls-5" d="M168.59,66.17l.13.06a2.19,2.19,0,0,1-.14.2s-.06,0-.1,0l.11-.22m.68-.81a.14.14,0,0,1,.08-.08l.23-.07-.11.22-.18.07a.57.57,0,0,1,0-.15m-1.41-2.59c0,.06-.09.14-.13.2s-.07.15-.13.18a2.48,2.48,0,0,0-.68.59l-.06.06a3,3,0,0,1-.43.41h0a.28.28,0,0,1-.12.31s-.09,0-.13,0a.17.17,0,0,1,0-.07h0a.5.5,0,0,1-.42.13c-.07,0-.16.16-.25.23a10.38,10.38,0,0,0-1.24,1.2,1.21,1.21,0,0,1,.79.54,4.06,4.06,0,0,0,1.23.9s.08,0,.11,0,.06-.16.15-.08.42.23.51.5.28.33.46.47c.46.37.49.38,1.07.13.26,0,.32-.19.39-.36a1.49,1.49,0,0,0,0-.36c0-.18.09-.22.3-.15s.14,0,.15,0,.1-.28,0-.41-.11-.17-.06-.31.42-.5.28-.87c0,0,.06-.1.1-.15s.32-.24.19-.48c0-.06,0-.09.08-.08a.77.77,0,0,1,.53.22h0l.65-.62a.5.5,0,0,0-.26.22c-.07.13-.19.13-.31.06L170.5,65a.28.28,0,0,1-.14-.31c0-.12.12-.13.22-.15s.17-.08.13-.21a.22.22,0,0,1,0-.07c0-.2,0-.2.23-.2a.28.28,0,0,0,.19-.06,1.34,1.34,0,0,0,.17-.28l-.06,0s-.07-.05-.15-.11l.25-.16h0a.44.44,0,0,0-.32-.38.85.85,0,0,0-.36,0c-.14,0-.15-.06-.19-.15a.25.25,0,0,0-.16-.11,1.05,1.05,0,0,0-.29,0,.57.57,0,0,1-.57-.25.33.33,0,0,0-.57.14.29.29,0,0,0,0,.2s.09.05.11.09.07.16,0,.19a.44.44,0,0,1-.24.12s-.12-.07-.16-.12,0-.1,0-.14-.08-.19-.19-.14-.29,0-.44-.1l-.15-.12" transform="translate(-64.65)"/><path class="cls-5" d="M132.56,106.13c-.31,0-.48.33-.77.4,0,0-.06,0-.08-.06a.08.08,0,0,1,0-.07c.14-.24.46-.3.57-.57h.06l.24.21a.38.38,0,0,1,0,.08m-3.71-1.55a.26.26,0,0,1,0,.09,1.13,1.13,0,0,0-.45,0s-.06-.06-.06-.09a.31.31,0,0,1,0-.11c0-.09,0-.16,0-.23a.15.15,0,0,1,.21-.1,1.52,1.52,0,0,1,.24.13c.11.08-.08.21,0,.3m8.3,4.65s0,0-.06,0-.22,0-.31-.06-.11-.12-.09-.16c.1-.24-.06-.37-.22-.43a1,1,0,0,1-.54-.48,2.21,2.21,0,0,0-1.43-1,.71.71,0,0,0-.34,0,2.44,2.44,0,0,0-.25.1c-.14,0-.23,0-.33-.17s-.07-.21.08-.23.21,0,.26,0,0-.2-.07-.29-.22-.26-.25-.41c-.1-.46-.49-.63-.79-.9-.05,0-.13-.06-.17-.1s-.15-.23-.24-.33-.25-.2-.35-.32-.06-.26-.21-.31a.77.77,0,0,0-.61-.49c-.07,0-.08-.1,0-.16a.34.34,0,0,0,0-.39c-.08-.11,0-.21,0-.32s.06-.23,0-.26c-.21-.17-.13-.49-.31-.65a1,1,0,0,1-.31-.45q-1.48,1.59-2.93,3.2l.09,0a.17.17,0,0,1,.05.24.35.35,0,0,1-.32.2c-.26,0-.33.17-.33.43a.34.34,0,0,0,.2.33.61.61,0,0,0,.19.06c.15,0,.09.1.08.19s.13.39,0,.6a.12.12,0,0,0,.05,0c.2,0,.12.15,0,.24s-.12.14,0,.23.13.19.21.28.09.07.11.05c.18-.1.36.05.53,0a.4.4,0,0,0,.21-.16c0-.07,0-.18.08-.26s.12-.12.15-.1a.51.51,0,0,0,.68-.08.42.42,0,0,1,.26-.07c.17,0,.22-.11.27-.26s.12-.19.27,0,.18.13.29.06a.14.14,0,0,1,.12,0,.18.18,0,0,1,.08.1s0,.1,0,.1a.83.83,0,0,0-.43.19.26.26,0,0,1-.32,0,.19.19,0,0,0-.25,0,3.64,3.64,0,0,0-.42.45.34.34,0,0,1-.28.15.52.52,0,0,0-.26.07c-.06,0-.13.17-.11.22a.34.34,0,0,1-.09.43s0,.12,0,.18a.15.15,0,0,0,.12,0,.3.3,0,0,1,.47.07l.57.69c.08.1.18.11.3,0l.1-.09c.17-.12.24-.11.4.07a.24.24,0,0,1,0,.11l.11,0c.19.07.35.09.43-.15,0-.06.07-.12.13,0s.16.22.24.34,0,.06,0,.06a.26.26,0,0,1-.12,0c-.23,0-.3,0-.26.21a.32.32,0,0,0,0,.07.62.62,0,0,1,0,.59.43.43,0,0,0,.12.51c.13.12.21.33.36.41s.16.37.3.52a1.53,1.53,0,0,0,.54.41.57.57,0,0,0,.46,0,6.14,6.14,0,0,1,.85-.23c.05,0,.12,0,.18.07a.38.38,0,0,1-.11.07.29.29,0,0,0-.26.18c-.07.18-.19.22-.38.17s-.27.15-.23.27a3.1,3.1,0,0,0,.23.67l.07-.08c.44-.57.94-1.1,1.4-1.66a1,1,0,0,0,.23-.46c.06-.45.38-.65.7-.88a.3.3,0,0,1,.1,0s0,.09,0,.14l-.07.24a1,1,0,0,0,.23-.14,4.16,4.16,0,0,0,.29-.34c-.13,0-.29-.13-.15-.27.35-.35.56-.94,1.23-.85a.07.07,0,0,0,0-.05,1.42,1.42,0,0,0-.23-.13" transform="translate(-64.65)"/><path class="cls-5" d="M152.69,78.4h.43a.41.41,0,0,0,.47-.35.36.36,0,0,0-.14-.37,2.89,2.89,0,0,1-.35-.27.29.29,0,0,1-.06-.09l-.5.52-.3.31h0s.09.07.09.09,0,.16-.08.17a.64.64,0,0,1-.34,0l-.49.52c0,.08,0,.19.06.28s.13.19.2.19a3.66,3.66,0,0,0,1.23,0,.44.44,0,0,0,.36-.39.35.35,0,0,0-.22-.42l-.42-.13c-.07,0-.08-.06,0-.11s0,0,.05,0" transform="translate(-64.65)"/><path class="cls-5" d="M130.76,109.54h0v0h0v0" transform="translate(-64.65)"/><path class="cls-5" d="M165.53,69.29c-.05.08-.08.19-.16.24a.52.52,0,0,0-.23.43c0,.08-.08.11-.16.08s-.23-.07-.3.08a.56.56,0,0,1-.15.16c-.08.07-.17,0-.2-.09s-.06-.22.16-.34a.59.59,0,0,0,.1-.1,1.56,1.56,0,0,0,.59-.47c0-.05.09-.1,0-.16a4,4,0,0,1-.37-.23s0-.09,0-.13.09,0,.13,0l.58.3a.15.15,0,0,1,.05.24m-.33,2,0-.08.13-.09s0,0,.06.07l-.14.09M164,69.18c0,.1-.21.1-.32,0s-.14-.11-.13-.15c0-.23,0-.48.25-.64a1.61,1.61,0,0,0,.28-.33.52.52,0,0,1,.19,0,.48.48,0,0,1,.16.15.31.31,0,0,1,0,.45c-.15.15-.35.23-.42.46m7.25,3.51c0-.24-.16-.41-.35-.3a.66.66,0,0,1-.68,0c-.07,0-.11,0-.13.1-.07.28-.07.27-.3.13a.48.48,0,0,1-.29-.39c0-.19-.24-.21-.39-.3a.07.07,0,0,0-.06,0,.24.24,0,0,0,0,.11s0,0,.06,0a.19.19,0,0,1,.08.25c0,.09-.2,0-.29-.1a.49.49,0,0,1-.11-.26,3.38,3.38,0,0,1,.12-.57s.08-.05.11,0l.27.12c.09,0,.13,0,.15-.1a1.84,1.84,0,0,0,0-.29c0-.19-.24-.23-.25-.43s-.18-.14-.29-.19-.13-.12-.06-.23a.35.35,0,0,0,.06-.13.51.51,0,0,0,0-.13s-.11,0-.13,0a.23.23,0,0,1-.31.09.17.17,0,0,1-.12-.23.27.27,0,0,0-.15-.35,5.57,5.57,0,0,1-.65-.47.81.81,0,0,0-.4-.16c-.12,0-.17,0-.2.13s-.09.23-.25.11a.19.19,0,0,0-.14,0c-.07,0-.14.07-.2.06s-.08-.15-.12-.24a.34.34,0,0,1,0-.35.22.22,0,0,0-.09-.32.89.89,0,0,1-.37-.34.22.22,0,0,0-.18-.1c-.24,0-.32-.2-.5-.27a2.65,2.65,0,0,1-.48-.32c-.12-.09-.22-.2-.35-.27s-.4-.18-.58-.31l-.46.57a1,1,0,0,1-.3.22.4.4,0,0,1,.12.08.78.78,0,0,1-.1.6c-.14.08-.16.24-.26.33s-.13.1-.18.09c-.24-.07-.2.08-.26.23a3.11,3.11,0,0,0-.24.51c0,.09-.16.09-.26.06s-.18-.14-.14-.22a2.82,2.82,0,0,0,.22-.54.57.57,0,0,1,.27-.4c.28-.19.34-.24.18-.35a5.19,5.19,0,0,0-1.25,1.3.37.37,0,0,1-.09.1c.22.15.51.17.71.32a2.84,2.84,0,0,0,.82.45,4.61,4.61,0,0,1,.66.31c.09,0,.11.15,0,.25s0,.11.07.1.13,0,.16.1,0,.17.1.19a1.24,1.24,0,0,0,.77.14c.09,0,.2-.05.24-.12s0-.23-.13-.3a.3.3,0,0,1-.11-.1s0-.11,0-.12a.16.16,0,0,1,.14,0c.17.14.33.28.49.43a.13.13,0,0,1,0,.1.14.14,0,0,0,0,.24c.19.19.4.35.6.53,0,0,.08.09.07.1s-.06.19.08.27a.39.39,0,0,0,.41,0l.07,0c.15,0,.11-.12.08-.21s-.05-.15.1-.1c.34.1.41.08.52-.19a1.62,1.62,0,0,1,.55-.75.77.77,0,0,0,.19-.3c0-.08.09-.07.17,0a1.81,1.81,0,0,0,.28,0c.14,0,.19.13.25.24s0,.2-.13.24c0,.25-.08.25-.27.18s-.14,0-.21,0-.1,0-.11.06a2.88,2.88,0,0,0-.19.47s.05.12.09.18.29.12.43.19.11.22,0,.37-.12.26,0,.43l.35.37a1,1,0,0,0,.22.19c.05,0,.16,0,.2,0a1,1,0,0,0,.27-.4c0-.15,0-.23.17-.12a.54.54,0,0,0,.28.06s.09-.08.13-.14,0-.16.06-.17a.26.26,0,0,1,.2,0c.19.11.2.26.07.4s-.25.29-.37.44,0,.21.06.32.15.07.22.07,0-.19.12-.26.27-.26.41-.38.09,0,.13,0,.1,0,.08-.07-.1-.17-.14-.25a.5.5,0,0,1,0-.14s.09,0,.11.05c.14.2.3.38.58.32,0-.06,0-.14,0-.16a.53.53,0,0,0,.23-.51" transform="translate(-64.65)"/><path class="cls-5" d="M154.05,78a.37.37,0,0,0,0,.35.64.64,0,0,0,.58.39c.3,0,.63.08.92-.1s.19,0,.23.14A.42.42,0,0,0,156,79a6.46,6.46,0,0,0,.81.32,1,1,0,0,0,.36,0,.17.17,0,0,0,.17-.19c0-.11,0-.24-.12-.31s-.26-.13-.38-.2-.35-.17-.51-.27-.54,0-.74-.2a.15.15,0,0,0-.14,0c-.2.08-.3-.06-.43-.17a4,4,0,0,0-.52-.34,1.19,1.19,0,0,0-.39.4" transform="translate(-64.65)"/><path class="cls-5" d="M154.44,77.63h0v0l0,0h0" transform="translate(-64.65)"/><path class="cls-5" d="M125,111.37c-.05,0-.08,0-.1,0a.09.09,0,0,0,0,.06,1.1,1.1,0,0,1,.11.25c0,.32.3.34.51.41l.12-.1a.07.07,0,0,0,0-.06,4.29,4.29,0,0,0-.35-.4,2.17,2.17,0,0,0-.29-.17" transform="translate(-64.65)"/><path class="cls-5" d="M161.87,74.7a.14.14,0,0,1-.07.11c-.09,0-.11,0-.12-.11s-.19-.11-.1-.22a2.54,2.54,0,0,0,.28-.72s0,0,.05,0,.08,0,.09.07c.09.32-.14.59-.12.9m-2.13-2.19c0,.13-.2.12-.25.2a1.07,1.07,0,0,0-.05.34.06.06,0,0,1,0,0s0,0-.06,0c-.17-.35-.15-.6.08-.77a.29.29,0,0,1,.33,0,.14.14,0,0,1,.06.11s0,.08-.06.13m-5,3.77c-.06.07-.21.18-.25.15s0-.18,0-.27.15-.23.23-.33a.63.63,0,0,1,.16-.1c0,.07.06.13,0,.16a1.92,1.92,0,0,1-.23.39m12.41,2a.1.1,0,0,0,.06,0c0-.06,0-.09,0-.1s-.2-.18-.22-.33,0-.16-.32-.14-.39,0-.44-.27a.31.31,0,0,0-.18-.21c-.26-.06-.37-.31-.56-.43s-.35-.49-.65-.58c0,0,0-.09,0-.13s.07,0,.11,0c.27,0,.44.2.66.28s.15.15.13.27,0,.17.14.16a1,1,0,0,1,.42.09c.16.07.13-.06.16-.13s0-.06,0-.07.1-.12.15-.12a.24.24,0,0,1,.16.11c0,.05,0,.16.1.17s.31.1.27.33a2,2,0,0,0,0,.36c0,.15.13.13.21.15s.18-.05.17-.17,0-.29,0-.44.07,0,.1,0,.17.15.24.14a3.31,3.31,0,0,0,.61-.21s0-.15,0-.18a.24.24,0,0,0-.38,0c-.07.07-.1.17-.21.06a3.29,3.29,0,0,1-.27-.24.4.4,0,0,1-.07-.2.17.17,0,0,1,0-.13s.11,0,.12,0c.15.33.35.36.62.14,0,0,.13,0,.19.06l.12,0s0-.11,0-.14c-.64-.62-.78-.62-1.42,0,0,0,0,.05,0,.05s-.15,0-.19,0a.25.25,0,0,1-.06-.19c0-.17.16-.24.28-.32s.11-.25.11-.39-.12-.18-.24-.21-.32-.22-.54-.2c-.05,0-.13-.07-.16-.12a.59.59,0,0,0-.47-.32.27.27,0,0,1-.2-.2,3.69,3.69,0,0,0-.5-.76.83.83,0,0,0-.48-.31,1.8,1.8,0,0,1-.33-.14c-.07,0-.1,0-.09,0a.17.17,0,0,0,0,.07c.13.2.1.32-.15.34s-.08.1-.1.16c-.1.28-.1.28.12.48,0,0,0,0,.06,0a.92.92,0,0,1,0,.13H164l-.14,0s-.09-.06-.13-.06,0,.1,0,.16,0,.28-.24.27-.14.09-.12.21,0,.18-.14.16-.35-.07-.42-.26a.26.26,0,0,1,0-.2.89.89,0,0,1,.22-.19c.21-.15.2-.15.3-.57.06-.23.22-.43.2-.69,0,0,.1-.09.15-.12s.22-.27.09-.39-.19-.09-.23-.17-.29-.13-.45-.13-.15.08-.15.12c0,.36-.29.41-.5.54,0,0-.15,0-.19-.09a.27.27,0,0,1,0-.19c.25-.09.1-.48.4-.53,0,0,.06-.07.08-.12a.26.26,0,0,0-.19-.39,3.18,3.18,0,0,1-1.26-.28c-.07,0-.2.08-.18.18s.08.13.08.2,0,.12-.09.17-.08,0-.11-.05,0-.09-.05-.12a.15.15,0,0,0-.24,0c0,.09-.07.18-.12.26s-.08,0-.12,0,0,0,0-.05a.68.68,0,0,0-.18-.67l.42.08s0,0,.06,0,0-.06,0-.07c-.17-.14-.32-.3-.49-.43a.6.6,0,0,1-.33.09A.84.84,0,0,0,160,71l-.21,0a1.2,1.2,0,0,1-.1.27h0c-.15-.24-.23.1-.38,0s-.24.1-.27.25-.05.09-.06.09c-.56-.21-.65.42-1,.59s-.46.56-.68.85l-.72.92s-.07.14-.09.13c-.41-.1-.38.25-.51.46a3.74,3.74,0,0,1-.38.52c-.25.29-.12,0-.14-.09a.17.17,0,0,0-.13,0,2.68,2.68,0,0,0-.25.25l-1.2,1.24a1.31,1.31,0,0,0,.13.14c.1.08.09.15,0,.24s0,.27.07.42.27.19.33.35a.55.55,0,0,1,.43-.1.74.74,0,0,0,.56-.18c-.11-.15-.17-.34-.34-.45s-.08-.17,0-.21l.35-.1a.33.33,0,0,0,.23-.33c0-.07,0-.15,0-.22a.51.51,0,0,1,.44-.49s.15.08.15.12c0,.29.18.4.39.47a6.89,6.89,0,0,0,.78.2,3.27,3.27,0,0,1,.57.12,1.24,1.24,0,0,0,1.06,0c.1,0,.18,0,.19.15a.34.34,0,0,0,.07.2,3.39,3.39,0,0,0,.66.47,2.4,2.4,0,0,0,1.1.39.2.2,0,0,0,.2-.17c0-.15,0-.31-.12-.39s-.31-.31-.46-.47h-.07c-.32,0-.49-.44-.85-.35-.25-.15-.56-.17-.77-.39a.52.52,0,0,0-.27-.1,1.51,1.51,0,0,1-.72-.48.07.07,0,0,1,0-.07s.07-.07.11-.06.33.08.5.1a.49.49,0,0,0,.55-.37,2.07,2.07,0,0,1,.28-.67.17.17,0,0,1,.3,0,.62.62,0,0,0,.44.42,3.23,3.23,0,0,1,.52.27.36.36,0,0,1,.19.3s-.05.1-.07.09c-.26-.06-.51-.12-.77-.2,0,0-.06-.12-.09-.19a.24.24,0,0,0-.24-.14.21.21,0,0,0-.21.16,2.15,2.15,0,0,0-.08.28c-.08.35-.06.39.26.6a.46.46,0,0,0,.26.08s.09-.1.13-.16.07-.08.11-.08.08.1.07.16a.39.39,0,0,0,.23.48,1.21,1.21,0,0,1,.23.18,2.57,2.57,0,0,0,1.07,0,.34.34,0,0,0,.28-.29c0-.14-.1-.15-.17-.21l-.19-.12a.55.55,0,0,1-.1-.1.07.07,0,0,1,0-.06s.05-.09.09-.1c.33,0,.68.05,1-.14.07,0,.13.07.11.14-.08.32.07.46.31.66s.6.22.8.49c0,.05.19,0,.28,0a1.43,1.43,0,0,0,.25-.14.11.11,0,0,1,.14.1c0,.07,0,.15,0,.22a.42.42,0,0,0,.37.47c.09,0,.24.08.28,0s.24-.07.32.08a.73.73,0,0,0,.22.28.51.51,0,0,1,.27.4c0,.06.07.13.12.18a.22.22,0,0,0,.31,0c.12-.18.26-.28.49-.18a.49.49,0,0,0,.21,0" transform="translate(-64.65)"/><path class="cls-5" d="M169.43,74h0v0" transform="translate(-64.65)"/><path class="cls-5" d="M169.21,73.92c-.06-.08-.13-.18-.23-.13a1.24,1.24,0,0,1-.5.21.24.24,0,0,0,0,.07c.08.19.08.42.34.53a4,4,0,0,1,.56.35h.07s0-.09,0-.12-.09-.12-.12-.18,0-.11,0-.13.11,0,.16,0a.2.2,0,0,0,.13,0,.12.12,0,0,0,0-.11c-.06-.15-.13-.29-.2-.44a.17.17,0,0,1-.22-.08" transform="translate(-64.65)"/><path class="cls-5" d="M130.46,110.06a.93.93,0,0,0,0,.2.42.42,0,0,0,.39.22c.05,0,.12-.06.16-.11a.12.12,0,0,0,0-.12,1.15,1.15,0,0,1-.33-.68c-.38.1-.39.13-.28.49" transform="translate(-64.65)"/><path class="cls-5" d="M170.94,73.36v0h0v0h0" transform="translate(-64.65)"/><path class="cls-5" d="M167.29,72h0" transform="translate(-64.65)"/><path class="cls-5" d="M169.57,77.47a.36.36,0,0,0,.11,0s0-.05,0-.06l-.24-.18c-.28-.2-.37-.17-.43.15a1.85,1.85,0,0,0,0,.29c0,.11-.09.15-.19.1a2,2,0,0,0-.78-.21.54.54,0,0,1-.2-.08c-.07,0-.1,0-.09,0a.62.62,0,0,0,0,.14.1.1,0,0,0,0,.05c.09,0,.22,0,.27.08a.68.68,0,0,1,.12.34c0,.21-.11.06-.16.05s-.18,0-.15.16.07.13.09.2,0,.1-.06.1a1.89,1.89,0,0,1-.36-.06c-.11,0-.22-.14-.32-.12s-.1.2-.15.3a.62.62,0,0,1-.08.11c-.1.14-.1.26,0,.31a3.28,3.28,0,0,0,.53.24l.06,0c.6-.57,1.2-1.12,1.83-1.67l-.16-.18a.08.08,0,0,1,0-.07.06.06,0,0,1,0,0l.21,0" transform="translate(-64.65)"/><path class="cls-5" d="M162,78.45c.3,0,.63,0,.89.21,0,0,.14,0,.18-.07a.18.18,0,0,0,0-.26c-.27-.24-.55-.48-.83-.71l-.12-.08a.4.4,0,0,0-.41,0,.38.38,0,0,0-.16.38,1.26,1.26,0,0,0,.09.25.47.47,0,0,0,.37.25" transform="translate(-64.65)"/><path class="cls-5" d="M151.57,95.3l.14-.15h0c-.06,0-.1.08-.11.15" transform="translate(-64.65)"/><path class="cls-5" d="M147.75,98.47a.18.18,0,0,0,.09.22l.47.12.69-.75a2,2,0,0,1-.28-.09.69.69,0,0,0-1,.49" transform="translate(-64.65)"/><path class="cls-5" d="M149,97c-.23.08-.32.31-.48.46s0,.22.08.23l.4,0c.11,0,.14,0,.16.12l.36-.39c-.09-.14-.24-.25-.3-.42s-.13-.08-.23,0" transform="translate(-64.65)"/><path class="cls-5" d="M150.91,94.57a.14.14,0,0,0-.13,0,.79.79,0,0,0-.21.16c-.07.08,0,.17,0,.25.13.24.46.26.57.52,0,0,.1,0,.11-.06a2.12,2.12,0,0,1,.18-.64s-.05-.13-.1-.15-.3,0-.43-.07" transform="translate(-64.65)"/><path class="cls-5" d="M154.5,81.26c.17,0,.3-.32.22-.47s0-.05,0-.07a1.64,1.64,0,0,0-1.05-.42.26.26,0,0,0-.26.21.49.49,0,0,0,0,.34,1.11,1.11,0,0,0,1.09.4" transform="translate(-64.65)"/><path class="cls-5" d="M149.7,96.52h0v0" transform="translate(-64.65)"/><path class="cls-5" d="M149.88,94.35a.26.26,0,0,0,.31,0l.23-.15s0,0,0-.06a.44.44,0,0,0,0-.13c-.09-.19-.18-.38-.28-.55a.2.2,0,0,0-.16-.08,4.31,4.31,0,0,0-.46.1.11.11,0,0,0-.05,0,.09.09,0,0,0,0,.06,1.13,1.13,0,0,0,.42.76" transform="translate(-64.65)"/><path class="cls-5" d="M150.54,96.36c0,.06-.08.11-.15.05l-.15-.14c-.07-.08-.13-.21-.22-.23a.66.66,0,0,0-.3.05c0,.14,0,.28,0,.42s.19.11.24.2a.5.5,0,0,1,0,.3l.77-.83-.07,0a1,1,0,0,0-.13.16" transform="translate(-64.65)"/><path class="cls-5" d="M149.34,96.57a.74.74,0,0,0-.33,0,.07.07,0,0,0-.05,0,.07.07,0,0,0,0,.06c.18.1.35.19.53.27a.33.33,0,0,0,.2,0s.07-.06.07-.08-.05-.21-.08-.31-.22.13-.36,0" transform="translate(-64.65)"/><path class="cls-5" d="M149.51,95.37c.08-.09.15-.05.24,0a.13.13,0,0,0,.12,0s0-.08,0-.11c-.07-.22-.24-.41-.29-.62s-.35-.4-.56-.56c0,0-.09,0-.12,0a.31.31,0,0,0-.15.35c.06.13.13.25.19.37s.08.13,0,.16a.2.2,0,0,1-.13,0c-.12,0-.18-.24-.34-.16a.84.84,0,0,0-.35.22c-.21.31-.51.6-.33,1a.09.09,0,0,1-.11.12,1.47,1.47,0,0,0-.2-.05c-.12,0-.31.12-.31.22a.42.42,0,0,0,.08.25c.14.18.3.35.45.52,0,0,.07,0,.09,0a.19.19,0,0,1,.29-.09.35.35,0,0,0,.32,0,.42.42,0,0,0,.14-.13s0-.08-.06-.1l-.3-.17a1.14,1.14,0,0,1-.16-.13s0-.05,0-.06.07-.07.1-.07a2.12,2.12,0,0,0,.52.08c.17,0,.35-.16.53-.11s.3-.26.51-.27h0a3,3,0,0,1-.23-.39.3.3,0,0,1,.06-.32" transform="translate(-64.65)"/><path class="cls-5" d="M149.68,96.08v0h0v0h0" transform="translate(-64.65)"/><path class="cls-5" d="M150.28,80.25l-.26.27a1.34,1.34,0,0,1,.42.17c.08.07.17,0,.23-.09s.11-.45.17-.68c0,0-.05-.11-.11-.14l-.45.47" transform="translate(-64.65)"/><path class="cls-5" d="M165.74,81.14l0,.07.46-.46a.65.65,0,0,0-.2,0c-.28,0-.4.18-.3.43" transform="translate(-64.65)"/><path class="cls-5" d="M164.82,78.43c.27-.25.23-.5-.07-.71a.42.42,0,0,0-.47,0c-.13.06-.27.09-.4.15a.13.13,0,0,0,0,.12c.09.11.18.21.26.29s.09.27.23.29a.55.55,0,0,0,.48-.08" transform="translate(-64.65)"/><path class="cls-5" d="M165.57,80.14a1.93,1.93,0,0,0-.72-.7.25.25,0,0,0-.32.07l-.07.12c-.09.17-.07.3.06.38a7.16,7.16,0,0,0,.63.36.64.64,0,0,0,.28,0,.19.19,0,0,0,.15-.27" transform="translate(-64.65)"/><path class="cls-5" d="M150.33,81.48h0" transform="translate(-64.65)"/><path class="cls-5" d="M150.6,81.86h0l0,0v0l0,0" transform="translate(-64.65)"/><path class="cls-5" d="M150.63,81.22c.1,0,.2-.1.3-.17a.06.06,0,0,0,0-.1c-.21,0-.43,0-.64.05a.37.37,0,0,0-.17.12.12.12,0,0,0,0,.11l.25.24c.1-.09.12-.24.3-.25" transform="translate(-64.65)"/><path class="cls-5" d="M146.48,95.8a.24.24,0,0,0,.31,0,.46.46,0,0,0,.14-.29,1,1,0,0,0-.67-.87c-.14-.07-.4.11-.41.27a.2.2,0,0,0,0,.07,1.53,1.53,0,0,0,.63.86" transform="translate(-64.65)"/><path class="cls-5" d="M145.18,97.13a.6.6,0,0,0-.26-.6c-.25-.14-.46-.38-.78-.38S144,96,144,95.92a.39.39,0,0,0,0-.26,6.16,6.16,0,0,0-.48-.66,1,1,0,0,0-.3-.16.16.16,0,0,0-.23.07c-.05.09-.14.18-.06.31s.14.23.21.35.19.31.27.47.45.24.49.54c0,0,.06.07.1.08.2,0,.21.19.26.35a3.78,3.78,0,0,0,.25.53,1.13,1.13,0,0,0,.51-.12.35.35,0,0,0,.17-.28" transform="translate(-64.65)"/><path class="cls-5" d="M164.73,81.41c0,.05-.09.1-.08.13s0,.35.14.46l.14.09.52-.54a.73.73,0,0,0-.53-.21.54.54,0,0,0-.19.06" transform="translate(-64.65)"/><path class="cls-5" d="M144.5,97.53h0v0h0v0" transform="translate(-64.65)"/><path class="cls-5" d="M145.46,95.42a.11.11,0,0,0-.17,0l-.28.19,0,.05.07.11a3.41,3.41,0,0,0,.17.37c.07.11.17.2.25.32s.15.19.3,0,.1-.1,0-.18a1.24,1.24,0,0,0-.21-.26.29.29,0,0,1-.1-.42.22.22,0,0,0,0-.18" transform="translate(-64.65)"/><path class="cls-5" d="M139.06,98.1S139,98,139,98l.2-.24a.8.8,0,0,1,.09.1c-.07.08-.14.16-.22.24m-1.19,1.18a.27.27,0,0,1-.28-.14.13.13,0,0,1,0-.11s.08,0,.11-.07.22,0,.3,0,.14-.17.21-.25h.06s0,0,0,0c0,.36-.18.55-.45.57m-.63-2.81a2.42,2.42,0,0,0-.58.43h-.06s0-.07,0-.1c.09-.29.41-.4.55-.66a.13.13,0,0,1,.11,0c.09,0,.07.08,0,.15s.1.18,0,.23M147.8,99c-.08-.16-.17-.27-.37-.16a.31.31,0,0,1-.13,0,.15.15,0,0,1-.18-.16.27.27,0,0,0-.14-.22l-.51-.34a.13.13,0,0,1,0-.12s.11-.11.15-.1a.59.59,0,0,1,.39.25c.12.17.27.13.42,0s.21-.09.14-.25.07-.22.08-.32a.33.33,0,0,0-.06-.26,3.43,3.43,0,0,0-1-.65.41.41,0,0,0-.48.13.33.33,0,0,0,0,.44c.08.11.18.21.27.31s0,.09,0,.11,0,0-.06,0l-.35-.21a.39.39,0,0,0-.55,0,.34.34,0,0,0-.08.36,2.85,2.85,0,0,1,.15.39.21.21,0,0,1-.15.27c-.25.09-.38.23-.26.52s-.06.28-.18.33a.49.49,0,0,0-.35.53.13.13,0,0,1-.17.15.41.41,0,0,0-.52.2,2.5,2.5,0,0,1-.27.31c-.07.07-.13,0-.17,0s0-.09,0-.12a3.41,3.41,0,0,0,.49-.83.26.26,0,0,1,.15-.14c.39-.14.43-.44.36-.79a1.53,1.53,0,0,0,0-.2c0-.11,0-.17.11-.2s.14-.21.15-.37-.12-.29-.09-.44a.51.51,0,0,1-.4-.13.7.7,0,0,0-.54-.14,1.43,1.43,0,0,0,0,.53c0,.1,0,.18-.12.16l-.33-.09a.31.31,0,0,0-.35.15c0,.06-.06.13-.1.18a.48.48,0,0,1-.6.17.19.19,0,0,1-.06-.17.43.43,0,0,0-.07-.57,6.49,6.49,0,0,0-.52-.55,3.27,3.27,0,0,1-.39-.38,1.17,1.17,0,0,0-.83-.56c-.1,0-.13-.11-.08-.21a.32.32,0,0,0,0-.19,3.21,3.21,0,0,0-.29-.7,2.24,2.24,0,0,0-.68-.86.19.19,0,0,0-.24,0c-.11.1-.18.23-.1.37a1.54,1.54,0,0,1,.13.6l.06,0c.24.18.17.6.51.71.13.24.36.42.42.7a.48.48,0,0,0,.17.21,1.43,1.43,0,0,1,.33.74s0,.06,0,.06-.09,0-.12,0-.22-.23-.35-.33a.46.46,0,0,0-.62,0,2,2,0,0,1-.56.39c-.1,0-.25-.06-.22-.18a.58.58,0,0,0-.14-.56,3.07,3.07,0,0,1-.28-.47.34.34,0,0,1,0-.33s.09-.05.1,0c.17.18.35.35.51.54,0,0,0,.13,0,.19a.23.23,0,0,0,.12.23.2.2,0,0,0,.25,0,2.1,2.1,0,0,0,.2-.19c.24-.24.25-.28.1-.6a.42.42,0,0,0-.16-.19s-.12,0-.19.06-.1,0-.13,0,0-.12,0-.16a.36.36,0,0,0,.05-.5,1.08,1.08,0,0,1-.09-.26,2.41,2.41,0,0,0-.87-.52.32.32,0,0,0-.37.1c-.08.1,0,.17,0,.25s.07.12.09.19a.51.51,0,0,1,0,.13s0,.05,0,.06-.09,0-.12,0c-.29-.13-.51-.38-.86-.39-.08,0-.06-.12,0-.16l0,0-.39.4a.29.29,0,0,1,0,.17.26.26,0,0,1-.09.17.85.85,0,0,1-.27,0h0l-1.36,1.38c0,.14.18.16.29.23s.16,0,.17,0c.16-.3.43-.18.67-.18,0,0,.1.1.11.16a.25.25,0,0,1-.07.16c-.24-.05-.32.33-.59.22,0,0-.08,0-.12,0a.24.24,0,0,0,0,.41A3,3,0,0,1,136,99c0,.07.2,0,.23-.05s0-.15,0-.2.1-.07.16-.09.05.06.06.09,0,.09,0,.13a.14.14,0,0,0,.21.09,2.56,2.56,0,0,1,.23-.15s.08,0,.12,0a.08.08,0,0,1,0,.06.64.64,0,0,0-.19.62l-.29-.27a.07.07,0,0,0-.06,0s0,0,0,0c.12.36.13.76.53,1,.15.08.24.27.36.4s.14,0,.15-.09a1.44,1.44,0,0,0,0-.21c.13.06.25.11.37.17a.17.17,0,0,1,0,.29c-.06,0-.14,0-.2.05a.24.24,0,0,0-.06.36c.06.09.16.1.29,0a.52.52,0,0,1,.17-.07s.07,0,.1.08,0,.08,0,.11-.16.06-.17.18a2.75,2.75,0,0,0,.18.72.1.1,0,0,0,0,0,.67.67,0,0,0,.47,0c.1,0,.1-.14.12-.23s0-.15.13-.1.31,0,.46-.07.07.07.06.09-.13.37-.32.43-.14.37-.26.51c0,0,.07.05.1,0s.21-.09.31,0,.26.26.39.39.15.13.34,0,.26-.07.31.09.07.35.34.34c.11,0,.21.15.13.32a.29.29,0,0,0,0,.33c.26.25.51.52.77.77l.09.06a3.44,3.44,0,0,1,.88-.74c.16-.09.25-.32.38-.49s.1-.17.13-.16c.23,0,.27-.13.31-.28a2.73,2.73,0,0,1,.91-1.16.35.35,0,0,1,.2-.1,1.6,1.6,0,0,0,1.18-.69l1.62-1.8.73-.79a.16.16,0,0,1-.21-.1" transform="translate(-64.65)"/><path class="cls-5" d="M163.53,79a2,2,0,0,0,.19.15.56.56,0,0,0,0,.11c.07.13.16.17.27.13a.25.25,0,0,0,.12-.3.35.35,0,0,0-.06-.13.87.87,0,0,0-.54-.33.14.14,0,0,0-.11.05.17.17,0,0,0,0,.13.55.55,0,0,0,.12.17" transform="translate(-64.65)"/><path class="cls-5" d="M134.22,102.44s-.08.13-.06.16a2.14,2.14,0,0,0,.68.84.49.49,0,0,0,.13,0s.1,0,.13,0a3.68,3.68,0,0,0,.95-.76c.14-.19.17-.29,0-.49s-.4-.5-.6-.75a.14.14,0,0,0-.23,0,.27.27,0,0,1-.3.2.35.35,0,0,0-.24.08,3.18,3.18,0,0,0-.28.36c.1.22,0,.27-.2.3" transform="translate(-64.65)"/><path class="cls-5" d="M154.94,80l.14-.33a.34.34,0,0,0,0-.07l-.12-.07a3.68,3.68,0,0,0-.36-.24c-.13-.06-.27-.09-.4-.14s-.25-.08-.28.16c0,.07,0,.15.07.18a1.31,1.31,0,0,0,.34.12c.22,0,.29.13.32.32a.24.24,0,0,0,.12.15c.07,0,.13,0,.17-.08" transform="translate(-64.65)"/><path class="cls-5" d="M162.17,79.39s.05,0,.07,0a.07.07,0,0,0,0-.07l-.12-.23a2.29,2.29,0,0,0-.25-.28s-.14,0-.2,0-.11.15-.08.24c.1.27.33.31.57.35" transform="translate(-64.65)"/><path class="cls-5" d="M162.25,81a2.31,2.31,0,0,1,.3.3.57.57,0,0,0,.45.18h.07a.4.4,0,0,0,0-.14.79.79,0,0,0-.72-.69.34.34,0,0,0-.24.12c-.07.09,0,.16.1.23" transform="translate(-64.65)"/><path class="cls-5" d="M164,80.9a.65.65,0,0,0,.24-.13s0,0,0-.07,0,0,0-.06l-.52-.38s-.06,0-.07,0,0,.08,0,.11a3.63,3.63,0,0,1,.17.39.18.18,0,0,0,.21.14" transform="translate(-64.65)"/><path class="cls-5" d="M143.55,97.28v0h0v0h0" transform="translate(-64.65)"/><path class="cls-5" d="M141.64,95.92s-.13-.09-.16-.08a1.83,1.83,0,0,0-.33.22c-.07.05,0,.16,0,.24s.32.12.49.13a.73.73,0,0,1-.06.12.25.25,0,0,0,0,.37,5.74,5.74,0,0,1,.72.8.27.27,0,0,0,.41,0,1.47,1.47,0,0,0,.13-.3c.07-.19.11-.21.29-.18l.38.05a.54.54,0,0,1,0-.11c.11-.28.1-.39-.07-.55a.8.8,0,0,0-.22-.16.71.71,0,0,1-.47-.54.81.81,0,0,0-.43-.51.35.35,0,0,0-.25,0,.42.42,0,0,0-.17.35c.13.27.26.54.61.59.1,0,.14.1.18.18l.13.31c0,.05.11.11,0,.16a.3.3,0,0,1-.19,0,.72.72,0,0,1-.3-.15c-.13-.12-.23-.28-.35-.42a.26.26,0,0,0-.31-.07c0-.15.06-.33-.08-.45" transform="translate(-64.65)"/><path class="cls-5" d="M138.72,94a.36.36,0,0,0,.32-.23,1.2,1.2,0,0,0,.05-.24.45.45,0,0,0-.17-.38l-.17-.11-.49.5.05.17a.44.44,0,0,0,.06.12.38.38,0,0,0,.35.17" transform="translate(-64.65)"/><path class="cls-5" d="M137.76,94.25c.22-.07.22-.08.17-.28l0-.1-.64.65h0s.12.1.16.09.25,0,.24-.17,0-.15.1-.18" transform="translate(-64.65)"/><path class="cls-5" d="M140.91,94.82a.39.39,0,0,0-.48.14.32.32,0,0,0,0,.33.75.75,0,0,0,.47.29s.12-.05.15-.1a.89.89,0,0,0,.12-.31.33.33,0,0,0-.26-.35" transform="translate(-64.65)"/><path class="cls-5" d="M144.83,94.43a2.12,2.12,0,0,0-.42-.2c-.15,0-.45.2-.46.35a.19.19,0,0,0,0,.13c.18.18.35.35.54.52a.51.51,0,0,0,.18.07.64.64,0,0,0,.14,0,.68.68,0,0,0,.24-.4s0-.09-.06-.09-.24-.09-.18-.26c0,0,0-.06,0-.07" transform="translate(-64.65)"/><path class="cls-5" d="M139.5,92.82a.46.46,0,0,0-.15-.44l-.14.16-.1.1a1.39,1.39,0,0,0,0,.24s.1.08.16.1.16-.07.18-.15" transform="translate(-64.65)"/><path class="cls-5" d="M180.37,116.05a1,1,0,0,0-.27.47.65.65,0,0,0,.07.55c.05.07.12,0,.18-.09s.22-.38.07-.54,0-.23,0-.39" transform="translate(-64.65)"/><path class="cls-5" d="M180.39,117.25a.41.41,0,0,0-.14.25c0,.12,0,.16.1.17a.46.46,0,0,1,.32.35c0,.13.11.21.24,0a.7.7,0,0,0,.15-.53,1,1,0,0,0-.21-.45c-.15-.19-.31,0-.47.19" transform="translate(-64.65)"/><path class="cls-5" d="M180.29,118c-.1.46-.1.77,0,.8s.08,0,.11-.09a.71.71,0,0,0-.09-.74l0,0" transform="translate(-64.65)"/><path class="cls-5" d="M176.55,128.14a.43.43,0,0,0-.09.2l.14.05h0s0-.06,0-.08,0-.22-.07-.17" transform="translate(-64.65)"/><path class="cls-5" d="M174,127.28a1.58,1.58,0,0,0,0,.18h0l0,.09v0a1,1,0,0,0,.07.15v0l.1.13v0l.07.06a2.82,2.82,0,0,1,.17-.67,1.32,1.32,0,0,0,.13-.5,3.67,3.67,0,0,0-.1-.8c-.06-.18-.19.13-.29.19l-.05.06a4.72,4.72,0,0,0-.18,1.05" transform="translate(-64.65)"/><path class="cls-5" d="M177.19,126.59c0-.08-.08,0-.14.13a1.26,1.26,0,0,0-.08.79c0,.07.08.14.16-.05a1.93,1.93,0,0,0,.06-.86" transform="translate(-64.65)"/><path class="cls-5" d="M179.33,128.23h0a.06.06,0,0,0,0,0l0,0,0,.11h0v0" transform="translate(-64.65)"/><polyline class="cls-5" points="109.73 124.37 109.74 124.37 109.74 124.36 109.73 124.37"/></g><path class="cls-5" d="M174.38,124.37h0Z" transform="translate(-64.65)"/><g class="cls-2"><path class="cls-5" d="M174.33,124.86c.13.26.22.65.47.72a3,3,0,0,0-.41-1.21.89.89,0,0,0-.06.49" transform="translate(-64.65)"/><path class="cls-5" d="M174.53,123.8c0-.17-.15-.06-.24,0a1.93,1.93,0,0,0-.35,1.3,1.46,1.46,0,0,1,0,.33c-.1.59,0,.69.19.74l.05-.06a2.15,2.15,0,0,0,0-.86,1.31,1.31,0,0,1,.16-.94h0a.7.7,0,0,0,.14-.57" transform="translate(-64.65)"/><path class="cls-5" d="M181,118.48c0-.14,0-.22-.12-.17s-.14.19-.18.33a5.73,5.73,0,0,1-.69,1.51,1.27,1.27,0,0,0-.26,1,.8.8,0,0,1-.14.66.8.8,0,0,0-.14.67l.09,0a4.27,4.27,0,0,0,1.13-2.33,1.06,1.06,0,0,1,.08-.34c.33-.53.16-.84.24-1.25" transform="translate(-64.65)"/><path class="cls-5" d="M179.63,110.26a.8.8,0,0,0,0,.58c.07.08.15,0,.19-.23a.57.57,0,0,0-.08-.54s-.1,0-.14.19" transform="translate(-64.65)"/><path class="cls-5" d="M175.24,103.92c-.2-.56-.67-.83-1-.6a1.28,1.28,0,0,0-.19,1.51c.12.32.25.63.37.94s.17.45.07.6a3.89,3.89,0,0,0-.31,1.28c-.18.71-.17.71.45,1.35h0a1.6,1.6,0,0,1,.71-.27.62.62,0,0,0,.33-.89,4.36,4.36,0,0,1-.13-2,4.25,4.25,0,0,0-.32-1.93" transform="translate(-64.65)"/><path class="cls-5" d="M179.75,108.59a.93.93,0,0,0-.06-.69c-.07-.07-.17,0-.21.23a1.56,1.56,0,0,0,.05.79c.1.06.17-.1.22-.33" transform="translate(-64.65)"/><path class="cls-5" d="M179.46,122.85c.07,0,.13,0,.08.24a10.82,10.82,0,0,0-.15,2.18,4.49,4.49,0,0,1-.2,1.25,3.32,3.32,0,0,0-.08,1.38c.21-.15.24-.06.22.11l.14.07h0l.07,0,0,0,.08.07a.15.15,0,0,1,0,.1.51.51,0,0,1,0,.09l0,.07h0l-.18.05h0l-.17,0a1.54,1.54,0,0,0,0,.23h.8l.07,0,.11-.08s.05-.06,0-.08a.43.43,0,0,1,0-.11v0l0-.06v0l0,0h0l.06,0a2.14,2.14,0,0,0-.08-.72,2.47,2.47,0,0,1-.06-1.44,12.39,12.39,0,0,0,.21-2.74,3.63,3.63,0,0,0-.14-.89c-.09-.45-.45-.21-.75-.09l-.09,0c-.11.23-.14.38,0,.4" transform="translate(-64.65)"/><path class="cls-5" d="M179.41,106.37c.13.11.26,0,.37-.34a.81.81,0,0,0,0-.6c-.12-.23-.25-.08-.38-.07l0,.07c-.06.44,0,.82.1.94" transform="translate(-64.65)"/><path class="cls-5" d="M177,79.8c.05.1.14.2.25.18a.18.18,0,0,0,.14-.23,2,2,0,0,0-.25-.83c-.11.28-.31.53-.14.88" transform="translate(-64.65)"/><polyline class="cls-5" points="117.78 81.51 117.77 81.51 117.78 81.51 117.78 81.51"/><path class="cls-5" d="M173.49,106.86a.81.81,0,0,0-.25-.68,1.26,1.26,0,0,0,0,.16v0a1.08,1.08,0,0,0,.07.15,1,1,0,0,0,0,.17v0a1,1,0,0,0,0,.13v0a1.48,1.48,0,0,0,0,.16v0s0,.09,0,.14v0l.07.3c0-.23.05-.47.08-.71" transform="translate(-64.65)"/><path class="cls-5" d="M181.19,124.51c-.07,0-.15.06-.23.16a1.9,1.9,0,0,0-.07.18c-.1.35,0,.75.2.72s.21-.12.28-.29,0-.75-.18-.77" transform="translate(-64.65)"/><path class="cls-5" d="M183.73,69.26a.51.51,0,0,0-.29-.59c-.13-.06-.25-.09-.29.08a.82.82,0,0,0,.38.65c.12,0,.18,0,.2-.14" transform="translate(-64.65)"/><path class="cls-5" d="M183.41,69.76c-.14-.06-.22,0-.27.14s-.14.34-.2.52-.15.39.07.56.35,0,.45-.14a1.31,1.31,0,0,0,.09-.2,1.07,1.07,0,0,0,0-.58.38.38,0,0,0-.19-.29" transform="translate(-64.65)"/><path class="cls-5" d="M181.82,112.35c-.11,0-.09-.24,0-.46a1.32,1.32,0,0,0,.07-.52c0-.11-.07-.17-.14-.13a.38.38,0,0,0-.13.2,1.19,1.19,0,0,0,0,.18,12.71,12.71,0,0,0,0,1.62,1.24,1.24,0,0,1-.06.63.94.94,0,0,0,0,.81,1.21,1.21,0,0,1,.12.7,3.24,3.24,0,0,0,.15,1c.05.22.16.21.3,0a.92.92,0,0,0,.11-1,1,1,0,0,1-.1-.87c0-.16.08-.39,0-.47s-.06-.53,0-.86.1-.83-.19-.82" transform="translate(-64.65)"/><path class="cls-5" d="M181.57,110.43c-.08.2-.08.4,0,.45s.19-.16.27-.32.08-.31,0-.37-.19,0-.28.24" transform="translate(-64.65)"/><path class="cls-5" d="M181.34,107c-.11,0-.2.13-.24.45s0,.52.16.54.2-.16.3-.27a.47.47,0,0,0,.12-.33.33.33,0,0,0-.1-.31,1.46,1.46,0,0,0-.24-.09" transform="translate(-64.65)"/><path class="cls-5" d="M173.13,103.14c0,.38,0,.76,0,1.14,0,0,0,0,0,0s0,.13,0,.2v.07c0,.08,0,.17,0,.25v.1a4.47,4.47,0,0,0-.07-1.81" transform="translate(-64.65)"/><path class="cls-5" d="M180.82,113.06a.32.32,0,0,0-.08.22c0,.35,0,.7.07,1,0,0,0,.07,0,.09s.14,0,.2-.11a.68.68,0,0,0,.08-.51,2.76,2.76,0,0,1-.22-.7c0-.07-.05-.09-.1,0" transform="translate(-64.65)"/><path class="cls-5" d="M175.5,128l.15.09c0-.15-.07-.17-.16-.21l0,.09,0,0" transform="translate(-64.65)"/><polyline class="cls-5" points="110.85 127.92 110.84 127.92 110.84 127.92 110.85 127.92"/><polygon class="cls-5" points="110.85 127.92 110.84 127.92 110.84 127.92 110.85 127.92"/><path class="cls-5" d="M177.53,124.69a2,2,0,0,0,.22-.78c0-.1,0-.19-.06-.13a1.84,1.84,0,0,0-.24.59l-.11.33a.33.33,0,0,0,0,.21c0,.06.12-.08.19-.22" transform="translate(-64.65)"/><path class="cls-5" d="M178.26,116.63c-.08.15-.16.19-.23.12a.33.33,0,0,1-.06-.43c.06-.13.17-.26.27-.21s.1.35,0,.53m1.08,5.18c.19-.32,0-.42,0-.58a.33.33,0,0,0-.07-.14c-.11-.16-.12-.4.09-.8s.21-.54.08-.67-.05-.31,0-.54a1.68,1.68,0,0,0,.14-.45,15.48,15.48,0,0,0,.11-2.17,4,4,0,0,1-.38.35c-.27.19-.39,0-.29-.45a1.89,1.89,0,0,0,.13-.64.84.84,0,0,1,.14-.59.36.36,0,0,0,.07-.27c0-.08-.08,0-.14,0-.34.1-.66,0-1.07.45a.06.06,0,0,1-.07,0c-.2-.13-.49,0-.71-.14s-.58-.4-1-.33-.49.18-.52.58a3.06,3.06,0,0,0,0,.88,7.92,7.92,0,0,1,0,2.47,4.34,4.34,0,0,0,0,1.21,2.19,2.19,0,0,1-.16,1.07c-.07.19-.16.33-.25.27s-.2-.09-.12-.38a6.78,6.78,0,0,0,.13-1.09c0-.13,0-.28,0-.32-.3-.15-.23-.65-.38-1s0-1-.35-1.22a.17.17,0,0,1,0-.15,1.17,1.17,0,0,0,0-.8c0-.16,0-.32.23-.38s.36-.35.52-.54,0-.19,0-.21-.18-.16-.29-.08-.07.37-.26.49a.22.22,0,0,1,0-.34A.93.93,0,0,0,175,115a4.18,4.18,0,0,1,.77-1.61.71.71,0,0,0,.13-.61c0-.1-.05-.2-.08-.31a4.41,4.41,0,0,1-.12-2.42.66.66,0,0,0-.5-.81,1.93,1.93,0,0,0-.45.07h0c-.4.32-.32.8-.32,1.22a6.86,6.86,0,0,0,.33,1.52c0,.11.09.2,0,.32a1.73,1.73,0,0,0-.55,1.52.77.77,0,0,1-.07.28c-.07.22-.1.42.11.53s.12.16,0,.28a10.88,10.88,0,0,1-.71,1.12q0,3.35.09,6.7a3,3,0,0,1,.08.8.52.52,0,0,0,.12.36c.13.2.22.12.32-.31,0-.13,0-.22.11-.25.39-.11.54-.89.74-1.38s.2-.6.4-.36.18.06.27.1.14.13,0,.39-.14.33-.09.39.07.78.38.45c-.06.31-.25.47-.23.65,0,.36-.14.87-.11,1.26a2.62,2.62,0,0,1-.22,1.24,2.76,2.76,0,0,0-.2,1.68.2.2,0,0,0,.07.13h0a.42.42,0,0,0,.15,0,2.62,2.62,0,0,0,.23-.48,5.37,5.37,0,0,1-.06-1.08c.14-.16.27-.32.39-.44s.28.19.19.43a3,3,0,0,0-.12,1.37c0,.25.07.29.17.14a.76.76,0,0,0,.23-.44c0-.29-.07-.22-.1-.33l0-.11a3.1,3.1,0,0,0,.23-1.3,4.71,4.71,0,0,1,.15-1.21,16.74,16.74,0,0,0,.45-3.13,3,3,0,0,1,.34-1.48,1.61,1.61,0,0,0,.22-.79c0-.1,0-.24-.07-.25s-.14.13-.19.25a1.2,1.2,0,0,1-.22.35c0,.05-.1.12-.13.06s0-.14.06-.22c.23-.39.23-.39.1-.65s-.11-.35-.22-.39-.12-.3,0-.53.21-.47.32-.7a.47.47,0,0,1,.17-.2c.05,0,.11-.06.14,0s0,.14-.06.2-.19.14-.17.33.14,0,.21,0c.33,0,.52.16.51.72a11.71,11.71,0,0,1-.07,2.06c0,.21,0,.32.15.13s.16-.13.13.05,0,.22-.06.41c0,0-.05,0-.07,0s-.09-.12-.18.08-.06.29,0,.34.21.16,0,.75a1.07,1.07,0,0,1-.18.4c-.06,0,0-.14-.07-.21s-.09,0-.15.11a1.49,1.49,0,0,0-.07.85c.07.19.18-.11.28-.29s.34-.58.4-.24a8.31,8.31,0,0,0-.44,1.52c-.06.39-.13.79-.24,1.24a5,5,0,0,0-.22,2.4.62.62,0,0,1-.09.38,1,1,0,0,0-.18.59s0,0,0,.06l.06,0,.09,0h.26a3.27,3.27,0,0,0,.17-.4c.08-.23.18-.47.28-.44s.14.15.11.4,0,.37,0,.55h0l.09,0,.06,0a.41.41,0,0,0,0-.08l0-.08,0-.06h0l.1,0h.07a.16.16,0,0,1,.11.06h0l.06.09h0l.07.06a1.42,1.42,0,0,0,0-.27,9.09,9.09,0,0,1-.1-1.46,8.63,8.63,0,0,0,.12-1.85,13.32,13.32,0,0,0,.23-2.79c0-.28-.06-.39-.27-.06-.06.09-.11.15-.15.14s.13-.23.18-.35c.26-.63.26-.63.46-.44l.05,0c.08,0,.06.41.21.15" transform="translate(-64.65)"/><path class="cls-5" d="M174.4,78c-.08-.08-.18-.14-.12-.28.22-.47-.21-.62-.37-.9h0c0,.28,0,.56,0,.85s0,.51,0,.76a.71.71,0,0,1,.36-.15c.19,0,.22-.18.13-.28" transform="translate(-64.65)"/><path class="cls-5" d="M174.13,75.41a.23.23,0,0,1-.09-.07,2.54,2.54,0,0,1-.14.28c0,.18,0,.36,0,.53a.64.64,0,0,0,.2-.18c.16-.22.23-.45,0-.56" transform="translate(-64.65)"/><path class="cls-5" d="M173.54,113l.08,0c.27-.16.25-.4.06-.69l-.12-.2c0,.31,0,.63,0,.94" transform="translate(-64.65)"/><path class="cls-5" d="M173.71,81.75c0,.14,0,.29-.07.43a.44.44,0,0,1,0,.09l0,.08c0,.07,0,.15,0,.22a2.4,2.4,0,0,0,.53-.45.49.49,0,0,0,0-.68.54.54,0,0,1-.07-.28,1.11,1.11,0,0,0-.26-.8.36.36,0,0,1,0,0,.9.9,0,0,0-.05.23,1.13,1.13,0,0,0,0,.12c0,.15,0,.31,0,.46s0,.08,0,.11,0,.29,0,.43" transform="translate(-64.65)"/><path class="cls-5" d="M173.58,110.55s0,.06,0,.1a.17.17,0,0,0,0-.19s0,.07,0,.1" transform="translate(-64.65)"/><path class="cls-5" d="M173.37,108.67h0v.13c.07-.12.12-.22.1-.27a2,2,0,0,1-.06-.24.4.4,0,0,0-.07.38" transform="translate(-64.65)"/><path class="cls-5" d="M179.06,73.18c-.16-.23-.08-.46-.23-.64s.06-.17.13-.19.2-.2.21-.39a6.74,6.74,0,0,0,0-.87c0-.1,0-.2.12-.26a3.45,3.45,0,0,1-.25,2.34m.51-.28a.35.35,0,0,1,.06-.3,1.68,1.68,0,0,0,.16-1.05,4,4,0,0,1,0-1.1,5.4,5.4,0,0,0,0-.76.75.75,0,0,0-.59-.79,4.66,4.66,0,0,1-.6-.27c-.1,0-.28-.11-.27,0,0,.4-.32.45-.43.72a.47.47,0,0,0,.18.57c.16.14.33.25.52.4-.08.16-.28,0-.34.12.28.19.14.42.22.64-.4,0-.54.08-.38.43s-.08.58.09.87c-.24.32-.07.7-.1,1s.46.3.46.61c0,0,.11.1.17.14a.21.21,0,0,0,.25,0c.29-.35.71-.63.56-1.22" transform="translate(-64.65)"/><path class="cls-5" d="M181.42,71.08a.53.53,0,0,1,0-.59,1.2,1.2,0,0,0,.18-.72,2.65,2.65,0,0,1,0-.86.32.32,0,0,0-.15-.35,3.31,3.31,0,0,1-.56-.45c-.16-.12-.31-.17-.41-.06a.36.36,0,0,0,0,.47,1.39,1.39,0,0,0,.35.49c.09.07.2.14.11.3-.3-.31-.54-.25-.69,0s0,.54.09.81.41.13.6.36c0,.1-.13.07-.21.07-.47,0-.54.07-.49.61a5.8,5.8,0,0,0,.08,1.16.48.48,0,0,1-.06.32,1,1,0,0,0,.51,1.35c.17.1.28.07.37-.09a1.87,1.87,0,0,0,.2-.92.93.93,0,0,1,.16-.64,1,1,0,0,0,0-1.22" transform="translate(-64.65)"/><path class="cls-5" d="M181.84,70.06a.38.38,0,0,0,.17.4c.16.11.25,0,.29-.12a1.6,1.6,0,0,0,.06-.94.92.92,0,0,0-.53.66" transform="translate(-64.65)"/><path class="cls-5" d="M178.57,80.28c.1-.07.17-.2.27-.26l.1,0-.12-.2a1.57,1.57,0,0,1-.21-1.24l0-.09a.57.57,0,0,0,0-.22h0a3.25,3.25,0,0,0,0-.35h0a.42.42,0,0,0-.26-.34,1,1,0,0,0-.25-.07c-.19,0-.43-.06-.5.16a1.33,1.33,0,0,0,0,1,1.11,1.11,0,0,1,.08.71,6.61,6.61,0,0,0,.06,1.25.7.7,0,0,0,.38.69c.07,0,.1.09.13.19.1.32.12.34.23.14a.61.61,0,0,1,.19-.21c.27-.21.24-.46-.08-.7l0,0h0a.57.57,0,0,1-.32-.34c.19.11.31.09.4,0" transform="translate(-64.65)"/><path class="cls-5" d="M182.56,65.69c0-.08-.12-.18-.23-.2s-.15.08-.1.18c.16.34.1.53-.13.68s-.21.39-.07.72a3.76,3.76,0,0,1,.45,1.09.53.53,0,0,0,.2-.52.85.85,0,0,1,0-.53c.23-.41-.15-1-.16-1.43" transform="translate(-64.65)"/><path class="cls-5" d="M180.86,80.75a1.14,1.14,0,0,1,.2.5c0,.18.15.33.28.34s.21-.15.16-.35-.11-.58-.16-.86-.23-.45-.42-.36l-.08,0c-.07.05-.13.12-.18.16a.33.33,0,0,0,.06.37,1.13,1.13,0,0,1,.14.16" transform="translate(-64.65)"/><path class="cls-5" d="M178.91,74.82c-.3,0-.45-.16-.44-.46a.19.19,0,0,0-.16-.2.23.23,0,0,0-.27.12c0,.05-.05.11-.12.23a1,1,0,0,0-.11.39,5.75,5.75,0,0,1-.09,1.19,2,2,0,0,0,0,.59c0,.21.22.26.39.13a1.93,1.93,0,0,0,.39-.41l.08-.14.19-.39a3.29,3.29,0,0,1,.34-.52.31.31,0,0,0-.21-.51" transform="translate(-64.65)"/><polygon class="cls-5" points="117.77 81.51 117.78 81.52 117.78 81.51 117.77 81.51"/><path class="cls-5" d="M184.21,68.14c0-.4.1-.81.15-1.21h0v-.12l0-.23a1,1,0,0,1-.2.17s-.07,0-.11,0-.12-.22-.19-.33-.34-.49-.64-.51-.36.19-.3.56a3,3,0,0,0,.22,1.13.26.26,0,0,1,0,.27c-.18.25.08.41.24.58s.19.18.3.13a.18.18,0,0,0,.08-.23c-.2-.44.1-.55.31-.72.1.07,0,.14.05.21A.83.83,0,0,1,184.21,68.14Z" transform="translate(-64.65)"/><path class="cls-5" d="M180.85,74.44c0-.21-.1-.31-.23-.42s-.26-.21-.37,0,0,.29.12.39l.12.06c.11-.1.24.06.36,0" transform="translate(-64.65)"/><polyline class="cls-5" points="115.83 74.42 115.83 74.42 115.83 74.43 115.84 74.42 115.83 74.42"/><path class="cls-5" d="M180.31,77c.37.13.35-.19.32-.38a6.61,6.61,0,0,1,.14-1.45c0-.33,0-.57-.29-.76a.91.91,0,0,1-.24.17c-.41.13-.52.46-.51.86a1.7,1.7,0,0,1-.11.57l0,.07a2.15,2.15,0,0,0-.11.87,1.6,1.6,0,0,0,0,.2l0,.11c0,.12.06.23.08.35a.66.66,0,0,1-.18.66.4.4,0,0,0-.06.42c.07.2.06.29-.12.32s-.08.13,0,.21a.61.61,0,0,1,.17.75,1.29,1.29,0,0,0,0,.8l.05.17v0a1,1,0,0,0,.68.7c.17,0,.28-.07.32-.32a1.55,1.55,0,0,0,0-.27,1.09,1.09,0,0,0-.06-.44v0a.87.87,0,0,1,0-.85,1.2,1.2,0,0,0,.05-.89,2.15,2.15,0,0,0-.39-.85c.35-.09.41-.25.28-.58,0-.1-.11-.18-.15-.27s-.06-.16,0-.13" transform="translate(-64.65)"/><path class="cls-5" d="M183.86,71.15a.55.55,0,0,0,.11.22c0-.1,0-.2,0-.3s0-.44,0-.66V70.3c0-.21,0-.42,0-.63a2.61,2.61,0,0,1-.16.46,1.58,1.58,0,0,0,0,1" transform="translate(-64.65)"/><path class="cls-5" d="M182,116.66a1.92,1.92,0,0,0-.07.62,3.33,3.33,0,0,1-.07.86,2.22,2.22,0,0,0,0,1.19c.07.18.17.26.4,0a.72.72,0,0,0,.24-.72,1.22,1.22,0,0,1-.08-.43,13,13,0,0,0-.17-1.58c0-.09,0-.15-.08-.14s-.1.08-.13.17" transform="translate(-64.65)"/><path class="cls-5" d="M184.2,68.24h0a.37.37,0,0,1-.05.16.42.42,0,0,0-.1.4,1.89,1.89,0,0,1,.05.35c0-.31.06-.61.1-.92" transform="translate(-64.65)"/><path class="cls-5" d="M182.44,125.3c-.19.39-.51.5-.64.74s.13.45.14.75a1.9,1.9,0,0,0,.07.37,1.56,1.56,0,0,0,.21.5h.06l.05,0h0l.14-.14.16-.15,0,0c-.41-.55-.28-.94.49-1.54q.09-.32.16-.64h0c-.25-.09-.71,0-.8.15" transform="translate(-64.65)"/><path class="cls-5" d="M182.27,122.1a.48.48,0,0,1,.21-.49c.28-.38.31-.56.1-.44-.43.25-.22-.15-.15-.4a4.67,4.67,0,0,0,.23-.61c0-.19,0-.37-.12-.37s-.24.15-.36.31a3.06,3.06,0,0,0-.48,1.21c-.14.68-.14,1.31-.34,2.07-.06.22,0,.37.11.35a.66.66,0,0,0,.45-.43c.18-.42.43-.87.35-1.21" transform="translate(-64.65)"/><path class="cls-5" d="M182.12,123.49c-.12.2-.18.75-.09.83s.67-.35.77-.56,0-.36-.11-.44a.38.38,0,0,0-.57.17" transform="translate(-64.65)"/><path class="cls-5" d="M184,114.9v0s.07,0,.17,0,0-.15,0-.22a1.12,1.12,0,0,0,0-.21s0-.06,0-.07-.18-.14-.19-.21a.16.16,0,0,1,0-.05l0-.06a.61.61,0,0,1,.1-.13.24.24,0,0,0,0-.17.24.24,0,0,0,0-.06l-.06-.15,0-.07a1.19,1.19,0,0,1-.13-.38.35.35,0,0,1,0-.08.57.57,0,0,1,0-.08c0-.05,0-.11,0-.16a.86.86,0,0,0,0-.24.27.27,0,0,0,0-.08,9.41,9.41,0,0,1-.2-1.1s0-.09,0-.13v0a.22.22,0,0,1,0-.1h0s0,0,0-.06h0v-.06h0l0-.05v0l0-.07h0a.29.29,0,0,0,0-.15s0-.05,0-.06a.44.44,0,0,1-.19-.24.76.76,0,0,1,0-.33v-.17a1,1,0,0,0,0-.11s0,0,0-.07h0a1.09,1.09,0,0,1,0-.11c0-.1,0-.2,0-.3h0l-.12,0h-.08v0c0-.05,0-.11,0-.16a.17.17,0,0,1,.07-.18l.07,0,.08,0,.05,0a.12.12,0,0,0,0-.08.15.15,0,0,0,0-.09.34.34,0,0,0-.09-.08.39.39,0,0,1-.21-.27.47.47,0,0,1,.12-.32l0-.05a.4.4,0,0,0,0-.07.16.16,0,0,0,0-.11.66.66,0,0,1-.15-.25.45.45,0,0,1,0-.09.42.42,0,0,1,0-.09.55.55,0,0,1,.11-.27.17.17,0,0,0,0-.11v0l0,0c0-.05-.08-.1-.08-.14a.27.27,0,0,1,.1-.14l.11-.1,0,0a.06.06,0,0,0,0,0v0s0-.08,0-.09a.62.62,0,0,1-.17-.11.23.23,0,0,1-.07-.13.41.41,0,0,1,.14-.31.23.23,0,0,0,0-.17.31.31,0,0,0,0-.06,1.52,1.52,0,0,1-.06-.23v-.07c0-.05,0-.1,0-.16s0-.05,0-.08,0-.11,0-.16,0,0,0-.06,0-.34,0-.51v0c0-.07,0-.13,0-.19s0,0,0,0,0-.12,0-.18-.25,0-.29.36a10.12,10.12,0,0,0-.12,2.36,2,2,0,0,1-.12,1.07v.06c.13.26.09.77.21,1a1.92,1.92,0,0,1,0,1.39c-.1.35-.15.66.08.66s.12.11.07.31c-.09.38,0,.56.15.6s.09.11.08.26a3.72,3.72,0,0,0,.06,1.55.58.58,0,0,1,0,.37,4.55,4.55,0,0,0-.09,1.31,3.92,3.92,0,0,0,.39,1.5,3.8,3.8,0,0,0,.19.51c0-.07,0-.17.07-.26a3,3,0,0,0,.11-.89,2.17,2.17,0,0,0-.22-.87.39.39,0,0,1-.06-.18" transform="translate(-64.65)"/><path class="cls-5" d="M183.88,121.5s.08,0,.13.05l.06.05v0a.23.23,0,0,1,0,.07l-.18.18c0-.05,0-.11,0-.17a.44.44,0,0,1,0-.08.13.13,0,0,1,0-.07.14.14,0,0,1,.07-.06m-.38-3.22c-.05,0-.1.05-.13,0a.29.29,0,0,1,0-.25.66.66,0,0,1,.15-.2c.23-.16.22-.36.19-.62a14.34,14.34,0,0,1-.38-1.88c0-.1-.08-.18-.12-.26a.22.22,0,0,1,0-.26c.23-.37.07-.48,0-.64a2.17,2.17,0,0,1-.17-.33.25.25,0,0,1,0-.27c.18-.26.18-.38,0-.4s-.15-.14,0-.38c.28-.42.28-.43,0-.56s-.21-.14-.08-.5c.18-.53.15-.66-.08-.82s-.15-.38,0-.73a1.09,1.09,0,0,0,0-.73c0-.13-.13-.23-.08-.39a8.72,8.72,0,0,0,.14-1.42v-.06c0-.16,0-.32,0-.49a15.36,15.36,0,0,0-.12-2c0-.27-.11-.5-.24-.48s-.25.3-.29.64a13.53,13.53,0,0,0-.15,1.51,6.61,6.61,0,0,0,0,1.22,5.44,5.44,0,0,1,.08,1.74,1.49,1.49,0,0,0,0,.54.55.55,0,0,1,0,.32,2.52,2.52,0,0,0,0,2c.06.11.08.21-.07.4a.56.56,0,0,0-.06.5c0,.14.09.09.17,0s.13-.06.15.05a1.68,1.68,0,0,1-.22.93c.24-.14.32-.07.29.3s-.12.61,0,.82a1,1,0,0,1,0,.68,1.89,1.89,0,0,0,.06,1.3.43.43,0,0,1,0,.29c-.19.46,0,.7,0,1s.13.36.37.21.18-.24.31-.21c.11.31-.13.73-.25,1.11s-.17.51,0,.69.24.57-.19,1.13a7.63,7.63,0,0,0-.17,1.38.1.1,0,0,0,.1,0c.49-.17.37.27.33.64a.78.78,0,0,0,.18.68c0-.16.05-.32.07-.48v-.12c0-.16,0-.33,0-.49a.69.69,0,0,1,.15-.44.5.5,0,0,1,.13-.1s0,0,0-.06a.37.37,0,0,0,0-.06.14.14,0,0,0,0,0h0a.24.24,0,0,1,0-.45.43.43,0,0,0,.26-.38c0-.06,0-.12,0-.18l0-.09h0c0-.19.06-.38.08-.57s0-.19-.1-.09-.14.08-.17.06a.11.11,0,0,1,0-.1v0l0-.11v-.12h0c.07-.53-.08-1.11.33-1.58h0a.87.87,0,0,1-.08-.3c-.05-.63-.15-.67-.66-.48" transform="translate(-64.65)"/><path class="cls-5" d="M183.74,123.73l0,.1v0s0,0,0,.06v0l.1-.18-.05,0,0,0" transform="translate(-64.65)"/><path class="cls-3" d="M183,93.26c0-.19-.08-.39-.13-.57l0-.09h.34a4.53,4.53,0,0,1-.19.65m-2.83,17.06c0,.3-.17.59-.14.88,0,0-.05.07-.09.09s-.2.26-.21.5.09.2.2.1.25.09.24.27-.12.36-.2.35a1.31,1.31,0,0,1-.42-.2s0-.12,0-.21c.13-.33-.14-.48.07-.85,0,0,0-.08,0-.08-.2.17-.18-.18-.16-.38a13.37,13.37,0,0,0,0-2,1.39,1.39,0,0,1,.1-.62c0-.23-.16-.08-.22-.23,0-.32.19-.2.24-.53a1.21,1.21,0,0,0-.22-.61,2.53,2.53,0,0,1-.39-1.32c-.15-1-.28-1-.55-.05a7.29,7.29,0,0,1-.13-1.09c0-.3-.09-.66-.22-.59s-.14.39-.13.68a3.17,3.17,0,0,1-.79,2.4,8.69,8.69,0,0,0,.11-4.25c.23.37.46.3.66.53s.2-.11.2-.63c0-1.42-.17-2.83-.15-4.36a1.13,1.13,0,0,0-.19-.81c-.08-.07-.21,0-.23-.62.36.4.5-1,.8-1.33a11.37,11.37,0,0,0-.12,3.34c0,1.23.15,2.34.15,3.56a4.31,4.31,0,0,0,.43,2.35c.21.25.36,1,.62.79l0-.07c0-.63-.25-.72-.33-1.28.14-.31.21.21.3.33s.19,0,.18-.55a2.25,2.25,0,0,0-.4-1.5c.07-.62,0-1.38.27-1.54.05,0,0-.32,0-.48s.07-.5.15-.41a1,1,0,0,1,.13.58,28,28,0,0,0,.15,3,1,1,0,0,1,0,.44,1.18,1.18,0,0,0,0,1.06,3.51,3.51,0,0,1,.23,1.9,3.28,3.28,0,0,0,0,.64,24,24,0,0,1,.07,2.84m-1.5-2.23a13,13,0,0,0,0,1.39c-.13-.56-.4-.85-.57-1.44-.09-.32-.25,0-.37.14s-.29.36-.44.1a.59.59,0,0,1,0-.64,1.34,1.34,0,0,1,.32-.43,2.31,2.31,0,0,0,.8-.93c.11-.24.23-.09.34-.09a7.39,7.39,0,0,1,0,1.89m-1.45-8.71c.07-.11.13-.4.22-.1a1.51,1.51,0,0,1,0,.72,2.25,2.25,0,0,0,0,1.29c.07.21,0,.22-.09.23a1.56,1.56,0,0,1-.25,0c.07-.8-.07-1.7.21-2.13m.48-6.19c0-.22,0-.43.07-.63h.77a3.8,3.8,0,0,1,.13,1.28c-.2-.63-.41-.59-.65.16-.09.27-.19.62-.31.33a2.79,2.79,0,0,1,0-1.15m.73-10.81a.57.57,0,0,1,.13-.08l0,0c0,.06.08.13,0,.17l-.05,0a.51.51,0,0,1-.15,0,.45.45,0,0,1,.06-.14m1,14.92a17,17,0,0,0-.16,1.95c-.08-.66,0-1.4-.07-2a1.2,1.2,0,0,1,.06-.51c0-.12.1-.12.14,0a1.5,1.5,0,0,1,0,.62m.31-3a1,1,0,0,1,0,.49c-.35.49-.67.47-1-.12a1.53,1.53,0,0,1-.06-.81c.33.66.69.79,1.06.43m-.45-1.73c0,.14,0,.3,0,.5-.15-.25-.32,0-.47-.5h.44m.72,0a1.23,1.23,0,0,1-.05.28c-.08.23-.16.21-.24.05a1,1,0,0,1-.07-.34H180m-4.43,3.68a1,1,0,0,1-.1.75c-.13.14-.21,0-.25-.34a4.29,4.29,0,0,1-.09-1.25,17.59,17.59,0,0,0,.13-2.52c0-.12,0-.24,0-.36h.26a5,5,0,0,0,0,.78,2.65,2.65,0,0,1,0,.69,6.48,6.48,0,0,0,0,2.25m-23.22-3.76c-.17,0-.35,0-.43.24s-.06.13-.14.07a.7.7,0,0,0-.46-.1.37.37,0,0,1-.37-.24l1.49,0a.11.11,0,0,1-.09.06M121.08,120.9a.22.22,0,0,1,0,.2.63.63,0,0,1-.07.15l0-.35m.07-.93a1.31,1.31,0,0,1,.27-.08s.08.05.08.08-.12.3.13.33a.6.6,0,0,1-.13.74s-.08,0-.12,0-.08,0-.09-.07a.33.33,0,0,1,0-.13c0-.2,0-.22-.17-.25h0c0-.22,0-.43,0-.65m.07-4,.11-.09c.25-.22.28-.22.39.08a1.5,1.5,0,0,1,.05.4s-.06,0-.09.06c-.39-.1-.4-.1-.46.24a.4.4,0,0,0,0,.07.36.36,0,0,1,0,.1c0-.28,0-.57,0-.85m1.17,2.78a.31.31,0,0,1,.46.12.2.2,0,0,1,0,.18c-.12.11-.26.2-.15.4l-.11.09a1.77,1.77,0,0,1-.33-.2.37.37,0,0,1-.08-.25.44.44,0,0,1,.21-.34m2.12,3.31c.16-.06.36,0,.46-.2s.11,0,.16,0,.15.13.17.21-.1.13-.11.2,0,.22,0,.33-.05.1-.07.13a.64.64,0,0,1-.68-.49.18.18,0,0,1,.06-.16M116,50.85s.08,0,.18.11a1.58,1.58,0,0,1-.28.11s-.1,0-.15-.06a1.91,1.91,0,0,1,.25-.16m57.63,10.63s0,0,.07,0a.71.71,0,0,1,.28,0c0-.06,0-.13,0-.19s0,.13,0,.19h.19a1.06,1.06,0,0,1-.19.24c0,.16,0,.31,0,.47,0-.08,0-.16,0-.23l-.07-.09c-.08-.09-.18-.16-.27-.24s0-.09,0-.13m.26-.87s0,.07,0,.1,0,0,0-.05l0-.05m.09.63h0v0m2.81-.67c.19.36,0,.48-.23.68a1,1,0,0,0-.38-1c.42-.09.42-.08.61.27m-.33,4.16c-.18-.15-.22-.29-.13-.36a1.4,1.4,0,0,0,.35-.38c0-.05.09-.08.17,0a.21.21,0,0,1,.07.21c-.08.25-.32.35-.46.54m5.88-3.88a1.84,1.84,0,0,1,.65-.25c.19,0,.28.3.32.5s-.25.52-.43.43a1.93,1.93,0,0,0-.71-.17c0-.29,0-.45.16-.51m.6,2.49-.45-.58c.07-.13.13-.28.21-.41s.13-.15.25-.08a.43.43,0,0,1,.15.33c0,.28-.21.43-.16.74m1.18-1.41a7,7,0,0,0,.48,1.27.27.27,0,0,1,0,.37c-.1.12-.19.25-.28.37-.25-.63-.65-1.31-.15-2M175.19,69a5.67,5.67,0,0,0,.62.45c-.08.08-.15,0-.23,0-.45-.14-.55-.05-.39.34,0,.07.09.13.09.19s-.08.15-.19.08a.72.72,0,0,1-.34-.6.56.56,0,0,1,.23-.55.18.18,0,0,1,.21.06m1.14,2c-.45.07-1.11-.16-1.07.52-.15,0-.19-.06-.18-.11a.53.53,0,0,0-.18-.7s0-.09,0-.13a.1.1,0,0,1,.14,0c.38.32.89.19,1.28.47m-1.09-4.26h0l0,0ZM174.13,70c0-.06,0-.16,0-.19l0,0c0,.09,0,.17,0,.26l0,0m12.19,19.5a6.84,6.84,0,0,1,0-1.11,10.37,10.37,0,0,0,.12-1.74c0-.52,0-1,0-1.57,0-.28,0-.27-.32-.6a.18.18,0,0,1-.05-.1c0-.27-.11-.45-.43-.4,0,0-.12,0-.12-.08,0-.26-.23-.27-.42-.34s-.49-.21-.74-.31l-.74,0h0c0-.34,0-.67,0-1a1.94,1.94,0,0,1,0-.22c0-.07,0-.14,0-.21s0-.24,0-.35,0-.08,0-.12a1.65,1.65,0,0,0,0-.81l0-.09v-.11a.63.63,0,0,1,0-.17.22.22,0,0,1,0,0c0-.21.07-.41.1-.62v-.11c0-.18,0-.35-.05-.53a1.07,1.07,0,0,0-.1-.21c-.11-.17-.06-.26,0-.31l0,0c0-.17,0-.34,0-.51s0-.64.06-1,.06-.63.09-1,0-.42.05-.63,0-.21,0-.31,0-.41,0-.61,0-.2,0-.31a8.4,8.4,0,0,1,0-.93c0-.1,0-.21,0-.31h0c0-.28.07-.55.1-.83a.32.32,0,0,0-.16.18,4.27,4.27,0,0,0-.45,1.34c0,.32,0,.69-.17.92a.81.81,0,0,0-.19.43,4.17,4.17,0,0,0-.2,1c0,.19-.18.29-.27.19s-.29-.34-.18-.49.15-.5.28-.73a.6.6,0,0,0-.17-.76c-.22.22-.42.42-.32.79a.43.43,0,0,1,0,.28,4.82,4.82,0,0,0-.27.77,3,3,0,0,0-.13,1.4,1,1,0,0,1-.07.69,1.32,1.32,0,0,0,0,1.19l-.1.06c-.29.21-.3.21,0,.71,0,.07.1.15.08.22-.08.26.14.63.06.91a.37.37,0,0,0,.25.42c.18.05.35.08.52.12a.86.86,0,0,0,.1-.14c.1-.23.09-.3-.15-.43s-.25-.21-.2-.41a1.73,1.73,0,0,1,.14-.52c.27-.36.15-.78-.32-1.15h0a.6.6,0,0,0,.22-.42.83.83,0,0,1,.11-.35c.23-.35.22-.38-.15-.75l-.11-.12c.23-.21.23-.21,0-.6.18.05.31-.06.53-.07,0,.64.25,1.33-.11,1.8-.13.18-.17.39,0,.74a1.07,1.07,0,0,1-.12,1.36c0,.23.23.27.31.46a1.06,1.06,0,0,1,.12.73c-.09.24-.28,0-.43-.13-.09.22.07.43.18.66s.36.71.18,1l-.84,0a.13.13,0,0,0-.1,0l-1.09,0h-.26V83a2.41,2.41,0,0,0-.08-.33.39.39,0,0,0-.2-.24l-.16-.05H180c-.11,0-.2.07-.25.24a3.21,3.21,0,0,0-.08.33l-.35,0v0a1,1,0,0,0-.36-.82l-.15-.1a.47.47,0,0,0-.31-.06l0,.09-.16.08s0-.07,0-.09a.58.58,0,0,0-.15.34,3.23,3.23,0,0,1-.05.45c-1-.1-2.09-.15-3.13-.18h0l-1.42,0c-3.08,0-6.17.16-9.25.15l.18-.2V82.5a.56.56,0,0,0-.31-.54.43.43,0,0,0-.47.09,3.15,3.15,0,0,0-.23.28.29.29,0,0,1-.45,0,.49.49,0,0,1-.11-.1c-.2-.26-.46-.13-.68-.09s-.16.22-.2.36l0,.15-.9,0c0-.1.06-.14.16-.15s.47-.05.6-.3c0-.06.12-.08.17-.13a.36.36,0,0,0,.08-.46.49.49,0,0,0-.31-.29l-.56-.17a2.14,2.14,0,0,1-.94-.55.81.81,0,0,0-1-.34s-.09-.05-.09-.07a.81.81,0,0,0-.2-.68c-.09-.11-.06-.21.06-.32l.17-.14c.26-.23.24-.3,0-.48a1.89,1.89,0,0,0-.83-.26.19.19,0,0,0-.18.19c0,.27.13.44.38.42a1.63,1.63,0,0,0,.21-.06H159a1.2,1.2,0,0,1-.05.13c-.15.29-.29.36-.57.28-.09,0-.17-.09-.26-.12s-.27,0-.33.18a.58.58,0,0,0,.09.62l.26.26s0,.1,0,.12a.16.16,0,0,1-.12.05l-.51-.08c-.32-.06-.44,0-.56.29a2.9,2.9,0,0,0-.07.42c0,.14,0,.32-.12.41a1.31,1.31,0,0,0-.43.9l-.57,0a.34.34,0,0,1,.08-.25c.1-.1.22-.19.32-.29a.33.33,0,0,0-.07-.46l-.13-.07c-.82-.39-.78-.55-1.13.35a.28.28,0,0,1-.3.16c-.07,0-.17,0-.21,0-.22-.23-.57-.14-.8-.34,0,0-.14,0-.18.06a4.75,4.75,0,0,0-.27.43.66.66,0,0,0-.1.33h-.41a.51.51,0,0,0,.08-.23c0-.4.13-.83-.29-1.13a.1.1,0,0,1,0-.17,1.67,1.67,0,0,0,.21-.07c.11-.06.21-.28.15-.38a.44.44,0,0,0-.21-.18c-.23-.08-.46-.15-.7-.21,0,0-.06.05-.06.08s-.06.23-.21.24a.37.37,0,0,0-.32.14.44.44,0,0,0-.06.2s.07.05.11.05l.36,0a1,1,0,0,1,.21,0s.06,0,.06,0,0,.11-.05.12a2.27,2.27,0,0,0-.51.23c-.14.12-.22.34-.41.4s-.12.41-.3.54l0,0a3.15,3.15,0,0,1,.43.22l0,0-1.41,0c0-.07,0-.15.11-.13l.21,0c.11,0,.24.11.33.08s.16-.14.24-.22l-.24-.38a.77.77,0,0,1-.32,0,.57.57,0,0,1-.2-.29,1.88,1.88,0,0,1,0-.36h0c-.14.14-.27.29-.4.44l.09,0a.15.15,0,0,1,0,.24c-.06,0-.16,0-.19.07a.57.57,0,0,0,0,.51c-4-.07-8.07-.05-12.11-.05a1.55,1.55,0,0,0-.64,0,3.09,3.09,0,0,1-1.22.18c-1.44,0-2.88,0-4.32.05-2,.07-4,.21-6,.29-1.1,0-2.21,0-3.31.05a.7.7,0,0,1-.29,0c-.07,0-.16-.15-.14-.19.18-.38-.12-.82.14-1.2,0,0,0-.17-.07-.21-.27-.2-.2-.5-.16-.74a.78.78,0,0,0-.09-.66.26.26,0,0,1,0-.26c.19-.12.12-.26.14-.43a.91.91,0,0,0,0-.41c0-.15-.26-.43.14-.48a.15.15,0,0,0,0-.09,2.39,2.39,0,0,1-.15-.79,13.72,13.72,0,0,0-.08-1.42,1.06,1.06,0,0,1,.08-.56c.09-.27.09-.26-.09-.65-.07-.16,0-.4-.24-.46a.31.31,0,0,1,0-.21,2.22,2.22,0,0,0,.17-1.11c0-.32,0-.65,0-1a3.5,3.5,0,0,0-.1-.81c0-.18-.24-.35.07-.46a.11.11,0,0,0,0-.1c-.32-.39.09-.85-.11-1.25a15.72,15.72,0,0,0,.06-2.32c.06-.77.11-1.53.16-2.3s.11-1.69.17-2.54c0-.26,0-.51.07-.77s.05-.41.47-.43l2.48-.12c3.37-.12,6.74-.23,10.1-.36a8.08,8.08,0,0,0,1.08-.24,4,4,0,0,1,.8-.08,12,12,0,0,1,1.5-.06c.2,0,.4,0,.59.12a.49.49,0,0,0,.33.1,5.46,5.46,0,0,1,1.33,0,8.36,8.36,0,0,0,1.34,0s0,0,.05,0c.51-.26,1.06.12,1.57-.11,1,.11,2-.1,3.08,0a7.26,7.26,0,0,0,1.1-.07l1.35-.06h.89l.38,0c.09,0,.2,0,.27,0a.27.27,0,0,1,.37,0,.29.29,0,0,0,.22,0A2.66,2.66,0,0,1,151.9,60a3.53,3.53,0,0,0,1.13,0c.25,0,.5.16.74,0,.44.24.89-.12,1.31,0,.6.17,1.21,0,1.82.07a7.28,7.28,0,0,0,1.55-.06,21.41,21.41,0,0,1,2.49,0,19.06,19.06,0,0,0,2.41,0c.58,0,1.17-.12,1.74-.09a2.57,2.57,0,0,1,.81-.13h2.3a.31.31,0,0,1,.26,0h1.18a2.47,2.47,0,0,1,.59-.3c.22-.07.32.06.21.3h1l-.74.68s0,0,0,.05-.07.06-.09.05h0l-.16.14.18.12c.13.09.23.05.29-.09s.11-.09.17-.06a4.17,4.17,0,0,1,1,.58c.16.12.15.24,0,.42l-.09.1s.07,0,.1,0,.14-.07.2-.06.09.15.07.24a.21.21,0,0,0,.15.22l.8.36a.43.43,0,0,0,.22,0,3.41,3.41,0,0,0,.44-.09s0,0,0-.06l.11.07a.55.55,0,0,0,.38.09,1.5,1.5,0,0,1,.66.23c.2.11.36.24.26.46s-.12.21.08.33.22,0,.27-.11v0c0-.11.07-.22.25-.13a.21.21,0,0,1,.08.09.22.22,0,0,1-.12.28c-.53.24-.76.34-1.42-.43a.7.7,0,0,0-.59-.32h0q0,1.41.09,2.82s0,.05,0,.08c-.16-.08-.33-.13-.49-.21a1.62,1.62,0,0,1-.17-.14c-.08-.05-.19,0-.19.15a.18.18,0,0,0,.08.18c.12.08,0,.16,0,.23a.26.26,0,0,1-.27,0s-.17-.14-.12,0-.06.36-.14.53a.35.35,0,0,0,.14.5c.06,0,.13.08.18.12a.34.34,0,0,1,.07.13.1.1,0,0,1,0,.07.07.07,0,0,1,0,0c-.2,0-.31-.11-.44-.22a.14.14,0,0,0-.13,0,.29.29,0,0,0-.11.16c0,.07,0,.14,0,.21s0,.23-.17.25H172c-.26,0-.26,0-.25.37,0,.06,0,.16-.1.12s-.22-.11-.33-.14a.32.32,0,0,1-.26-.31c0-.05-.09-.1-.13-.16s-.07-.17.07-.19.39,0,.44-.27.14-.11.24-.11c.32,0,.32,0,.24-.28a.42.42,0,0,1,0-.35,3,3,0,0,0,.4-.77l.12,0,.12.08c.15-.27.35-.52.25-.88,0-.13-.08-.23-.22-.25a.67.67,0,0,1-.51-.25.45.45,0,0,0-.39-.16c-.05,0-.11.06-.15.11s0,.09,0,.14c0,.24,0,.26-.18.29l-.09,0,.06,0s0,0,0,0l-.75.76h-.1c-.26-.09-.36.08-.44.26s-.09.33-.14.49-.07.37-.18.45.05.31,0,.45a1.82,1.82,0,0,0,0,.21c-.05.17-.19.34,0,.49a.08.08,0,0,1,0,.07.79.79,0,0,1-.35.53c-.1.05-.29,0-.31.12s.16.15.22.24a1.63,1.63,0,0,1,.08.27c0,.11.1.28.23.25.28-.06.36.16.41.32a3.51,3.51,0,0,0,.29.67.57.57,0,0,0,.43.35A.47.47,0,0,1,171,71a2.83,2.83,0,0,0,.75.58,3.93,3.93,0,0,1,.73.49c.11.1.12.3.2.45a2.57,2.57,0,0,0,.25.37A.39.39,0,0,0,173,73l.06,0q.45-.63.94-1.24c-.06-.1-.12-.1-.23,0s-.2.14-.31.05a1.37,1.37,0,0,1-.28-.33c0-.07,0-.11.09-.15s.15-.11,0-.3c0,0,0-.1,0-.11a.14.14,0,0,1,.13,0c.08,0,.15.11.24.16s.19,0,.21-.15,0-.15.11-.13a.49.49,0,0,1,.18.08c0,.19,0,.39,0,.58,0,0,0,0,0,.06q0,1.42,0,2.85c0,.06,0,.12,0,.17s0,.09,0,.13v0l0,.15h0l0,.15a6.41,6.41,0,0,0,.66-1.3c.12-.46.59-.57,1.13-.33,0,.05-.08.06-.13.07-.51.09-.56.15-.58.54a1.13,1.13,0,0,1,0,.5c-.09.19-.13.35.11.46s.14.2.08.36c-.15.36-.26.73-.4,1.11-.08.22-.11.42.09.55s.18.21.06.4a1.74,1.74,0,0,0-.22.54c-.09.37-.23.83,0,1.09s0,.81,0,1.22c0,.1-.12.17-.22.16-.4,0-.4.16-.31.43s.07.34.11.51.09.18.15.15c.32-.2.37.1.53.22a.63.63,0,0,0,.7.1c.38-.18.63-.38.58-.86a.55.55,0,0,1,0-.28.7.7,0,0,0-.21-.85c-.22-.21-.12-.3,0-.42s.36-.08.39-.3c-.45-.18-.46-.18-.24-.65.12-.25,0-.46,0-.68s-.13-.28-.34-.28a.1.1,0,0,1-.07-.05,1.35,1.35,0,0,1,.24-.85c.1-.08.21-.13.31-.21s.15-.16,0-.18-.09-.09,0-.14a1.17,1.17,0,0,1,.19-.08c.07,0,.11-.09.07-.15a.16.16,0,0,0-.12-.05c-.09,0-.17.05-.26.06s-.22,0-.22-.13-.12-.27,0-.43a.25.25,0,0,1,.15,0,1.12,1.12,0,0,1,.2,0c.08,0,.17,0,.24,0a.13.13,0,0,0-.07-.22c-.26-.09-.19-.24-.05-.38.34-.34.16-.64,0-.95-.07-.11-.24-.17-.25-.32s.45,0,.41-.09.18-.46.08-.69,0-.27.17-.34a.38.38,0,0,0,.22-.57,2.17,2.17,0,0,1-.1-.67.55.55,0,0,1,.26.32c0,.08.09.16.19.14a.17.17,0,0,0,.13-.17.42.42,0,0,0-.07-.29,1.75,1.75,0,0,1-.34-.88,1,1,0,0,0-.26-.5.44.44,0,0,1-.09-.56.7.7,0,0,0-.19-.91.92.92,0,0,0-1-.33l-.2,0c-.14,0-.29,0-.31-.21,0-.33-.23-.68-.09-1,.26.22.49.3.68.13s.08-.29-.16-.41-.47-.12-.55.24c-.1-.48-.07-.59.34-.53a1.27,1.27,0,0,0,1.28-.47,1.24,1.24,0,0,1,.51-.41,1.56,1.56,0,0,1,.35,1.14.79.79,0,0,0,.37.79.38.38,0,0,1,.19.42c0,.23.11.35.37.38l.56.09c0,.11,0,.14,0,.17s-.27,0-.17.19.25.13.37.11a.27.27,0,0,0,.18-.1,2.11,2.11,0,0,0,.29-1.12.73.73,0,0,0-.15-.43.66.66,0,0,0-.44-.3c-.19,0-.13.17-.13.3s.09.35,0,.49l-.19-.19c-.38-.4-.38-.4-.24-.75s.15-.47.42-.51a.23.23,0,0,0,.18-.18c0-.23.21-.25.44-.19a2.3,2.3,0,0,1-.29-1.84,1.86,1.86,0,0,0-.32-1.57.51.51,0,0,1,.16-.7c.18-.12.38-.09.53.2a1.94,1.94,0,0,0,.59.66,3.48,3.48,0,0,0-.33.35,10.52,10.52,0,0,0-.28,2s0,.08,0,.12c0,.24.08.48.11.72.06.66.06.65.56,1.14,0,.23-.35.13-.31.39s.32.38.42.6a.35.35,0,0,0,.05.11c.23.21.45.51.74.51s.44-.3.4-.65a.21.21,0,0,0,0-.06,2.13,2.13,0,0,1,0-1.06,2.21,2.21,0,0,0-.13-1.38,1,1,0,0,1,0-.81,1.92,1.92,0,0,0,.86.54.87.87,0,0,1,.65.5.52.52,0,0,0,.53.33c.3-.07.52.07.77.31,0-.41.08-.82.11-1.24l0-.26q0-.6.08-1.21c0-.15,0-.3,0-.46,0-.52.09-1,.09-1.57l-.12-.09h.12c0-.12,0-.25,0-.37s0-.12,0-.17,0-.08,0-.13,0-.22,0-.33a.22.22,0,0,1,0,0,.4.4,0,0,1,0,0,.24.24,0,0,1,0-.06h.08l0-.12.14-.19h.24a.4.4,0,0,1,.36-.06c.33.09.44-.07.45-.43,0-.19,0-.37,0-.56s0-.07,0-.1a22.3,22.3,0,0,1-.11-4c0-.19,0-.39,0-.58h0a3.46,3.46,0,0,0-.08-.87v0h0a1.52,1.52,0,0,1-.08-.69v-.05h0a.62.62,0,0,1,.28-.32.07.07,0,0,0,0,0,.31.31,0,0,0,0-.17,1.14,1.14,0,0,0-.2-.48l-.11-.12h0c-.22-.26-.41-.59-.78-.55a2.86,2.86,0,0,1-.7-.11h0a.67.67,0,0,0-.36,0c-.23-.18-.43.08-.66,0l-.55-.12h0a1.37,1.37,0,0,0-.62,0,3.14,3.14,0,0,1-.85,0l-2.58,0a8.84,8.84,0,0,1-1.05,0,10.44,10.44,0,0,0-1.37,0h-1.5c-.43,0-.86-.06-1.29,0a14.42,14.42,0,0,1-1.71,0c-.57,0-1.15,0-1.72,0l-1.84,0c-.15,0-.32-.09-.45,0-.47.17-1-.16-1.41.07a6.4,6.4,0,0,0-1.92-.1,34.87,34.87,0,0,1-3.93-.06.22.22,0,0,0-.12,0,6.7,6.7,0,0,1-2.19.12,10.21,10.21,0,0,0-1.45.09,4.37,4.37,0,0,1-1.34,0c-.25,0-.51-.05-.76-.06-2.17,0-4.34-.11-6.5-.1-3.31,0-6.62.07-9.93.13-2.88.05-5.75.13-8.63.19-.81,0-1.62,0-2.42,0s-1.65.07-2.47.11l-3.4.13c-.68,0-1.36,0-2,.06a1.74,1.74,0,0,1-.73-.13c-.19-.06-.52-.11-.59,0-.26.32-.57.16-.86.18a.26.26,0,0,1,0-.14s.08-.07.13-.1-.11-.09-.17-.09l-2.33.14c-1.29,0-2.58,0-3.88,0a2,2,0,0,0-.88.29c-.13.07-.17.32-.23.5a5.9,5.9,0,0,0-.48,2.49c.06.42.32.83.4,1.25.13.67.11,1.37.19,2,0,.36,0,2.08.19,2.26a4,4,0,0,0,1.4.54c.46.12.46.09.44.54,0,.12,0,.23-.05.35-.06.6-.13,1.2-.17,1.8s0,1.36,0,2-.05,1.43-.07,2.15a4.44,4.44,0,0,1-.1,1.6,1.18,1.18,0,0,0,0,.41,14.84,14.84,0,0,1-.16,3.43,5.34,5.34,0,0,0-.1,1.67c.06.86-.14,1.72,0,2.59a3.61,3.61,0,0,1,0,.79c0,.33-.07.65-.08,1a10.39,10.39,0,0,1,0,1c0,.26,0,.52-.05.78h0c0,.2,0,.89,0,1.09a.18.18,0,0,0,0,.08c0,.32,0,.64.07,1a.75.75,0,0,1,0,.32l-.11,0s0,0,0,0a.39.39,0,0,1-.14,0h-.25l-.15,0h-.16l-.27,0-.26,0a.56.56,0,0,0-.16,0l-.16.07s-.07.1-.09.15a.57.57,0,0,1-.06.11s-.08.06-.11.1l0,.06-.05.11a2.08,2.08,0,0,1-.15.21c0,.05-.12.1-.14.16a.37.37,0,0,0,0,.13c0,.09,0,.39,0,.48s0,.27,0,.41a1.21,1.21,0,0,0,0,.19c0,.53,0,1.06,0,1.59a1.52,1.52,0,0,1,0,.38.36.36,0,0,0,.07.33h0c.16.08,0,.26,0,.36a1.12,1.12,0,0,0-.08.33c0,.08,0,.16,0,.24a1.18,1.18,0,0,0,0,.39c0,.08.11.18.09.28s0,.08-.05.13,0,.12-.06.18a2.57,2.57,0,0,0,0,.28c0,.07,0,.13,0,.2a2.9,2.9,0,0,0,0,.37s0,.1,0,.14,0,.29,0,.43a3.08,3.08,0,0,0,.07.6,2.64,2.64,0,0,0,.17.52c.09.17.12.42.33.48l.25.06.19,0a7.08,7.08,0,0,0,.71.05h.65c0,.16,0,.78.07.92a.41.41,0,0,0,0,.1,49.64,49.64,0,0,1,.08,5.66,15.14,15.14,0,0,1,0,2.33c0,.24-.14.45-.16.69s.3.22,0,.56c0,0,.05.15,0,.2s.19.34,0,.55.07.39.09.6a2.66,2.66,0,0,1,0,.47c0,.19,0,.39-.06.58,0,.9-.09,1.81-.1,2.71,0,1.93,0,3.85,0,5.78,0,1.12.07,2.24.08,3.36,0,2.79,0,5.58,0,8.38a4.32,4.32,0,0,0,.11.88.6.6,0,0,0,.23.39,1,1,0,0,1,.58,1,.23.23,0,0,0,.27.24c.26,0,.21.08.07.21s0,.06,0,.1a.32.32,0,0,0,.11,0h0a.67.67,0,0,0,.21-.08.25.25,0,0,1,.15-.06s.09.07.15.16.37.12.56.17h0a.64.64,0,0,1,.53-.25c.19,0,.39.06.58.07h0c.45,0,.9.09,1.35.14s.7.08,1,.1a1.11,1.11,0,0,0,.58,0c.33-.19.54,0,.76.16s.19.12.27,0,.22-.14.26,0c.08.35.29.24.47.15s.29-.18.31-.3l0-.06h0a.75.75,0,0,1,0-.12h0l0-.07a.52.52,0,0,1,.36-.22h0l.25,0a2.11,2.11,0,0,1,.23,0c.44.08.67-.17.87-.52.08-.15.17-.29.26-.43a2.4,2.4,0,0,0-.42-.38.91.91,0,0,0-.51-.1c-.09,0-.19.11-.27.19a.48.48,0,0,1-.14.11,40,40,0,0,0,.71-4.39l.22.19a.45.45,0,0,0,.52,0c.09-.06.18-.13.28-.18a.21.21,0,0,1,.28.12.24.24,0,0,1,0,.06c0,.06,0,.13,0,.19s-.14,0-.18,0a.2.2,0,0,0-.3,0,.32.32,0,0,0-.08.38,5,5,0,0,0,.31.46c.09.12.22-.06.3,0a3.9,3.9,0,0,1,.43.34.42.42,0,0,0,.38.08c.18,0,.2,0,.14.15s-.08.22,0,.33l.38.51a.78.78,0,0,0,.14-.53c0-.08.16-.2.26-.28s.18,0,.21-.07a4.89,4.89,0,0,1,.22-.46c.11-.14.38-.23.39-.36,0-.38.31-.57.53-.81.56-.6,1.14-1.19,1.69-1.81l.66-.75a1.31,1.31,0,0,0-.44-.22,1.24,1.24,0,0,1-.71-.49,1.88,1.88,0,0,1-.49-.75c0-.1-.12-.12-.22-.14a.58.58,0,0,1-.26-.05c-.09-.07,0-.16,0-.24a.15.15,0,0,0,0-.12,2.14,2.14,0,0,0-.24-.34.18.18,0,0,0-.18,0c-.26.19-.43,0-.6-.15s0-.13,0-.19c0-.22,0-.33,0-.42s-.11,0-.17,0-.14.11-.16.1,0-.16,0-.23,0-.16,0-.17a.79.79,0,0,1-.6-.6,2.45,2.45,0,0,0-.65-1,2.58,2.58,0,0,0-.77-.56,3.85,3.85,0,0,1-.66-.36.31.31,0,0,0-.32,0q0-.93,0-1.86l-.14.15c-.12.13-.2.38-.46.28s-.16-.33-.22-.51a1.06,1.06,0,0,1,0-.22,1.19,1.19,0,0,1,.11-.41c.08-.12.13-.17,0-.27a.18.18,0,0,1-.05-.16c.18-.46,0-1,.16-1.41a1.39,1.39,0,0,0,.12-.82s0,0,0-.06c-.37-.5-.15-1.05-.11-1.59,0-.33,0-.66,0-1s0-.49.34-.51c0,0,.07-.08.1-.12s-.1-.05-.14,0c-.21,0-.25,0-.19-.23a4.52,4.52,0,0,1,.18-.49c.11-.22.12-.21.05-.52s0-.29.15-.38a.33.33,0,0,0,.14-.29c-.09-.26-.24-.5,0-.74a.19.19,0,0,0-.07-.14c-.14-.06-.25-.12-.22-.29s.08-.45.14-.68.2-.65.29-1c0,0-.06-.11-.1-.12-.34-.1-.36-.21,0-.38.06,0,.08-.17.09-.26a8.66,8.66,0,0,0,.09-1.17,1.55,1.55,0,0,0-.31-1.15.9.9,0,0,1-.1-.72,9,9,0,0,0,.06-1.76,1,1,0,0,1,.09-.45c.07-.11.11-.19,0-.32a.42.42,0,0,1-.07-.22c0-.24.11-.48.12-.72s-.08-.46-.08-.69.12-.31.32-.15.47-.11.64.13a.19.19,0,0,0,.1,0c.47-.52,1.1-.27,1.67-.34h.06a2,2,0,0,0,1.87-.13.46.46,0,0,1,.59.07c.23.22.47.37.74,0,0,0,.11,0,.15,0a1.71,1.71,0,0,0,1,0c.3-.1.65-.07,1-.14s.11.07.13.14.09.1.11.09c.4-.25.78,0,1.18,0s.54.13.8-.05c.05,0,.18,0,.27,0a2.26,2.26,0,0,0,1-.09c.07,0,.2,0,.22,0,.13.21.29.1.46.1s.6.13.79,0a1.94,1.94,0,0,1,.77-.17,25.5,25.5,0,0,1,6.21.06c.07.35.19.63.59.71,0,0,0,.09,0,.1a.76.76,0,0,0-.18.64c0,.13-.06.2-.21.22l-.2,0c-.32.06-.34.12-.21.4a1.79,1.79,0,0,0,.54.62.18.18,0,0,0,.24-.06.33.33,0,0,0-.09-.53,1.37,1.37,0,0,0-.2-.05.52.52,0,0,1-.1-.07l.11-.08c.27-.15.41-.14.6.07s.09.16.15.23.22.13.35,0A.55.55,0,0,0,143,94c0-.11-.06-.22-.08-.34s0-.1,0-.11a.14.14,0,0,1,.13,0l.36.32c.23.21.35.23.59,0a2.7,2.7,0,0,0,.27-.3c.1-.1.18-.24.3-.27a1.2,1.2,0,0,0,.89-.67s.08,0,.12,0a.41.41,0,0,1,.26.36.35.35,0,0,1-.24.31c-.13,0-.27,0-.4.08a.32.32,0,0,0-.17.4l.06.12c.46.72.35.83,1.08.29a.26.26,0,0,1,.32,0c.06,0,.14.08.15.13.06.3.38.4.47.67,0,0,.13.06.18,0a4.49,4.49,0,0,0,.43-.21.49.49,0,0,0,.31-.49c0-.31.12-.46.41-.53a.54.54,0,0,0,.38-.59.86.86,0,0,0-.15-.52.54.54,0,0,1-.1-.22h.33c0,.09.08.19.13.27a.23.23,0,0,0,.36,0,.42.42,0,0,0,.1-.3h.95a.58.58,0,0,0,0,.6,4.33,4.33,0,0,0,.37.5.87.87,0,0,0,.24.14l.44-.2c.1-.05,0-.12,0-.17s-.09-.19,0-.24c.38-.14.39-.16.75,0,.17.1.38.12.51.31s.36.09.54-.08.14-.19,0-.41l-.14-.24c-.06-.1,0-.16.07-.22a.22.22,0,0,0,.08-.1l.95,0a.13.13,0,0,0,0,.16h0a.46.46,0,0,1,.11-.17c2.06,0,4.13-.08,6.19-.08.94,0,1.88.06,2.82.1l9.75.08h.13v0a1.29,1.29,0,0,0,0,.5,5.08,5.08,0,0,1-.12,1.65h0q0,.44,0,.88h0v0c.08.41-.15,1,.09,1.3s.32-.81.59-.62a2.45,2.45,0,0,1-.32,1.05c-.43,1.21-.44,1.19.16,1.85a.6.6,0,0,1,.2.48c0,.44-.17.25-.27.33a1.12,1.12,0,0,0-.15,1.32,5.25,5.25,0,0,1,.91,1,.3.3,0,0,0,.55-.11,6.93,6.93,0,0,0,.11-2.86c-.14-.71.06-1.2.35-1s.32.55.26,1.18a2,2,0,0,0,.11,1.25,2.83,2.83,0,0,1,.28,1.49,16.58,16.58,0,0,0,.33,3.48,4.54,4.54,0,0,1,.15,1.37c0,.32-.17.78.16.79.06,0,.07.23,0,.3a2.84,2.84,0,0,0-.2,1.43c-.08,1.21-.16,2.28-.18,3.24,0,.74.46,1.19,1.07.51a5.27,5.27,0,0,1,.64-.61.59.59,0,0,0,.2-.57.51.51,0,0,0-.26-.46c-.24-.13-.23-.18,0-.54.34-.55.38-1.16.05-1.43-.16-.14-.2-.54-.39-.63s0-.29,0-.43.12-.1.17,0a.6.6,0,0,1,.08.24c0,.46.22.52.33.74s.23.06.32-.24c.1.27,0,.63,0,.92,0,.62,0,1.23-.06,1.79a1.71,1.71,0,0,0,0,.81c.21.32.43.63.83.39.22-.13.3,0,.3.29a2.38,2.38,0,0,1,0,.46,1.82,1.82,0,0,0,.26,1.5c.14.22.37,0,.44-.41a3.06,3.06,0,0,0,0-1.07,1.35,1.35,0,0,1,.22-1.14.6.6,0,0,0,.08-.55,1.16,1.16,0,0,1,.07-1.05,1.18,1.18,0,0,0,.06-.3,8,8,0,0,0,0-1.11c0-1.13,0-1.21-.5-.84,0,0,0,0-.07,0,0-.21.05-.39.14-.42s.26-.36.34-.74a3.61,3.61,0,0,0,.1-1.25,14.48,14.48,0,0,0-.4-2.51,1.61,1.61,0,0,1,0-1,6.33,6.33,0,0,0,.17-1.74,8.55,8.55,0,0,1,.17-1.85c.15-.6.13-.66-.1-.9a.51.51,0,0,1-.09-.32c0-.56-.06-1.14-.09-1.71a9.78,9.78,0,0,0,0-2.89,2,2,0,0,0-.13-.84c0-.12-.1-.22-.15-.36h1.24l0,.21.08-.21h.66a2.11,2.11,0,0,0-.12.71,15.58,15.58,0,0,0,0,3.17,1.67,1.67,0,0,1,0,.72,13,13,0,0,0-.24,2.49,28.29,28.29,0,0,0,.06,2.92c0,.51.12.94.31.93s.27-.36.33-.84a1.13,1.13,0,0,1,.1-.47c.31.6.51.64.73.24,0-.07,0-.14,0-.21v0a2,2,0,0,0,0-.23,4.13,4.13,0,0,1,0-.51q0-.13,0-.26c0-.25,0-.51.07-.76s0-.34,0-.51a2.67,2.67,0,0,1-.2-.76h0q0-.41-.06-.82t0-.64c-.1,0-.2.1-.28.32a2.32,2.32,0,0,0-.11,1.13,5.62,5.62,0,0,1-.17,1.93c0,.15-.08.24-.13.2s-.07-.21-.07-.37c0-.4,0-.81,0-1.22a6.2,6.2,0,0,0,0-1.21,6.32,6.32,0,0,1,0-1.48,12.52,12.52,0,0,0,.2-2.44c0-.34.18-.81.21-1.31.16.14.27.39.25,1a1.44,1.44,0,0,0,0,.31c0-.44,0-.88,0-1.32,0,0,0-.07,0-.11s0-.36,0-.54l2.63,0,.1-.18a2.51,2.51,0,0,1,.46-.63c0-.79-.08-1.58-.13-2.37" transform="translate(-64.65)"/></g></g></g></svg>